<?xml version="1.0" encoding="UTF-8"?>
<svg id="Layer_2" data-name="Layer 2" xmlns="http://www.w3.org/2000/svg" viewBox="0 0 176.03 270.7">
  <defs>
    <style>
      .cls-1 {
        fill: #1d1d1b;
        stroke-width: 0px;
      }
    </style>
  </defs>
  <g id="Layer_1-2" data-name="Layer 1">
    <g>
      <path class="cls-1" d="m139.13,12.2c.46.39.77.78,1.04,1.12.23-.04.34-.06.52-.09-.11-.23-.21-.45-.32-.66.63-.04,1.09.34,1.56.65.76.5,1.53.96,2.43,1.22.86.25,1.67.7,2.47,1.11,1.51.79,3.05,1.52,4.46,2.51,1.6,1.12,2.83,2.59,4.14,3.99.19.21.26.57.48.7,2.29,1.43,3.18,3.82,4.31,6.07.74,1.47,1.61,2.87,2.37,4.33.44.85.79,1.75,1.17,2.63.38.89.53,1.86.8,2.78.26.87.22,1.85.33,2.78.12,1.04.66,1.83.93,2.76.08.27.17.54.26.81h-.72c-.19-.37-.38-.72-.78-1.46.06.77.09,1.12.12,1.46h.66c.07.82.27,1.03,1.02,1.15.15.38.36.71.66,1.18.31-.85-.19-1.01-.66-1.18.07-.29.07-.54.07-.78,1.4.76,2.8,1.48,4.32,2,.56.19,1.05.15,1.56.19,1.15.09,2.19.35,2.86,1.22.16,1.34.36,2.57.43,3.8.07,1.28,0,2.57.03,3.86,0,.2.23.39.27.45-.11.69-.45,1.39-.23,1.78.4.71.3,1.39.3,2.08.01,34.59.01,69.17.01,103.76,0,1.66-.83,3.32-.27,4.95.46,1.33.1,2.63.26,3.93-.74,1.11-.44,2.39-.28,3.51.11.8.3,1.61.27,2.43-.02.63.28,1.34-.35,1.88-.06.05-.06.27,0,.35.65.95.19,1.89-.01,2.82-.16.74.35,1.36.36,2.05.04,1.9.04,3.8,0,5.69-.02.62-.69,1.28-.31,1.85.54.81.23,1.63.31,2.44.02.19-.21.4-.36.65.14.63.78,1.25.11,2.07-.24.3-.1.93-.1,1.41,0,4.96.04,9.92-.03,14.87-.02,1.56-.3,3.12-.68,4.66-.23.93-.65,1.55-1.52,1.92-.47.2-.89.54-1.42.87-.67,0-1.46.01-2.26,0-.76-.01-1.56.16-2.16-.38-.45.48-.86.92-1.48,1.57,0,.38.01,1.11-.02,1.83,0,.1-.23.19-.33.3-.03-.38-.07-.74-.16-1.42-.31.61-.48.93-.7,1.36.4.03.62.05.86.06.26,1.15-.41,2.2-.39,3.33.02,1.07-.56,2.04-.61,3.03-.12,2.12-1.3,3.77-2.01,5.62-.2.53-.64,1.03-.64,1.55-.01.83-.51,1.43-.83,2.06-.65,1.28-1.63,2.39-2.41,3.6-1.12,1.74-2.31,3.39-4.12,4.52-.71.44-1.2,1.22-1.84,1.79-1.31,1.17-2.72,2.2-4.15,3.23-1.71,1.23-3.6,2-5.38,3.02-.64.36-1.36.61-1.58,1.52-.1.41-.65.7-.94,1-.16,1.65-.31,3.25-.46,4.85-.11,1.21-.8,1.8-2.39,2.05-.34.34-.68.69-1.01,1.03-.14.03-.25.06-.36.07-.99.12-1.98.25-2.97.37-.93.11-1.9-.24-2.8.34-.26.17-.72.03-1.09.03-2.08,0-4.16.06-6.24-.02-1.45-.06-2.8.54-4.26.41-1.4-.12-2.81-.03-4.22-.03s-2.97-.2-4.4.06-2.84.31-4.27.3c-.53,0-1.08-.02-1.59-.16-.58-.15-1.03.3-1.6.19-.53-.1-1.1-.02-1.65-.02-.7-.01-1.39.03-2.06-.34-.72-.4-1.57-.46-2.41-.39-1.66.14-3.33-.23-5.01.31-.63.2-1.45.17-2.25-.24-.68-.35-1.68-.07-2.53-.07-.98,0-1.95.01-2.93.02-.71.85-1.92-.13-2.64.72-1.42-.2-2.86.32-4.3-.27-.49-.2-1.23.1-1.82.28-1.44.43-2.3.48-3.6.11-.28-.08-.58-.11-.87-.11-1.22-.01-2.49-.21-3.66.04-1.91.4-3.82.24-5.73.34-.75.04-1.53.7-2.21.31-.77-.45-1.51-.31-2.26-.3-.63.01-1.26-.19-1.91.27-.37.26-1.15.25-1.59.04-1.11-.55-2.24-.21-3.35-.33-.93-.11-1.85-.29-2.79-.35-.91-.06-1.84-.05-2.75,0-.69.04-1.46-.28-2.05.35-1.22-.02-2.33-.44-3.74-.97.66-.1,1-.16,1.46-.23-.09-.24-.1-.54-.24-.62-.33-.19-.73-.29-1.13-.44-.09.27-.17.48-.25.71-.08-.03-.21-.04-.25-.1-.53-1-1.28-1.87-1.62-3.01-.12-.4-.29-.81-.21-1.18.18-.82-.24-1.51-.42-2.23-.21-.81-.74-1.54-.97-2.34-.28-1-1.09-1.4-1.86-1.69-1.98-.76-3.98-1.41-5.63-2.82-.12-.1-.4-.05-.47-.16-.41-.59-1.25-.22-1.7-.86-.35-.5-1.02-.77-1.49-1.2-.47-.44-1.01-.83-1.2-1.52-.03-.12-.4-.15-.6-.22,0-.23,0-.41-.02-.61,0,.01.03.03.05.06.1-.09.2-.17.3-.26-.04-.04-.08-.08-.12-.12-.09.1-.17.2-.24.32-1.13-.61-2.26-1.5-2.65-2.21.44.12.73.2,1.1.3.36-.49-.16-.7-.45-.96-.2.13-.39.26-.72.48-.09-.32-.08-.59-.21-.69-.89-.74-1.41-1.73-1.8-2.75-.29-.76-1.27-.76-1.43-1.59-.04-.2-.39-.35-.42-.55-.2-1.37-.87-2.48-1.76-3.5-.18-.21-.36-.49-.38-.75-.09-.93-.74-1.54-1.13-2.3-.85-1.66-1.35-3.49-1.86-5.28-.1-.34-.07-.68-.37-.97-.08-.07.1-.41.2-.76-.9-1.06-.32-2.77-1.62-4.1-.59-.24-1.38-.74-2.42-.88-.88-.13-1.66-.96-2.67-1.08-.72-.72-1.46-1.46-2.25-2.25-.86-2.52-.25-5.2-.49-7.84.26-.09.47-.17.78-.28-.39-.25-.73-.48-1.07-.69v-2.79c.85.76.87.86.47,1.71.16.39.29.68.41.97.11-.04.22-.07.33-.11.09-.29.18-.58.34-1.08.24-.2.66-.55,1.15-.96-.62-.28-1.09-.49-1.55-.7.09-.66.29-1.34.25-2.01-.03-.61-.31-1.21-.51-1.95-.17.48-.32.91-.49,1.38l.62.62c-.27.44-.55.89-1.06,1.73v-1.3c0-6.12,0-12.25,0-18.37,0-.57.15-1.13.25-1.88-.05-.17-.23-.55-.25-.94-.04-1.1,0-2.2,0-3.31,0-11.15,0-22.29.02-33.44,0-.63-.32-1.34.27-1.9-.41-.58-.37-1.12.06-1.7.1-.13.04-.54-.09-.66-.43-.42-.25-.92-.25-1.37,0-9.8,0-19.6,0-29.4,0-.52-.02-.99.31-1.53.43-.68-.35-1.42-.37-2.19,0-.26-.3-.52-.31-.78-.03-2.08-.02-4.16,0-6.25,0-.2.23-.39.29-.61.15-.49.27-.99.43-1.59-.18-.05-.39-.11-.6-.17-.04-.1-.13-.2-.13-.31,0-.61-.2-1.32.03-1.82.49-1.06.31-2.12.31-3.17s.28-2.15-.33-3.16c-.11-.18-.12-.55,0-.71.56-.76.33-1.62.34-2.43.03-2.08-.05-4.17.02-6.25.15-4.43-.66-8.83-.38-13.26-.74-2.86-.21-5.78-.37-8.67-.13-2.4.15-4.78.55-7.58.14.87.21,1.34.29,1.87.18-.15.31-.26.47-.4.18.58.35,1.15.57,1.85-.38-.17-.61-.27-.85-.37-.04-.02-.11.03-.16.04-.63.76.95,1.66-.04,2.32.13.92.25,1.79.39,2.72h.94c0-.22.06-.51.05-.79-.11-1.99.12-3.95.45-5.84-.32-.34-.56-.59-.92-.98.55-.21,1.03-.39,1.53-.57.03-.25.06-.54.1-.89h.84c.19-.37.34-.67.39-.77-.08-.61-.13-1.05.02-1.94-.07-.2-.21-.12-.2-.07.02.18.1.34.16.52.06-.22.13-.44.04-.45-.78.78-1.36,1.02-2.06.67.29-.17.55-.32,1-.58-.45-.27-.72-.42-1.04-.61,1.61-.6,3.14-1.25,4.86-1.25.32,0,.63-.26.95-.34.27-.07.57-.05.76-.06.41-.61.74-1.09,1.13-1.68.06-1.93,1.15-3.83,1.17-5.91-.25-.04-.37-.06-.62-.1-.04.26-.03.55-.14.78-.11.26-.33.48-.55.78-.57-1.32.09-2.49.34-3.64.17-.79.26-1.67.81-2.42.49-.66.64-1.56.95-2.35.22-.58.44-1.17.67-1.74.25-.63.34-1.46.81-1.83.49-.4.71-1,1.33-1.37.19.11.43.25.7.41.04-.18.08-.35.13-.53-.27-.13-.52-.25-.88-.41.42-.56.4-1.37,1.21-1.61.04.36.07.71.11,1.07.09,0,.17,0,.26,0v-1.05c.23-.04.47-.08.7-.12,0-.08-.02-.16-.03-.24h-.67c.64-.88,1.29-1.76,1.93-2.63.23.2.35.3.55.48.06-.41.11-.74.17-1.12.2.11.37.19.66.35v-.74h1.22c-.16.36-.2.66-.34.72-.69.29-1.3.6-1.3,1.48-.19,0-.42.03-.66.05v1.65c.19.19.36.34.54.51.16-.32.32-.62.4-.78-.11-.53-.21-.97-.27-1.42,1.25-.15,2.26-.63,2.94-1.68l-.34-.34c.46-.31.61-.9,1.34-.93.74-.03,1.04-.64,1.33-1.31-.26-.06-.49-.19-.58-.12-.48.34-.89.78-1.39,1.07-.48.28-1.04.43-1.62.65-.22-.1-.51-.24-.82-.39.02-.06.04-.15.08-.23.21-.36.55-.45.95-.41,0,0-.03.03-.06.05.09.1.17.2.26.3l.12-.12c-.1-.09-.2-.17-.32-.24.38-.84,1.1-1.39,1.92-1.69.62-.22.74-1.14,1.62-.98.14.03.42-.73.72-1.28,2.66-2.31,5.91-3.93,9.67-4.61-.11-.14-.21-.26-.39-.5.8-.08,1.45-.38,1.76-1.1.28-.74.68-1.47.81-2.23.14-.83.03-1.69.03-2.76-.41.35-.68.57-1.11.93.17-.82.31-1.47.47-2.18.23-.12.53-.27.81-.42.4.27.82.56,1.1.75-.06.49-.12.93-.39,1.83.07.19.21.11.2.06-.02-.18-.1-.34-.16-.52-.06.22-.13.44-.04.45.4-.45.58-.45.75-.45.51-.21-.21-1.03.58-1.12,0,0-.03.03-.06.05.09.1.17.2.26.3l.12-.12c-.1-.09-.2-.17-.32-.24.04-.38-.12-.78.22-1.18.32-.37.49-.88.73-1.34.06.17.13.38.21.64h1.23c.08.27.2.65.32,1.02.1-.1.21-.2.31-.3.73.34,1.1-.19,1.41-.53,2.2-.33,4.29-.65,6.5-.99,0-.08.04-.29.08-.61-.82,0-1.64-.21-2.24.05-.77.34-1.5.24-2.26.32-.68.07-1.38.36-2.01.24-.66-.12-1.27.5-2.02-.11,1.47-.26,2.74-.78,4.17-.97,1.56-.21,3.09-.17,4.63-.29.69-.05,1.36-.28,2.05-.34.7-.07,1.41.1,2.06-.36.21-.14.6-.02.9-.02,1.77,0,3.55.06,5.32,0,3.31-.14,6.62.22,9.95-.29,2.1-.32,4.32-.29,6.39.39.21.23.44.47.87.93V.38c.16-.12.26-.26.34-.24.69.11,1.43-.28,2.09.29.16.14.62.1.83-.03,1.12-.7,1.99-.08,2.91.45.42-.11.86-.33,1.3-.33,3.43-.03,6.85-.02,10.28,0,.32,0,.65.18.95.26,2.55-.58,5.14-.12,7.73-.3.05.26.09.42.16.76.8-.16,1.65-.24,2.43-.52.71-.25,1.3-.26,2.01,0,.5.19,1.15.06,1.71-.04.66-.12,1.3-.53,2.08.51q-.34-.32-.85.31c.08.11.16.22.31.43h-3.21c-.09-.23-.18-.44-.33-.8-.56.2-1.12.4-1.71.62.09.26.14.42.19.57.23-.13.41-.28.62-.34s.45,0,.63,0c.11.34.17.55.22.73h3.74c.18-.36.36-.71.39-1.5.75-.33,1.71-.33,2.67-.33.01.07.02.13.03.2-.22.1-.45.21-.79.37.91.43,1.44-.22,1.97-.41,1.74.32,3.41.4,5.18-.09.62.54,1.49.23,2.21.3.49.46.93.87,1.42,1.32-.27.09-.48.17-.73.26.17.33.33.67.52,1.06.09-.27.17-.49.3-.87.2.36.35.66.66,1.23.22-.62.29-.8.4-1.12.23,0,.56-.03.9-.05.06.26.09.43.14.66.93-.48,1.92-.21,2.89-.28.37.48.84.76,1.47.74v.59c.57.17,1.14.35,1.57.48-.25-.31-.56-.68-.88-1.07h-.7c-.21-.81-.84-.76-1.47-.74,0-.5-.39-.37-.65-.36-1.31.02-2.4-.66-3.64-1.03-.05.05-.18.16-.34.31-.06-.18-.11-.34-.16-.48.1-.11.17-.25.26-.26.24-.03.5-.06.73,0,.27.07.5.28.77.34.22.05.48.03.71-.04.25-.08.46-.24,1.09-.57-.35.53-.45.69-.59.9.48.07,1.05,0,1.36.24.38.3.82-.33,1.1.22.05.1.53.11.69,0,.84-.61,1.71-.26,2.43.06.87.39,1.84.72,2.47,1.56.22.29.51.52.79.8-.27,2.14.76,4.03,1.27,6.03.18.34.54.74-.26,1.02-.04,0,.07,0,.17,0-.05-.24-.09-.48-.14-.72-.08,0-.16.02-.24.03.03.24.05.47.21.7h0Zm-29.61,106.95c-.12.12-.24.25-.37.37-.37.24-.73.49-1.1.74.03-.74.44-1.28.9-1.84,1.01-1.23,2.06-2.47,1.73-4.23.08-.81.88-1.14,1.11-1.94.38-1.31,1.18-2.5,1.07-3.96.68-.59.21-1.38.34-2.06.12-.68.46-1.3.39-2.05-.15-1.72.21-3.47-.36-5.18-.16-.5.02-1.1-.04-1.64-.06-.51-.2-1.01-.36-1.5-.43-1.29-.67-2.63-1.24-3.9-.96-2.17-2.49-3.92-3.96-5.69-1.64-1.98-3.55-3.75-5.78-5.07-1.41-.83-2.91-1.6-4.46-2.04-1.26-.36-2.5-.81-3.78-1.09-1.41-.31-2.83-.73-4.26-.76-1.93-.05-3.95-.49-5.76.68-.13.08-.36,0-.54,0-2.22,0-4.08,1.07-5.91,2.12-1.14.65-2.24,1.35-3.4,1.97-1.23.65-2.42,1.53-3.32,2.58-1.23,1.44-2.33,2.98-3.67,4.34-.49.5-1.13,1.05-1.25,1.67-.2,1-.88,1.61-1.34,2.4-.74,1.27-1.55,2.5-2.06,3.92-.72,2.01-.8,4.12-1,6.17-.27,2.71-.28,5.48.65,8.14.16.46,1.49,3.85,1.73,4.24.98,1.57,1.9,3.16,3.03,4.63.41.53.62,1.22,1.12,1.74.78.82,1.49,1.7,2.21,2.57.09.11,0,.36,0,.54-.59-.49-1.18-.98-1.75-1.46-.26-.02-.5-.03-.78-.05-.03-.46-.05-.87-.07-1.33-.22-.15-.46-.31-.74-.43l.07-.07c-.09-.1-.17-.2-.26-.3-.04.04-.08.08-.12.12.1.09.2.17.33.22-.11.37-.23.74-.37,1.2.25.42.54.9.79,1.33.53.05.97.09,1.63.15-.47.22-.7.33-.94.44,1.16.02,1.37,1.25,2.19,1.66.18.48.35.95.54,1.44.39.02.8.04,1.19.06.09.26.17.48.24.69h.73c1.58,1.1,1.22,2.87,1.51,4.79.27-.88.49-1.35.55-1.85.08-.6.02-1.22.02-1.83.12.16.34.31.35.48.04.79-.02,1.59.03,2.39.03.57.18,1.13.28,1.7-.14.82-.76,1.5-.67,2.44.07.73.23,1.57-.04,2.18-.37.83-.36,1.64-.29,2.44.08.87-.29,1.61-.39,2.42s.08,1.6-.31,2.45c-.38.81-.33,1.83-.42,2.76-.15,1.6.25,3.22-.35,4.82-.29.76.17,1.64-.26,2.47-.4.77.14,1.79-.5,2.54-.2,1.92-.35,3.85-.71,5.76-.19,1.03.16,2.15-.4,3.15.09,2.08-.7,4.01-1.22,5.94-.61,2.25-.93,4.52-1.29,6.79-.25,1.57-.66,3.17-.44,4.8.03.25-.21.53-.25.8-.26,1.79-.87,3.5-.86,5.35,0,1.3.36,2.3,1.4,3.01.24,0,.44-.06.6.01.9.38,1.93.15,2.77.43,1.02.34,2,.23,2.99.29.61.04,1.23.05,1.83-.01.69-.07,1.47.31,2.05-.36,1.06.14,2.12-.21,3.2.25.78.33,1.82.66,2.52.4.85-.31,1.64-.21,2.45-.28,2.15-.19,4.34.38,6.46-.36.22-.08.61-.11.71.01.38.47.87.36,1.34.34.47-.01.99.02,1.4-.16.5-.21.83.44,1.23.16,1-.7,2.11-.34,3.16-.33,2.5.03,4.94-.28,7.3-.82l.86-.86v-4.01c-.71-.65-.03-1.63-.42-2.2-.57-.84-.2-1.65-.3-2.45-.08-.6.15-1.28-.05-1.82-.49-1.34-.31-2.78-.71-4.11-.25-.86-.16-1.82-.44-2.58-.3-.79.02-1.63-.33-2.24-.49-.83-.2-1.64-.32-2.45-.14-.92-.11-1.91-.43-2.76-.42-1.11-.38-2.28-.65-3.4-.17-.73.05-1.5-.35-2.25-.26-.48.09-1.3-.18-1.75-.4-.67-.09-1.31-.23-1.93-.13-.56-.26-1.12-.36-1.69-.17-.98-.52-1.94-.4-2.96-.62-.53-.17-1.27-.36-1.87-.19-.62-.41-1.2-.36-1.87.16-2.41-.63-4.78-.36-7.2.01-.12.05-.3-.01-.36-.61-.61-.32-1.37-.34-2.06-.02-.72-.54-1.28-.41-2.06.15-.87-.56-1.67-.37-2.59-.9-1.51-.5-3.3-1.06-4.89-.13-.38-.07-.86-.01-1.28.06-.45.27-.87.35-1.32.41-2.4,1.52-3.89,3.82-5.18.32-.18.57-.42.96-.35-.45.48-.9.95-1.47,1.56v.74c-.27.31-.58.68-.87,1.01.59-.05.9-.41.87-1.1,1.02-.82,2.03-1.64,2.94-2.37v-.94c.44-.51.95-.97,1.31-1.53.27-.41.36-.94.52-1.41.12-.12.24-.24.33-.4l.07.07c.1-.09.2-.17.3-.26l-.12-.12c-.05.08-.14.18-.18.32h0Zm-31.96-65.42c-.12-.12-.24-.25-.37-.36.09-.67-.28-.98-.95-1.17-.07.23-.13.43-.18.61.42.21.78.38,1.13.55.12.12.24.25.4.33l-.07.07c.09.1.17.2.26.3l.12-.12c-.11-.08-.21-.16-.34-.21h0Zm-5.48,182.25s-.05.05-.07.07c.09.1.17.2.26.3.04-.04.08-.08.12-.12-.1-.09-.2-.17-.37-.18.02-.02.04-.04.06-.07-.08-.09-.17-.19-.25-.3-.04.04-.08.08-.12.12.1.09.2.17.37.18h0ZM159.14,33.11s-.05.05-.07.07c.09.1.17.2.26.3.04-.04.08-.08.12-.12-.1-.09-.2-.17-.33-.22-.04-.1-.08-.2-.12-.3-.08.1-.16.2-.25.3-.48,0-.32-.37-.37-.63-.14-.77-.21-1.59-1.01-1.6-.09-.72-.14-1.09-.2-1.58-.32.16-.49.25-.8.4.3.35.51.6.91.84.06.39-.1.66-.37.96-.24.27-.33.69-.49,1.05,1.64.53,1.9,2.17,2.95,3.06.16-.16.29-.29.47-.47-.32-.44-.67-.88-.96-1.36-.11-.18-.1-.45-.14-.67.13,0,.25,0,.4-.03h0Zm-89.63,137.52s-.05-.05-.07-.07c-.1.09-.2.17-.3.26l.12.12c.09-.1.17-.2.18-.37.02.02.04.05.07.06.09-.08.19-.17.29-.25-.04-.04-.08-.08-.12-.12-.07.11-.16.21-.17.37h0ZM37.55,5.18l-.07.07c.09.1.17.2.26.3l.12-.12c-.1-.09-.2-.17-.37-.18.02-.02.04-.04.06-.07-.08-.09-.17-.19-.25-.3l-.12.12c.1.08.2.17.37.18h0Zm30.12,172s-.05.05-.07.07c.09.1.17.2.26.3.04-.04.08-.08.12-.12-.1-.09-.2-.17-.37-.18.02-.02.04-.04.06-.07-.08-.09-.17-.2-.25-.3-.04.04-.08.08-.12.12.1.08.21.17.37.18h0Zm-7.37,91.1c0-.11,0-.21-.02-.32-.24.05-.48.09-.72.14,0,.08.02.16.03.24.23-.02.47-.04.66-.38.02.02.05.05.07.07.1-.09.2-.17.3-.26-.04-.04-.08-.08-.12-.12-.08.11-.16.21-.2.63h0Zm43.37-61.7l-.07.07c.09.1.17.2.26.3l.12-.12c-.1-.09-.2-.17-1.22-.64.25.28.32.42.38.41.18-.02.34-.1.51-.16-.23-.06-.45-.12.02.14Zm-2.17-162.58c-.29.27-.43.34-.42.39.02.18.1.34.16.52.06-.22.13-.44-.13.03-.02-.02-.05-.05-.07-.07-.1.09-.2.17-.3.26.04.04.08.08.12.12.08-.11.16-.21.64-1.25h0Zm-34.96,81.69c0-.11,0-.22,0-.34-.36.05-.72.09-1.08.14,0,.08,0,.16.02.25.36-.02.71-.03,1.03-.38.02.02.05.05.07.07.1-.09.2-.17.3-.26-.04-.04-.08-.08-.12-.12-.08.11-.17.21-.21.64h0Zm3.85-76.92c.06.07.12.13.18.2.22-.02.43-.03.73-.05-.02-.26-.03-.46-.05-.7-.34.22-.6.39-1.11,1.65.29-.27.43-.34.42-.39-.02-.18-.1-.34-.16-.52-.06.21-.12.43,0-.19h0Zm78.47,56.01l-.07.07c.09.1.17.2.26.3l.12-.12c-.1-.09-.2-.17-.39-.26q-.42-.34-1.03,0c.4,0,.74,0,1.11.01h0ZM60.84,4.3c.06.07.12.13.18.2.22-.02.43-.03.73-.05-.02-.26-.03-.46-.05-.7-.34.22-.6.39-.64.78l-.07-.07c-.1.09-.2.17-.3.26l.12.12c.08-.13.17-.23.03-.54h0Zm19.6,249.32q-.42-.34-1.03,0c.41,0,.75,0,1.15.09q.42.34,1.03,0c-.42,0-.76,0-1.15-.09Zm-8.01-105.8c-.07-.06-.13-.12-.2-.18-.17.26-.34.52-.56.86.25.02.44.03.7.05.02-.29.04-.51.09-.79q.34-.42,0-1.03c0,.41,0,.75-.03,1.09h0Zm16.1,112.51q-.34.42,0,1.03c0-.41,0-.75.01-1.12l.07.07c.1-.09.2-.17.3-.26l-.12-.12c-.08.11-.17.21-.26.4Zm43.73-90.79l.07-.07c-.09-.1-.17-.2-.26-.3l-.12.12c.1.09.2.17.39.26q.42.34,1.03,0c-.4-.01-.74-.01-1.11-.01h0ZM9.78,48.77c.06.07.12.13.18.2.22-.02.43-.03.73-.05-.02-.26-.03-.46-.05-.7-.34.22-.6.39-.64.78l-.07-.07c-.1.09-.2.17-.3.26l.12.12c.08-.13.17-.23.03-.54h0Zm94.93,28.15s.05-.05.07-.07c-.09-.1-.17-.2-.26-.3-.04.04-.08.08-.12.12.1.09.2.17.42.08.12.55.28,1.04,1.13.73-.45-.3-.78-.52-1.24-.56h0ZM135.27,3.71s-.05.05-.07.07c.09.1.17.2.26.3.04-.04.08-.08.12-.12-.1-.09-.2-.17-.15-.26-.49-.26-.85-.45-1.32-.69.04.33.06.49.09.69.36,0,.7,0,1.07,0h0Zm-33.51,125.54c-.26.49-.45.85-.69,1.32.33-.04.49-.06.69-.09,0-.37,0-.71.09-1.1q.34-.42,0-1.03c0,.41,0,.75-.09.9ZM23.87,249.57q-.42-.34-1.03,0c.42,0,.75,0,1.08.03.02.24.04.46.06.76.27-.03.47-.05.69-.08-.02-.24-.03-.4-.05-.63-.26-.01-.48-.03-.75-.08h0Zm105.13-78.59c-.02-.24-.04-.46-.06-.76-.27.03-.47.05-.69.08.02.24.03.4.05.63.24.02.46.04.65-.15.03.41.05.63.07.86h1.39c-.65-.39-1-.6-1.41-.66h0Zm10.91-113.53c.4.59.96.22,1.41.28.01,0,.05-.15.09-.28-.49,0-.95,0-1.38.15-.03-.42-.05-.63-.07-.86h-1.39c.66.38,1.01.59,1.34.71h0Zm-34.83,188.77c-.72.09-1.09.14-1.58.2.16.32.25.49.4.8.35-.3.6-.51.8-.95l.07.07c.1-.09.2-.17.3-.26l-.12-.12c-.08.12-.16.22.13.26Zm-33.07-96.16l.07-.07c-.09-.1-.17-.2-.26-.3-.04.04-.08.08-.12.12.1.09.2.17.61.22-.34.61-.34,1.21,0,1.81,0-.62,0-1.22-.3-1.78h0Zm1.18-5.26c.44-.73.45-.99,0-2.15,0,.81,0,1.51-.47,3.11.28-.25.42-.32.41-.38-.02-.18-.1-.34-.16-.52-.06.24-.12.46.22-.06ZM14.05,35.33c.16-.45,1.23,0,1.01-1.01h-1.01c0,.35,0,.69-.03,1.02-.24.02-.46.04-.76.06.03.27.05.47.08.69.24-.02.4-.03.62-.05.02-.25.04-.47.09-.71Zm108.94,113.09c.42.79.86,1.09,1.66.66-.57-.23-1.04-.41-1.59-.47v-1.09h-1.04c-.04.73.34.96.97.9Zm-23.76,99.36q.54.44,1.1-.19c-.5-.07-.09-1.21-1.1-.79v.62c-.24,0-.49,0-2.66,1.56.14-1.54,1.76-1.19,2.3-2.17-.27-.19-.55-.39-1.06-.75.18,1.55-1.59,1.25-1.81,2.34.18.18.31.31,2.5-.99.03.55.45.32.73.37h0ZM1.8,181.25c-.11.01-.21.01-.32.02.05.24.09.48.14.72l.24-.03c-.02-.23-.04-.47-.63-.4.29-.6.44-.92.61-1.26-.74-.48,0-1.38-.6-2.11-.15,1.12-.12,2.09.56,3.06h0Zm98.89,65.05c.02.24.04.46.06.76.27-.03.47-.05.69-.08-.02-.24-.03-.4-.05-.63-.24-.02-.46-.04-1.98-.15,1.18.26,1.8-.23,2.4-.81l-.5-.5c-.57.39-1.12.77-.62,1.41h0ZM62.34,117.25c.25.28.32.42.38.41.18-.02.34-.1.51-.16-.22-.06-.44-.13.06-.25v2.28c.4-.04.73-.07,1.2-.12-.38-.69-.69-1.23-2.15-2.16Zm110.36,99.61h1.39v-1.09c-.52.04-.96.08-1.39.12,0,.42,0,.72-.42,1.91.28-.25.42-.32.41-.38-.02-.18-.1-.34-.16-.52-.06.23-.12.45.17-.04ZM104.71,1.58s.05-.05.07-.07c-.09-.1-.17-.2-.26-.3-.04.04-.08.08-.12.12.1.09.2.17.25.3.16.32.34.67.51,1.02.58,0,1.06,0,1.54,0,.08,0,.16-.15.24-.23-.01-.12-.02-.23-.04-.37-.71-.13-1.44-.27-2.19-.46Zm-30.37,49.2c-.17.22-.31.4-.44.57l.58.58c.2-.33.38-.64.64-1.08-.42-.04-.64-.06-.87-.06.12-1.12-.83-1.05-1.34-1.18-.14-.32-.21-.47-.33-.75-.48,1.2.43,1.45.77,1.93.42,0,.66,0,.99,0h0Zm-66.89-.66h-2.03c.28.45.47.77.64,1.03.79.07,1.26-.16,1.35-1.12.47-.16.95-.32,1.43-.49-.36-.56-.79-.85-1.43-.42-.02.32-.02.63.04,1Zm84.01,9.16c.66.68,1.09.3,1.5-.25-.57-.44-.99.02-1.45.21v-.66c-.87.13-1.61-.94-2.58-.24.02.14.03.26.04.38.86.18,1.7.35,2.49.56ZM118.07,3c-.06.12-.13.24-.19.35.23.27.46.53.73.85.24-.15.43-.27.64-.4.38.23.78.6,1.3.07-.76-.57-1.59-.82-2.48-.87h0Zm56.89,159.58h-1.21c.16.45.4.81.39,1.16-.01.41-.23.82-.39,1.29.31.02.48.03.65.04.19-.87.38-1.71.92-3.45-.28.25-.42.32-.41.38.02.18.1.34.16.52.07-.23.13-.45-.11.06h0Zm-77.21,90.79c0,.1.01.2.01.29h1.02c.77-.44,1.34-.82,1.95-1.09.52-.23.45-.44.01-.87-.72.51-1.45,1.03-2.22,1.57-.22.02-.49.06-.72.41l-.07-.07c-.1.09-.2.17-.3.26l.12.12c.08-.1.16-.2.2-.62h0Zm7.36-8.53v.66c.16.01.24.02.24.01.18-.64,1.13.1,1.23-.67h.6c.51-1.26,1.11-2.5,2.23-3.41.11-.09.06-.39.1-.79-1.36.65-2,1.79-2.93,2.53v1.67h-1.48c.15-.3.29-.6.43-.88-.67-.58-1.13.11-1.63-.02-.42-.08-.84-.16-1.4-.27.06.39.1.59.13.76.89.14,1.76-.2,2.48.41h0Zm-63.76,23.84h2.79c-.02-.39-.05-.72-.06-.94-.32-.12-.49-.18-.6-.22.13-.35.23-.59.36-.94h-1.13c-.02.23-.04.51-.06.79.09.09.18.17.27.26-.49.33-.99.66-1.35,1.39,0-.11,0-.21-.02-.32-.24.05-.48.09-.72.14,0,.08.02.16.03.24.24-.03.47-.05.49-.4h0ZM147.72,18.45c-.07-.62-.55-.27-.84-.37-.09-.03-.16-.13-.23-.19.11-.13.21-.25.26-.31-.56-.29-1.12-.57-2.04-1.04h-1.39c-.21-.33-.35-.53-.56-.86-.43.47-.74.82-1.11,1.22.4.06.74.11,1.04.15.12.28.22.5.35.81.33-.23.51-.35.69-.48.12.24.24.49.44.9.3-.39.51-.67.72-.94.12.03.24.05.48.11v1.31c.84.13,1.29.55,1.66,1.15.13.21.52.25.94.44-.18-.67-.3-1.1-.42-1.54.36-.04.71-.07,1.07-.11-.01-.09-.02-.17-.03-.26-.34,0-.68,0-1.03,0h0Zm-11.8,247.86c-1.03-.21-1.6-.32-2.35-.47-.16.14-.47.41-.8.69h-1.11c-.18.27-.37.55-.61.92.9.2,1.67.37,2.45.54.75-1.01,1.61.41,2.34-.08.15-.65.28-1.26.44-1.93-.14-.26-.34-.59-.54-.96-.16.05-.32.09-.5.14.16.27.3.5-1.12.66.26-.05.5-.1.53-.1-.08-.22-.18-.47-.28-.73-.07.05-.14.09-.2.14-.02.22-.04.44,1.75,1.18h0ZM2.61,68.08c.24-.02.47-.04.67-.06.03-.2.05-.31.07-.46-.49-.21-1-.43-1.56-.67.21-.23.33-.36.44-.5-.84-.73-.15-1.49.02-2.15-.16-.21-.26-.33-.35-.44l.72-.72c-.18-.15-.37-.3-.56-.46-.28.16-.61.34-1.03.57.16.38.31.74.47,1.1.15.33-.7.64-.02.99,0,1.1.27,2.28-.07,3.26-.25.73-.44,1.51-.22,2.05.46,1.13.21,2.24.3,3.36.04.47,0,.94,0,1.59.38-.17.6-.23.76-.36.17-.14.28-.35.51-.63-.37-.24-.68-.44-.86-.56-.09-3.97-.05-4.3.7-5.91h0Zm170.06-13.58s.05-.05.07-.07c-.09-.1-.17-.2-.26-.3-.04.04-.08.08-.12.12.1.09.2.17-.39-1.79,1.08.65,1.23,1.13.67,2.51.61.37.48,1.44,1.45,1.57.47-.83-.47-1.11-.73-1.72.15-.37.29-.73.39-.97-.11-.55-.41-1.09-.24-1.4.24-.46.48-.8.15-1.25-.2-.04-.36-.07-.55-.11.99-1.4-.61-1.89-.81-2.73-.63.12-1.18.23-1.8.35,0,.34-.11.75.03,1.04.16.35.2.62.04.98.48.32.96.64,1.41.94,0,.31,0,.55.69,2.83h0Zm-70.5,172.69c-.27-.52-.44-.81-.58-1.12-1.4-3.03-1.61-3.25-3.62-5.07-.34-.31-.81-.48-1.13-.79-1.49-1.46-3.45-1.78-5.34-2.15-1.06-.21-2.2-.08-3.29-.02-.57.03-1.16.14-1.68.37-1.09.48-2.25.64-3.3,1.38-1.56,1.1-2.69,2.59-4.08,3.83-.27.24-.48.71-.47,1.07.03,1.08-.71,1.8-1.1,2.92-.03.3.03.86-.14,1.35-.3.87-.39,1.63.08,2.51.31.58.39,1.35.38,2.03-.02.91.31,1.7.57,2.53.09.27.16.55.23.79.4.59.76,1.2,1.2,1.73.51.6,1.09,1.16,1.68,1.69,1.87,1.67,4.04,2.64,6.55,2.77,1.22.06,2.45.03,3.67,0,.46-.01.99.2,1.33-.33,1.65-.07,2.88-1.08,4.14-1.96.92-.64,1.93-1.32,2.54-2.22,1.4-2.05,2.51-4.28,2.36-6.91-.02-.39-.02-.77.22-1.2.23-.41.29-1.19.05-1.54-.4-.6-.17-1.17-.27-1.66h0Zm-1.83-184.17c.39-.79.79-1.41.74-2.24-.07-1.22-.01-2.45-.02-3.67,0-.4-.16-.79-.26-1.17-.43-1.72-1.5-3.06-2.37-4.54-1.03-1.76-2.61-2.78-4.37-3.58-1.09-.49-2.31-.62-3.45-.97-.82-.25-1.72-.57-2.4-.27-.95.42-1.88.17-2.77.39-.66.32-1.34.61-2.03.86-1.79.63-3.03,1.96-4.36,3.23-1.31,1.25-1.94,2.83-2.6,4.44-.3.73-.38,1.46-.36,2.24.03,1.04,0,2.08,0,3.12,0,.35.03.71.13,1.04.71,2.36,1.76,4.49,3.6,6.23,1.3,1.22,2.77,2.09,4.35,2.82,1.39.64,2.91.68,4.39.9,1.17.17,2.24-.5,3.37-.67,1.74-.26,3.13-1.08,4.45-2.14.31-.25.87-.37.96-.67.14-.45.34-.73.73-.91.69-.31,1.09-.73,1.2-1.58.07-.57.64-1.07,1.06-1.72v-1.14h0Zm53.12-19.26c-.41-.32-.69-.53-1.04-.81v-.79c-.36-.04-.65-.07-.92-.1-.09-.25-.16-.46-.2-.57-.95-.14-1.81-.26-2.74-.4-.04.04-.16.19-.31.28-.14.08-.32.1-.54.16,1.06.63,2.78.08,2.66,1.93,2.57.98,3.49,3.38,4.99,5.27.25-.02.54-.05,1.03-.1-.34-.72-.46-1.46-.89-1.8-.67-.53-.21-1.27-.68-1.99-.68-.22-1.49-.49-2.26-.74.04-.03.11-.12.2-.16.16-.04.32-.07.7-.18h0ZM98.38,3.42c-1.44-.48-2.23-1.43-3.42-1.08-.16.45-.31.86-.44,1.28-.01.03.08.08.19.2.33-.1.7-.21,1.09-.32,1.02.71,2.41-.17,3.5.6.24.17.71.03,1.08.02.06,0,.12,0,.17-.03.05-.03.09-.08.15-.15-.02-.14-.04-.31-.07-.51-.87,0-1.71,0-2.25,0h0ZM3.38,217.35c-.19-.4-.36-.76-.53-1.14h-.98c.07.75.14,1.46.21,2.14.18.04.34.08.49.12.05.5.1.95.17,1.65.59-.5.98-.83,1.56-1.32-.42-.42-.78-.78-1.14-1.14.03-.05.13-.19.22-.31h0Zm-1.6-100c.21-.3.38-.47.47-.67.2-.5-.51-.96-.1-1.5,0-.01-.16-.16-.25-.25.24-.25.47-.51.7-.76-.19-.19-.36-.37-.53-.54-.18.18-.35.35-.55.55,0,1.92,0,3.88,0,5.83,0,.06.14.13.19.18.19-.17.37-.33.57-.52-.2-.73.3-1.57-.51-2.32h0Zm1.27-27.44c-.27-.56-.54-1.11-.78-1.61.13-.36.24-.68.35-1,.1-.28.19-.56.27-.81h-.9c-.12,1.04-.23,2.02-.36,3.16.24.39.66.74,1.42.26h0Zm170.37,125.46c.33.03.66.05.97.07.2-.44.41-.78.5-1.16.08-.35-.01-.73.03-1.09.04-.35.15-.7.26-1.19-.55.27-.98.48-1.48.72.18.52.32.94.46,1.35-.23.42-.46.81-.74,1.3ZM1.88,154.85c-.12,0-.24.01-.37.01,0,2.11,0,4.22,0,6.33,0,.06.14.12.2.16.19-.17.37-.33.6-.54-.14-.96-.35-1.93-.42-2.92-.08-1-.02-2.02-.02-3.04h0Zm96.04,96.66c.26-.36.54-.74.72-.98.46.08.84.15,1.18.22.17-.43.31-.75.44-1.07h-1.25c-.97.47-1.57.77-2.17,1.08-.06.03-.07.16-.1.23.37.15.72.31,1.18.52h0ZM174.22,61.74c.07,0,.13,0,.2.02.13-.91.27-1.82.4-2.74-.41-.16-.89-.35-1.37-.51-.08-.03-.21.07-.35.12v.77c.4.25.74.47,1.11.7.01.57.01,1.11.01,1.64ZM26.9,18.58c.22-.09.43-.18.75-.31-.1-.22-.2-.43-.44-.95-.57,1.35-1.85,1.26-2.65,2.15h2.25c.03-.32.06-.61.09-.89ZM101.76,2.68c-.2-.61-.34-1.04-.47-1.45h-.84c-.18.41-.34.78-.54,1.25.2.16.43.35.76.61.3-.12.67-.26,1.09-.41ZM1.39,100.26q1.35-.84.87-2.27c.24-.11.47-.23.78-.37-.35-.23-.64-.41-1.02-.66-.2,1.07-.38,2.01-.63,3.3h0Zm.52,1.65c-.75.75-.34,1.43.22,2.12.58-.77.64-1.56.09-2.27.18-.22.28-.34.46-.57-.4-.17-.73-.3-1.38-.57.27.59.39.83.61,1.29Zm172.57,38.77c-.62.31-1.01.5-1.58.79.36.24.65.43,1.05.69-.54.13-.88.2-1.22.28.26.24.5.2.72.25.23.05.44.19.63.27l.41-.41c-.01-.59-.01-1.12-.01-1.87Zm-.16,58.13c.66.54-.1,1.51.39,2.31.23-.26.44-.49.62-.69-.14-.92-.89-1.7-.15-2.46-.17-.32-.32-.61-.5-.95-.12.61-.23,1.16-.36,1.79h0Zm-106.79-26.32c-.29-.4-.73-.6-1.28-.31v2.07c.19.01.31.02.42.03.28-.58.56-1.16.86-1.79Zm58.16,94.83c.85-.64,1.66-.55,2.51-.09.17-.31.32-.59.55-1.01-1.46.59-2.83.13-4.25.4.43.25.76.44,1.19.7Zm-55.18-107.71c.48,1.12-.68,2.1,0,3.59.17-1.46,1.08-2.37.71-3.59h-.71Zm83.26,87.66c-.43.32-.79.59-1.29.96h-1.11c.04.26.07.42.1.62h1.12c.54-.38.96-.67,1.4-.98-.05-.15-.11-.31-.22-.6h0Zm-114.79,19.79c.11.12.22.23.33.35.51-.6.88-1.33,1.47-1.76-.2-.25-.35-.43-.45-.56-.36.18-.66.34-.86.44-.18.57-.33,1.05-.49,1.53ZM18.04,29.15c.36-.74.52-1.07.69-1.4-.24-.08-.45-.16-.62-.22.12-.31.23-.59.37-.96-.54.54-.97.96-1.36,1.36.08.03.34.06.48.2.16.17.2.45.44,1.02Zm93.7,207.72c-.1.7-.01,1.17.94.93.2-.39,1-.55.83-1.43-.62.18-1.15.33-1.77.5Zm-23.17,13.18c.12-.17.34-.46.51-.78.11-.21.14-.47.29-1.03-.88.58-1.75.57-1.98,1.63.34.06.62.1,1.18.18h0ZM1.85,80.24c.17-.35.31-.65.52-1.06-.33-.04-.54-.06-.72-.08-.16.75-.3,1.41-.43,2,.17.21.32.4.25.31.32-.11.63-.21.85-.28-.1-.28-.12-.4-.18-.49-.09-.15-.2-.28-.29-.4h0Zm.71,13.88c.26-1.04-.38-1.9-.62-2.84v2.84h.62Zm-.54,121.68c.33-.49.64-.95,1.06-1.56-.17-.29-.38-.65-.59-1.01-.04.92-1.02,1.64-.47,2.57ZM62.13,45.28c.49,1.01.65,2.07,2.01,2.81-.32-.5-.48-.66-.53-.85-.06-.27-.04-.57-.05-.8-.29-.06-.46-.09-.61-.13-.07-.38-.13-.71-.19-1.04-.2,0-.32,0-.63,0h0Zm47.26,192.11c.25.61.45,1.08.7,1.7.21-.79.39-1.37.52-1.97.02-.11-.13-.27-.26-.52-.33.28-.59.49-.96.79h0ZM1.71,192.19c.43-1.48-.22-2.46-.45-3.52-.12.48-.18.95-.1,1.41.1.6.31,1.19.55,2.11Zm113.25,75.03v-.61h-2.59c.1.3.17.49.24.69q1.07-.44,2.35-.08h0Zm44.25-229.6c-.06.08-.12.15-.19.23.45.64.9,1.28,1.36,1.95.53-.77-.17-1.24-.29-1.8-.3-.13-.59-.25-.88-.38h0ZM27.31,113.67c-.52.52-.96.96-1.42,1.42.23,0,.64.12.78-.02.36-.36.95-.59.94-1.28-.16-.06-.31-.13-.3-.12h0Zm38.4,64.73c-.15-.9,1.37-1.18.66-2.25-.47.65-.93,1.29-1.44,2,.3.09.46.15.78.25Zm-23.99-126.51c-.11.24-.22.49-.35.79h-.93c.05.28.08.48.15.86.63-.4,1.16-.71,1.65-1.06.08-.06.03-.31.04-.44-.08-.07-.12-.14-.17-.15-.13,0-.25,0-.39,0h0Zm133.32,134.28c-1.15.89-.91,1.64-.75,2.41,1.04-.55.45-1.39.75-2.41Zm-1.47-94.53c-.07,1.17.21,1.54,1.21,1.66-.28-.55-.57-1.13-.86-1.71-.12.01-.24.03-.35.05Zm-80.13,165.12c-.4-.25-.68-.43-.99-.62-.16.34-.27.59-.35.78-.47.06-.88.11-1.67.21,1.29.38,2.09.19,3.01-.37ZM150.8,20.6q-.64-.97-1.55-.93c.16.34.32.67.45.93h1.1Zm-64.5,51.75c-.97-.18-1.99-.5-3,.55,1.15-.21,2.08-.38,3-.55ZM1.57,163.97v1.71c.43-.67,1.09-.82,1.04-1.65-.33-.02-.65-.03-1.04-.06ZM31.54,16.18c-.66.24-1.22.43-1.8.64.1.23.16.38.23.55.59-.21,1.15-.41,1.69-.6-.04-.19-.06-.3-.12-.59ZM5.9,220.74c-.89-.65-1.24-.71-1.51-.12.26.25.56.53.88.84.26-.3.41-.47.63-.72h0ZM1.57,76.55v1.77h.71c-.1-.49-.19-.93-.27-1.35.08-.12.14-.22.27-.41-.33,0-.49,0-.71,0Zm133.3,93.74c0-.39-.05-.68.01-.95.07-.28.25-.54.44-.91h-.82c0,.3.05.6-.01.87-.07.28-.25.54-.4.84.27.05.38.07.78.15h0Zm-70.08-50.71v1.78c.39-.23.71-.42,1.17-.69-.36-.34-.67-.62-1.17-1.09Zm-42.12-1.23h1.59c-.32-.5-.61-.95-.9-1.41-.19.4-.39.79-.69,1.41ZM84.28,4.04l.45.45c.27-.02.59-.05,1.2-.09-.45-.5-.73-.81-1.12-1.24-.23.37-.38.63-.53.88ZM14.83,33.54q.68-1.24.38-2.19c-.08.35-.1.71-.24,1-.17.34-.46.61-.75.98.31.11.46.16.61.21Zm19.72-19.31c-.05-.1-.09-.19-.14-.29-.57.19-1.13.39-1.6.55v1.12c.36-.36.59-.63.86-.85.27-.2.58-.35.88-.53ZM1.96,107.6c.26-.51.41-.81.5-.99-.12-.77-.23-1.46-.34-2.16-.05,0-.11.01-.16.01v3.14Zm-.98,89.15c.24.58.41,1.02.67,1.66.28-.68.46-1.12.68-1.66H.98h0Zm84.35,47.64c.68.17,1.36.33,2.21.54-.61-1.23-1.48-.67-2.21-.54ZM1.82,186.37v-1.74c-.29.56-1,.98-.54,1.74h.54Zm102.91,53.76h-1.1c.02.38.04.71.07,1.09.69-.12,1.08-.36,1.03-1.09Zm-22.49,6.36c-.41-.82-.76-1.08-1.79-1.45.19.96,1.07.95,1.79,1.45Zm20.41-199.44q.59-.58.5-1.7-.58.58-.5,1.7Zm-48.98,221.13q-1.16-.19-1.71.5c.67.13,1.29.14,1.71-.5Zm52.67-9.32c-.13.29-.28.65-.59,1.37.86-.58,1.37-.92,2.04-1.37h-1.45Zm62.08-211.07c-.19.33-.37.65-.68,1.19.71-.05,1.17-.08,1.75-.11-.42-.43-.71-.72-1.07-1.08ZM1.58,134.62v1.41h.61v-1.41h-.61Zm106.82,74.93c-.41-1.01-1.12-.67-1.81-.72.41,1.01,1.13.67,1.81.72Zm66.37-2.15c-.06.01-.12.02-.18.03v1.84c.21-.07.54-.17.72-.22-.23-.71-.38-1.18-.54-1.65Zm-82.94,41.15c.06.32.1.49.14.71.49-.02.94-.05,1.43-.07-.06-.29-.09-.46-.13-.65-.45.01-.85.01-1.44.01Zm81.88-102.17c.25.32.39.49.5.64-.18.37-.33.67-.52,1.06.32.05.52.08.79.12v-1.82h-.77Zm-68.92,95.12c.17.41.31.75.45,1.08.23-.12.46-.26.67-.37.23.17.39.28.64.46v-.64c-.58-.17-1.11-.33-1.76-.53h0Zm-30.84-105.11c.08-.02.16-.03.23-.05v-1.73c-.38.2-.7.37-1.08.57.26.09.47.16.71.24.05.31.1.64.14.97ZM2.36,127.89c-.27-.26-.48-.46-.76-.73v2.3c.2-.59.24-.8.34-.99s.26-.35.42-.58Zm123.32,43.63q.9.89,1.41.42c-.31-.3-.62-.61-.93-.91-.11.12-.24.25-.48.49Zm-57.11,2.4c.11-.62.9-1.09.36-1.87-.15.29-.28.54-.41.8-.11.23-.53.27-.43.59l.48.48Zm-19.62,94.21c.62.16,1.24.38,1.86.04-.11-.25-.17-.4-.24-.55-.56.17-1.09.34-1.62.51h0Zm69.72-1.95c-.6-.07-1.11-.09-1.4.66h1.4v-.66Zm-6.47-152.56c.36-.46.69-.85.98-1.28.07-.11-.03-.33-.07-.59-.4.39-.73.7-1.02.97v.64s.04.1.11.26h0Zm-30.56-55.76q-.47-1.26-1.52-.92c.47.29.89.55,1.52.92Zm26.62,179.72h-1.78c.12.3.19.49.29.73.49-.24.89-.43,1.49-.73ZM15.79,30.39c.1.09.21.18.31.27.28-.21.56-.41.82-.61-.22-.25-.37-.42-.59-.66-.2.37-.37.69-.54,1h0Zm119.85,25.74c-.28-.2-.52-.44-.8-.54-.19-.07-.44.07-.73.12.45.56.87.78,1.53.42Zm-4.76.51c-.06-.32-.09-.49-.14-.72-.37.03-.7.06-1.06.08.06.28.09.45.12.63.33,0,.61,0,1.08,0h0Zm-86.72,1.44h1.04v-.61h-1.04v.61Zm130.81-8.58c-.17-.55-.36-.99-1.23-.88.18.23.34.37.43.54s.12.37.19.61c.27-.12.41-.18.61-.27h0Zm-81.15,199.05c.15.28.27.52.5.93.25-.57.4-.89.71-1.6-.71.39-1.03.57-1.21.67ZM50.12,34.32c-.36-.51-.54-1.01-1.17-.7.2.37.38.71.6,1.12.23-.17.36-.26.57-.42h0Zm37.77,213.59c.49.09,1.01.44,1.48,0-.09-.22-.16-.37-.25-.58-.43.21-.83.4-1.23.58h0ZM123.14,34.92h1.04v-.61h-1.04v.61Zm-15.32,43.83c.09.89.61,1.08,1.63.99-.72-.44-1.18-.71-1.63-.99ZM10.73,48.13c.44-.76,1.2-.91.98-1.92-.41.61-1.06.82-.98,1.92Zm98.11,197.41c-.06-.32-.09-.49-.14-.72-.37.03-.7.06-1.06.08.05.28.09.45.12.63.33.01.61.01,1.08.01h0Zm-68.69-93.65v1.04h.61v-1.04h-.61Zm39.59,94c.08-.75-.34-.96-.97-1.11-.05.25-.09.45-.12.64.39.17.72.31,1.09.47h0ZM2.37,151.38c-.28-.58-.48-.97-.77-1.56v1.71c.27-.05.43-.08.77-.15ZM158.09,37.17q1.04-.22,1.62-1.08c-.75-.05-.89.62-1.62,1.08Zm-144.24-.35c-.51.37-.79.78-.43,1.48.51-.38.79-.78.43-1.48Zm52.22,203.55h.74v-1.73c-.32.75-.5,1.18-.74,1.73ZM88.34,3.29h1.47c-.37-.31-.62-.52-.94-.8-.22.33-.38.58-.53.8ZM10.81,39.92c.4-.29.71-.48.97-.73.07-.07-.03-.31-.06-.49-.38.19-.71.36-1.05.54.04.15.07.31.14.68h0Zm93.91,198.17c.04.66.07,1.11.12,1.88.33-.75.51-1.15.71-1.59-.23-.08-.39-.13-.83-.29Zm69.37-34.15c.2.27.4.55.85,1.16-.06-.86-.09-1.31-.13-1.89-.3.32-.47.48-.72.73ZM2.15,143.77v-1.15c-.26.05-.43.09-.64.13,0,.28-.02.51,0,.74,0,.1.12.19.18.28h.45Zm18.92,1.84c-.18-.74-.39-1.16-1.08-1.09.39.87.43.91,1.08,1.09Zm-19.46.2v1.36c.3-.12.49-.19.82-.32-.3-.37-.5-.63-.82-1.04h0Zm1.33,55.76c-.63-.05-.96-.08-1.28-.11.08.1.16.21.25.31-.26.07-.53.15-.79.22.07.09.14.17.21.26.42-.18.86-.37,1.61-.68h0Zm66.5-53.82h1.32c-.47-.35-.75-.55-1.15-.85-.07.37-.11.57-.17.85h0Zm-25.07-.48c-.4.29-.68.5-1.16.85h1.32c-.06-.28-.1-.48-.16-.85ZM2.42,200.24c-.29-.4-.5-.69-.85-1.16v1.32c.28-.05.49-.09.85-.16Zm169.64,13.99v1.35c.32-.39.52-.65.82-1.02-.33-.13-.52-.21-.82-.33h0Zm-69.71-81.72c-.36-.07-.57-.11-.85-.16v1.32c.35-.48.55-.76.85-1.16Zm-30.12,106.53q.13-.94-.67-1.55c.26.61.45,1.04.67,1.55Zm33.05-90.27c-.29-.39-.5-.67-.84-1.13v1.32c.28-.07.49-.11.84-.19Zm-2.65,92.29v1.35c.32-.39.52-.65.82-1.02-.33-.13-.52-.21-.82-.33h0ZM1.96,109.82c.27-.56.43-.89.55-1.14-.16-.21-.3-.39-.55-.74v1.88Zm172.04,44c.29.4.5.69.85,1.16v-1.32c-.28.06-.49.1-.85.16Zm-77.12,91.95c-.39.29-.67.5-1.13.85h1.32c-.07-.29-.11-.49-.19-.85Zm44.1-153.42c.15.37.23.56.31.76q.45-.27.81-.76h-1.12Zm-4.91-87.04h-1.35c.39.32.65.52,1.02.82.13-.33.21-.52.33-.82h0Zm-14.62-2.02c-.13.02-.26.04-.39.05-.06.22-.11.45-.2.79.5-.03.82-.05,1.07-.07-.18-.28-.33-.52-.48-.77h0ZM32.81,160.37c.57.26,1.15.42,1.71,0h-1.71Zm36.84-112.95h1.32c-.05-.28-.08-.48-.15-.85-.41.3-.69.5-1.17.85h0Zm104.72,35.03h-1.32c.05.28.08.48.15.85.4-.29.68-.49,1.17-.85Zm-73.38,114.18c-.57-.26-1.15-.42-1.71,0h1.71Zm-81.31-17.46c.24-.59.42-1.03.67-1.66-.84.42-.98.87-.67,1.66Zm90.17-14.92c-.09.07-.18.15-.27.22.16.33.32.66.49,1.01.17-.03.33-.06.59-.11-.31-.43-.56-.77-.81-1.12h0Zm64.05-89.37v1.36c.3-.12.49-.19.82-.32-.3-.37-.5-.63-.82-1.04Zm-36.38,175.54c-.02.09-.05.17-.07.26.32.15.64.29,1.06.49v-.75h-.99ZM53.58,59.92c-.74-.32-1.14-.5-1.55-.67-.02,0-.08.08-.15.15v.52h1.7Zm120.29,105.35v1.32c.28-.06.48-.1.85-.17-.3-.4-.51-.68-.85-1.15Zm-127.73,31.66c-.29-.4-.5-.69-.85-1.16v1.32c.28-.05.48-.09.85-.16Zm-19.84,54.75c-.29-.39-.5-.67-.84-1.13v1.32c.28-.07.48-.11.84-.19ZM50.97,59.42c.07-.36.11-.57.16-.85h-1.32c.48.35.76.55,1.16.85Zm-24.31,111.49h1.32c-.04-.26-.07-.47-.13-.84-.41.28-.7.49-1.19.84Zm89.35,88.6c-.49-.38-.75-.59-1.17-.92-.09.41-.14.64-.2.92h1.37Zm9-68.14v1.32c.28-.06.48-.1.85-.17-.3-.4-.5-.68-.85-1.15ZM21.3,54.47c.19.3.35.46.4.65.07.26.06.55.08.83.07,0,.14,0,.21,0v-1.47h-.69Zm71.62-1.9c-.58-.26-1.16-.43-2.14,0h2.14Zm40.93,139.54c-.3-.62-.46-.95-.61-1.26-.24.21-.41.36-.66.57.37.2.68.38,1.27.69ZM35.27,13.64c.74.1,1.01-.26,1.13-.8.02-.07-.11-.18-.04-.07-.3.24-.64.52-1.09.87h0Zm103.86-2.44c-.36-.73-.57-1.14-.83-1.66-.26.75-.16,1.22.83,1.66Zm-3.8-4.15v.78c.26-.05.43-.09.67-.14-.05-.26-.1-.46-.13-.64h-.54Zm-18.09,134.18c-.03.82.27.83.76.54-.04-.19-.07-.35-.1-.54h-.66Zm-63.13,126.83c0,.11,0,.21.02.32.45-.03.89-.06,1.34-.09,0-.08,0-.15-.02-.23h-1.34ZM37.18,11.88c.32-.06.48-.09.73-.14-.05-.25-.09-.46-.13-.69-.25.05-.41.08-.6.11v.72Zm8.45,256.53c.32-.06.48-.09.73-.14-.05-.25-.09-.46-.13-.69-.25.05-.41.08-.6.11v.72ZM98.4,52.96v-1.11c-.26.05-.43.09-.78.16.25.3.42.5.78.95Zm43.01-37.51c-.66-.3-.99-.45-1.37-.62v.62h1.37Zm-56.44,239.37c0,.11,0,.21,0,.32l1.35-.09c0-.08,0-.15,0-.23h-1.35Zm-54.53.68v-.78c-.27.05-.43.09-.67.14.05.26.1.46.13.64h.54Zm113.57-1.35c.07.1.14.19.2.29.19-.07.39-.13.56-.23.15-.09.25-.25.38-.37-.07-.08-.13-.15-.2-.23-.31.17-.62.35-.94.54Zm-61.31-5.67c.03-.82-.27-.83-.76-.54.04.19.07.35.1.54h.66Zm-2.11-.87c.2-.09.45-.21.63-.3-.24-.3-.38-.48-.63-.79v1.09Zm-60.43-1.76h1.05c-.11-.2-.24-.44-.37-.68-.26.26-.43.42-.68.68h0ZM71.04,18.85v1.11c.26-.05.43-.09.78-.16-.25-.3-.42-.51-.78-.95Zm6.15,224.55c-.03.82.27.83.76.54-.04-.19-.07-.35-.1-.54h-.66,0Zm20.48-.03v-.78c-.27.05-.43.09-.67.14.05.26.1.46.13.64h.54Zm59.24-.52c.64.39.79-.15,1.1-.43-.65-.39-.79.15-1.1.43Zm-138.4-2.02v1.11c.27-.05.43-.09.78-.16-.25-.3-.42-.5-.78-.95h0ZM84.8,2.84q-.31-.78-1.11-.81c.4.29.68.5,1.11.81ZM16.94,239.6h.78c-.05-.26-.09-.43-.14-.67-.26.05-.46.1-.64.13v.54Zm86.24-.27v-1.38c-.27.63-.43.98-.6,1.38h.6Zm.83-4.88h.78c-.05-.26-.09-.43-.14-.67-.26.05-.46.1-.64.13v.54Zm-92.85-5.78v.78c.27-.05.43-.09.67-.14-.05-.26-.1-.46-.13-.64h-.54Zm-2.73-15.87c0-.11,0-.21,0-.32-.45.03-.9.06-1.35.09,0,.08,0,.15,0,.23h1.35ZM86.28,3.38v-.78c-.26.05-.43.09-.67.14.05.26.1.46.13.64h.54Zm29.75,208.72v-1.11c-.27.05-.43.09-.78.16.25.3.42.5.78.95h0Zm-23.72-15.19l-.24-.24c-.16.03-.33.06-.57.11.05.25.09.46.17.92.31-.38.47-.58.64-.79h0Zm-9.34.15v-.78c-.27.05-.43.09-.67.14.05.26.1.46.13.64h.54Zm-81.36-3.15v1.35c.25-.04.42-.07.6-.1-.18-.38-.34-.71-.6-1.25Zm6.85-2.72c-.82-.03-.83.27-.54.76.19-.04.35-.07.54-.1v-.66Zm142.57-3.59h-.78c.05.26.09.43.14.67.26-.05.46-.1.64-.13v-.54h0Zm-85.87-7.81v.78c.26-.05.43-.09.67-.14-.05-.26-.1-.46-.13-.64h-.54ZM97.39,49.59h.78c-.05-.26-.09-.43-.14-.67-.26.05-.46.1-.64.13v.54ZM1.82,174.7c-.1.01-.21.02-.31.03.03.44.06.89.09,1.33.08,0,.15-.01.23-.01,0-.46,0-.9,0-1.35h0Zm25.35-2.85l.24.24c.16-.03.33-.06.57-.11-.05-.25-.09-.46-.17-.92-.31.39-.47.59-.64.79h0Zm147.37-.55c.03-.82-.27-.83-.76-.54.04.19.07.35.1.54h.66Zm-106.94-.6h-1.11c.05.26.09.43.16.78.31-.25.51-.42.95-.78Zm-65.75-.09c-.82-.03-.83.27-.54.76.19-.04.35-.07.54-.1v-.66ZM40.67,57.72l-.24.24c.03.16.06.33.11.57.25-.05.46-.09.92-.17-.38-.31-.59-.48-.79-.64h0Zm26.66,109.96c.3-.57.43-.81.47-.88-.07-.15-.18-.41-.29-.66-.06.04-.12.09-.18.13v1.41Zm-29.87-9.79c.08.08.16.16.24.24.16-.03.33-.06.57-.11-.05-.25-.09-.46-.17-.92-.31.38-.48.58-.64.79h0ZM120.85,58.69c.46-.14,1.13-.33.55-.99-.19.35-.37.67-.55.99Zm53.38,98.98c.11,0,.21,0,.32-.01-.03-.45-.06-.9-.09-1.35-.08,0-.15.01-.23.01v1.35Zm.09-4.67c.08-.04.16-.08.24-.12-.04-.33-.08-.66-.14-1.09l-.46.46.36.75h0ZM62.83,37.56c-.82-.03-.83.27-.54.76.19-.04.35-.07.54-.1v-.66h0ZM1.46,149.07l.24.24c.16-.03.33-.06.57-.11-.05-.25-.09-.46-.17-.92-.31.38-.48.58-.64.79h0Zm18.81-1.46c-.68-.4-.79.17-1.13.41.67.4.78-.17,1.13-.41Zm51.68-88v-.78c-.26.05-.43.09-.67.14.05.26.1.46.13.64h.54Zm-53.61-17.53c-.24.13-.48.26-.72.38.05.09.09.17.14.26.33-.04.66-.09,1.08-.14l-.5-.5Zm55.45,99.12v-.78c-.26.05-.43.09-.67.14.05.26.1.46.13.64h.54Zm71.73-21.96v.18h1.47v-.18h-1.47Zm-136.39-7.07v-.78c-.26.05-.43.09-.67.14.05.26.1.46.13.64h.54Zm130.51-5.92c.4-.18.75-.34,1.34-.6h-1.34v.6Zm33.82-1.59c.2.2.37.36.74.73-.05-.67-.07-.99-.1-1.46-.27.31-.42.49-.64.73h0Zm.44-5.69v1.11c.26-.05.43-.09.78-.16-.25-.3-.42-.51-.78-.95h0Zm-129.47-2.53c-.3.64-.46.97-.64,1.36h.64v-1.36Zm22.11-50.76c-.03.82.27.83.76.54-.04-.19-.07-.35-.1-.54h-.66,0Zm106.53,44.03c.4-.18.75-.34,1.34-.6h-1.34v.6Zm-.55-5.9c.14.47.33,1.13.99.55-.35-.19-.67-.37-.99-.55Zm-27.64-2.15v.78c.26-.05.43-.09.67-.14-.05-.26-.1-.46-.13-.64h-.54Zm-66.64-7.41c0-.1-.02-.21-.03-.31-.44.03-.89.06-1.33.09,0,.08,0,.15,0,.23.45,0,.9,0,1.35,0Zm12.39-2.57c-.08.08-.16.16-.24.24.03.16.06.33.11.57.25-.05.46-.09.92-.17-.38-.31-.58-.47-.79-.64h0Zm-43.42,96.01c.12.26.24.51.35.76.06-.04.12-.09.18-.13v-.63h-.53ZM13.79,31.05q-.12.55.77.48c-.37-.23-.59-.37-.77-.48Zm104.21-.93c.28-.15.52-.28,1.08-.58h-1.08v.58ZM26.27,174.03q-.11.53.4.49c-.1-.13-.27-.33-.4-.49ZM118.11,29.14c.21-.64.14-.96-.35-.72.11.23.23.48.35.72Zm-26.23,27.8v-.18h-1.1v.18h1.1Zm-48.18-24.22c0-.11,0-.22-.02-.33-.32.05-.65.09-.97.14,0,.06,0,.13.02.19h.97Zm101.51,158.76h.33c-.04-.33-.09-.66-.13-.99-.06.01-.13.01-.19.02-.01.32-.01.64-.01.97h0Zm-56.69-119.07c-.01-.11-.02-.22-.03-.33-.32.05-.64.09-.96.14,0,.06,0,.12.02.19h.97Zm38.9,98.1c-.28.29-.46.47-.91.93.62-.13.82-.17,1.04-.22-.04-.24-.07-.4-.13-.71Zm3.09,21.1c.01.11.02.22.03.33.32-.05.64-.09.96-.14-.01-.06-.01-.12-.02-.19h-.97Zm-.51-21.21v-.57c-.25.04-.42.07-.49.08.17.17.35.36.49.49h0Zm-37.19,25.45c-.42.98.02.86.49.78-.17-.27-.31-.49-.49-.78Zm6.76,70.99c-.32.06-.48.09-.71.13.29.19.52.34.71.47v-.6Zm23.85-.01c-.01-.11-.02-.22-.03-.33-.32.05-.64.09-.96.14.01.06.01.12.02.19h.97Zm-41.93-70.35q-.55-.12-.48.78c.23-.37.37-.6.48-.78ZM62.56,1.23c0,.11,0,.22.02.33.32-.05.65-.09.97-.14,0-.06,0-.13-.02-.19h-.97Zm75.5,168.07c.98.42.86-.02.78-.49-.27.17-.49.31-.78.49Zm-29.96-.57c-.06-.32-.09-.48-.13-.71-.19.29-.34.52-.47.71h.6ZM47.37,58.08c0-.11,0-.22-.02-.33-.32.05-.65.09-.97.14,0,.06,0,.13.02.19h.97ZM82.79,1.34v.6c.25-.04.42-.07.94-.16-.49-.23-.74-.34-.94-.44ZM1.93,166.9c-.06-.32-.09-.48-.13-.71-.19.29-.34.52-.47.71h.6Zm168.97,32.96c.26-.12.51-.24.76-.35-.04-.06-.09-.12-.13-.18h-.63v.53Zm-137.49-36.3c0-.11,0-.22-.02-.33-.32.05-.65.09-.97.14,0,.06,0,.13.02.19h.97Zm13.19-7.02c-.28.29-.46.47-.91.93.62-.13.82-.17,1.04-.22-.04-.23-.07-.4-.13-.71h0Zm58.05,103.34c-.15-.28-.28-.52-.58-1.08v1.08h.58Zm43.1-43.92c.22-.09.48-.19.74-.3-.04-.05-.07-.11-.11-.16h-.64c.01.22.01.38.01.46ZM79.85,3.04c.15.28.28.52.58,1.08v-1.08h-.58ZM1.82,82.09c-.11.01-.22.02-.33.03.05.32.09.64.14.96.06-.01.12-.01.19-.02v-.97Zm70.17-35.28c-.11,0-.22,0-.33.02.05.32.09.65.14.97.06,0,.13,0,.19-.02v-.97Zm-8.05,36.96c-.19.06-.47.15-.75.24.04.05.08.11.12.16h.63v-.4Zm-5.03-28v.57c.25-.04.42-.07.49-.08-.17-.17-.35-.36-.49-.49Zm13.2,97.86c.11,0,.22,0,.32-.01-.04-.33-.09-.66-.13-.98-.06.01-.13.01-.19.02v.97ZM98.19,2.34c.01.11.02.22.03.33.32-.05.64-.09.96-.14-.01-.06-.01-.12-.02-.19h-.97Zm24.43,33.16q-.53-.11-.49.4c.13-.11.33-.27.49-.4Zm50.97,50.31q-.12.55.78.48c-.37-.23-.6-.37-.78-.48Zm-70.71,172.77c-.26.12-.51.24-.76.35.04.06.09.12.13.18h.63v-.53Zm40.7-171.5c-.28.29-.46.47-.91.93.62-.13.82-.17,1.04-.22-.04-.24-.07-.4-.13-.71Zm30.76,64.15c.42-.98-.02-.86-.49-.78.17.27.32.5.49.78Zm-3.37,65.9q.55.12.48-.78c-.22.37-.36.59-.48.78Zm-41.11-127.72c.12.26.24.51.35.76.06-.04.12-.09.18-.13v-.63h-.53ZM7.09,223.58c0,.11,0,.22.02.33.32-.05.65-.09.97-.14,0-.06,0-.13-.02-.19h-.97ZM57.99,52.17c-.28.29-.46.47-.91.93.62-.13.82-.17,1.04-.22-.04-.24-.07-.4-.13-.71h0Zm18.19-6.5c.15.28.28.52.58,1.08v-1.08h-.58Zm-31.29,101.63c.26-.12.51-.24.76-.35-.04-.06-.09-.12-.13-.18h-.63v.53Zm25.78-103.86h.18v-1.1h-.18v1.1ZM1.83,94.92c.06.32.09.48.13.71.19-.29.34-.52.47-.71h-.6Zm111.42,138.84l.33-.03c-.05-.32-.09-.64-.14-.96-.06.01-.12.01-.19.02v.97Zm-5.26.49c-.11.01-.22.01-.33.02.05.32.09.65.14.97.06-.01.13-.01.19-.02v-.97h0Zm-14.54,17.84c-.28-.27-.47-.46-.93-.91.13.62.17.82.22,1.04.23-.04.4-.07.71-.13Zm-4.54-.42c-.22.09-.48.19-.74.3.04.05.07.11.11.16h.64c-.01-.22-.01-.38-.01-.46Zm22.11-16.9c.26-.12.51-.24.76-.35-.04-.06-.09-.12-.13-.18h-.63v.53ZM123.75,2.47v-.6c-.25.04-.42.07-.94.16.49.23.75.35.94.44Zm-7.06,19.38h-.6c.04.25.07.42.16.94.24-.49.35-.75.44-.94Zm-12.79,228.31c.98.42.86-.02.78-.49-.27.17-.5.31-.78.49ZM55.08,1.85v-.33c-.33.04-.66.09-.99.13,0,.06,0,.13,0,.19.33,0,.65,0,.98,0h0Zm65.03,40.56h-.33c.04.33.09.66.13.99.06,0,.13,0,.19-.02.01-.32.01-.65.01-.97h0Zm-18.14,196.27h-.57c.04.25.07.42.08.49.17-.17.36-.35.49-.49h0Zm-23.87,1.12c.42-.98-.02-.86-.49-.78.17.27.31.5.49.78ZM118.6,61.36c-.28.29-.46.47-.91.93.62-.13.82-.17,1.04-.22-.04-.24-.07-.4-.13-.71h0Zm43.67-16.93q.12-.55-.77-.48c.36.23.59.37.77.48ZM1.58,125.71l.33-.03c-.05-.32-.09-.64-.14-.96-.06.01-.12.01-.19.02v.97ZM117.71,53.56c-.96-.4-.91-.02-.75.47.24-.15.46-.29.75-.47ZM21.86,122.12c.12.26.24.51.35.76.06-.04.12-.09.18-.13v-.63h-.53Zm120.47,125.85c-.96-.4-.91-.02-.75.47.23-.14.46-.29.75-.47ZM60.57,111.63v-.6c-.25.04-.42.07-.94.16.49.23.74.34.94.44Zm95.77,135.87h-.57c.04.25.07.42.08.49.17-.16.36-.35.49-.49h0Zm-136.32-3.57c-1.05-.41-.92.02-.79.4.22-.11.46-.23.79-.4ZM81.29,53.05c0,.11,0,.22.02.33.32-.05.65-.09.97-.14,0-.06,0-.13-.02-.19h-.97Zm-19.07,62.82c.15.28.28.52.58,1.08v-1.08h-.58Zm-37.65-.67c.28.27.47.46.93.91-.13-.62-.17-.82-.22-1.04-.24.04-.4.07-.71.13h0Zm70.45,132.49h.57c-.04-.25-.07-.42-.08-.49l-.49.49h0ZM55,61.41c-.22.68-.09.93.27.76-.07-.23-.17-.5-.27-.76Zm62.23-43.05v-.18h-.73v.18h.73Zm-50.33,26.27v.18h.73v-.18h-.73Zm108.1,8.73h.18v-.74h-.18v.74Zm-22.13,193.04v.18h.73v-.18h-.73ZM40.03,112.47c0-.11-.03-.21-.04-.32-.2.05-.4.1-.6.14,0,.06.02.12.03.17.2.01.41.01.61.01h0ZM130.16,18.51c.01.1.01.21.02.31.2-.04.41-.09.61-.13-.01-.06-.02-.12-.02-.18h-.61ZM35.74,112.23c0,.11.03.21.04.32.2-.05.4-.1.6-.14,0-.06-.02-.12-.03-.17-.21-.01-.41-.01-.61-.01h0Zm75.34,4.35h.18v-.74h-.18v.74Zm-.52.8c-.1.01-.21.01-.31.02.04.2.09.41.13.61.06-.01.12-.02.18-.02v-.61Zm-36-72.9c0-.11-.03-.21-.04-.32-.2.05-.4.1-.6.14,0,.06.02.12.03.17.2,0,.41,0,.61,0h0ZM31.7,112.23c0,.11,0,.21,0,.32.21-.05.41-.09.62-.14,0-.06-.02-.12-.02-.18h-.61,0Zm38.82,133.65c0-.11-.03-.21-.04-.32-.2.05-.4.1-.6.14,0,.06.02.12.03.17.2.01.41.01.61.01h0Zm103.95-127.53c-.01-.1-.01-.21-.02-.31-.2.04-.41.09-.61.13.01.06.02.12.02.18h.61ZM90.11,53.42c.01.1.01.21.02.31.2-.04.41-.09.61-.13-.01-.06-.02-.12-.02-.18h-.61Zm54,65.79c.01.11.03.21.04.32.2-.05.4-.1.6-.14-.01-.06-.02-.12-.03-.17-.21-.01-.41-.01-.61-.01h0Zm-45.19,125.69c.01.11.03.21.04.32.2-.05.4-.1.6-.14-.01-.06-.02-.12-.03-.17-.2-.01-.4-.01-.61-.01h0ZM115.45,3.07c.01.11.03.21.04.32.2-.05.4-.1.6-.14-.01-.06-.02-.12-.03-.17-.2,0-.4,0-.61,0h0Zm-49.58,57.34c0,.1,0,.21.02.31.2-.04.41-.09.61-.13,0-.06-.02-.12-.02-.18h-.61Zm76.04,59.54c.01.1.01.21.02.31.2-.04.41-.09.61-.13-.01-.06-.02-.12-.02-.18h-.61Zm-52.66,124.83c-.01-.1-.01-.21-.02-.31-.2.04-.41.09-.61.13.01.06.02.12.02.18h.61ZM148.55,20.28h.18v-.74h-.18v.74ZM71.75,1.97c0,.11,0,.21,0,.32.21-.05.41-.09.62-.14,0-.06-.02-.12-.02-.18h-.61,0ZM29.43,112.07v-.18h-.73v.18h.73ZM106.27,3.07c.01.11.03.21.04.32.2-.05.4-.1.6-.14-.01-.06-.02-.12-.03-.17-.21,0-.41,0-.61,0h0Zm-15.79,245.75c.11-.01.21-.03.32-.04-.05-.2-.1-.4-.14-.6-.06.01-.12.02-.17.03-.01.21-.01.41-.01.61h0ZM45.6,109.13v-.18h-.73v.18h.73ZM1.61,123.56h.18v-.74h-.18v.74Zm67.07,119.5c-.11.01-.21.03-.32.04.05.2.1.4.14.6.06-.01.12-.02.17-.03,0-.2,0-.41,0-.61h0Zm5.57-189.06v-.18h-.73v.18h.73ZM.84,109.16c.1-.01.21-.01.31-.02-.04-.2-.09-.41-.13-.61-.06.01-.12.02-.18.02v.61ZM25.7,19.98c-.1,0-.21,0-.31.02.04.2.09.41.13.61.06,0,.12-.02.18-.02v-.61Zm51.55,221.62c0,.11.03.21.04.32.2-.05.4-.1.6-.14,0-.06-.02-.12-.03-.17-.21-.01-.41-.01-.61-.01h0ZM75.63,1.54h-.18v.74h.18v-.74Zm24.27,239.56c-.01-.1-.01-.21-.02-.31-.2.04-.41.09-.61.13.01.06.02.12.02.18h.61Zm58.54.01c.11-.01.21-.03.32-.04-.05-.2-.1-.4-.14-.6-.06.01-.12.02-.17.03-.01.2-.01.4-.01.61h0Zm15.73-172.77v-.18h-.73v.18h.73Zm-123,58.59c0,.11,0,.21,0,.32.21-.05.41-.09.62-.14,0-.06-.02-.12-.02-.18h-.61,0ZM133.4,5.86v-.18h-.73v.18h.73Zm-30.8,121.44c.01.1.01.21.02.31.2-.04.41-.09.61-.13-.01-.06-.02-.12-.02-.18h-.61Zm-44.45,112.7c.11-.01.21-.03.32-.04-.05-.2-.1-.4-.14-.6-.06.01-.12.02-.17.03,0,.21,0,.41,0,.61h0Zm18.03-195.46h.18v-.74h-.18v.74Zm53.48,62.91c-.11.01-.21.03-.32.04.05.2.1.4.14.6.06-.01.12-.02.17-.03.01-.21.01-.41.01-.61h0Zm22.1-1.62v-.18h-.73v.18h.73Zm-51.13,133.43c-.01-.1-.01-.21-.02-.31-.2.04-.41.09-.61.13.01.06.02.12.02.18h.61ZM62.56,43.75c.11,0,.21-.03.32-.04-.05-.2-.1-.4-.14-.6-.06,0-.12.02-.17.03,0,.2,0,.4,0,.61h0Zm78.49,205.44c-.01-.11-.03-.21-.04-.32-.2.05-.4.1-.6.14.01.06.02.12.03.17.21.01.41.01.61.01h0Zm-38.94-115.27c-.1.01-.21.01-.31.02.04.2.09.41.13.61.06-.01.12-.02.18-.02v-.61Zm-16.84,115.79v.18h.73v-.18h-.73Zm60.67-144.83c.01.11.03.21.04.32.2-.05.4-.1.6-.14-.01-.06-.02-.12-.03-.17-.2-.01-.4-.01-.61-.01h0Zm-24.6-49.99c.01.1.01.21.02.31.2-.04.41-.09.61-.13-.01-.06-.02-.12-.02-.18h-.61Zm-40.11,195.55v.18h.73v-.18h-.73Zm92.88-114.08c-.01-.1-.01-.21-.02-.31-.2.04-.41.09-.61.13.01.06.02.12.02.18h.61ZM92.92,2.21c-.01-.1-.01-.21-.02-.31-.2.04-.41.09-.61.13.01.06.02.12.02.18h.61Zm9.68,134.64c.01.1.01.21.02.31.2-.04.41-.09.61-.13-.01-.06-.02-.12-.02-.18h-.61ZM142.14,15.81c-.01-.1-.01-.21-.02-.31-.2.04-.41.09-.61.13.01.06.02.12.02.18h.61Zm-65.38,219.53c-.11.01-.21.03-.32.04.05.2.1.4.14.6.06-.01.12-.02.17-.03,0-.2,0-.4,0-.61h0Zm-.37,16.42c0-.11,0-.21,0-.32-.21.05-.41.09-.62.14,0,.06.02.12.02.18h.61Zm-11.78-188.48h-.18v.74h.18v-.74ZM93.65,3.32c-.01-.1-.01-.21-.02-.31-.2.04-.41.09-.61.13.01.06.02.12.02.18h.61Zm57.75,51.6v.18h.73v-.18h-.73Zm-59.57,197.21c-.01-.11-.03-.21-.04-.32-.2.05-.4.1-.6.14.01.06.02.12.03.17.2.01.4.01.61.01h0Zm-44.76-110.1v.18h.73v-.18h-.73Zm126.83-47.51h.18v-.74h-.18v.74ZM13.27,42.43v.18h.73v-.18h-.73Zm8.02,101.41c-.1.01-.21.01-.31.02.04.2.09.41.13.61.06-.01.12-.02.18-.02v-.61ZM161.25,42.27c-.01-.1-.01-.21-.02-.31-.2.04-.41.09-.61.13.01.06.02.12.02.18h.61Zm-51.82,102.24h-.18v.74h.18v-.74Zm4.4,87.1h-.18v.74h.18v-.74ZM101.71,4.11h-.18v.74h.18v-.74Zm-27,228.23h.18v-.74h-.18v.74ZM117.9,41.67c-.11,0-.21,0-.32,0,.05.21.09.41.14.62.06,0,.12-.02.18-.02v-.61h0Zm-71.87,52.79c.1-.01.21-.01.31-.02-.04-.2-.09-.41-.13-.61-.06.01-.12.02-.18.02v.61Zm-1.59-41.9c0-.11-.03-.21-.04-.32-.2.05-.4.1-.6.14,0,.06.02.12.03.17.2,0,.4,0,.61,0h0Zm-11.64-11.26c0,.11.03.21.04.32.2-.05.4-.1.6-.14,0-.06-.02-.12-.03-.17-.21,0-.41,0-.61,0h0ZM87.53,3.81c0,.11.02.21.04.32.2-.05.4-.1.6-.14,0-.06-.02-.12-.03-.17-.2,0-.4,0-.61,0h0Zm20.09,227.5c-.1.01-.21.01-.31.02.04.2.09.41.13.61.06-.01.12-.02.18-.02v-.61ZM68.31,39.33c0-.11-.03-.21-.04-.32-.2.05-.4.1-.6.14,0,.06.02.12.03.17.21,0,.41,0,.61,0h0Zm43.72,191.24c-.1.01-.21.01-.31.02.04.2.09.41.13.61.06-.01.12-.02.18-.02v-.61Zm61.84-139.41c.11-.01.21-.03.32-.04-.05-.2-.1-.4-.14-.6-.06.01-.12.02-.17.03-.01.2-.01.4-.01.61h0Zm-65.03,139.41c.01.11.03.21.04.32.2-.05.4-.1.6-.14-.01-.06-.02-.12-.03-.17-.2-.01-.41-.01-.61-.01h0Zm15.44-82.69c.01.1.01.21.02.31.2-.04.41-.09.61-.13-.01-.06-.02-.12-.02-.18h-.61Zm-27.32-97.15c-.01-.1-.01-.21-.02-.31-.2.04-.41.09-.61.13.01.06.02.12.02.18h.61ZM4.76,222.12c-.1.01-.21.01-.31.02.04.2.09.41.13.61.06-.01.12-.02.18-.02v-.61Zm38.33-72.54c.1-.01.21-.01.31-.02-.04-.2-.09-.41-.13-.61-.06.01-.12.02-.18.02v.61Zm-2.7,71.44c-.1.01-.21.01-.31.02.04.2.09.41.13.61.06-.01.12-.02.18-.02v-.61Zm.8-70.91v.18h.73v-.18h-.73Zm44.15-85.66c0,.1,0,.21.02.31.2-.04.41-.09.61-.13,0-.06-.02-.12-.02-.18h-.61ZM18.04,150.48v.18h.73v-.18h-.73Zm89.58,107.28c-.11.01-.21.03-.32.04.05.2.1.4.14.6.06-.01.12-.02.17-.03.01-.2.01-.41.01-.61h0Zm-89.64-41.53c-.11.01-.21.03-.32.04.05.2.1.4.14.6.06-.01.12-.02.17-.03,0-.2,0-.41,0-.61h0Zm22.9-65.04c0,.11.03.21.04.32.2-.05.4-.1.6-.14,0-.06-.02-.12-.03-.17-.2-.01-.41-.01-.61-.01h0Zm90.59-.07h-.18v.74h.18v-.74Zm43.9-65.42h.18v-.74h-.18v.74Zm-29.94-.73h-.18v.74h.18v-.74Zm-24.16,173.74v-.18h-.73v.18h.73ZM2.16,153.69h-.18v.74h.18v-.74Zm146.36-89.24c.01.11.02.21.04.32.2-.05.4-.1.6-.14-.01-.06-.02-.12-.03-.17-.21,0-.41,0-.61,0h0Zm-108.53,89.98h-.18v.74h.18v-.74Zm4.5,104.47v.18h.73v-.18h-.73ZM31.94,15.08c0-.1,0-.21-.02-.31-.2.04-.41.09-.61.13,0,.06.02.12.02.18h.61ZM70.58,2.74v.18h.73v-.18h-.73Zm85.89,209.7c-.01-.1-.01-.21-.02-.31-.2.04-.41.09-.61.13.01.06.02.12.02.18h.61ZM99.23,1.45v-.18h-.73v.18h.73Zm-6.61,56.6v-.18h-.73v.18h.73ZM2.68,212.43c.1-.01.21-.01.31-.02-.04-.2-.09-.41-.13-.61-.06.01-.12.02-.18.02v.61ZM72.35,55.62c-.11,0-.21.03-.32.04.05.2.1.4.14.6.06,0,.12-.02.17-.03,0-.2,0-.4,0-.61h0Zm56.95-20.7c-.01-.11-.02-.21-.04-.32-.2.05-.4.1-.6.14.01.06.02.12.03.17.2,0,.4,0,.61,0h0Zm-61.29,126.22v.18h.73v-.18h-.73ZM104.47,3.38h.18v-.74h-.18v.74Zm58.99,159.81c-.01-.11-.03-.21-.04-.32-.2.05-.4.1-.6.14.01.06.02.12.03.17.2.01.41.01.61.01h0Zm-26.12-84.1h-.18v.74h.18v-.74Zm-9.52-44.53c-.01-.1-.01-.21-.02-.31-.2.04-.41.09-.61.13.01.06.02.12.02.18h.61Zm-5.9,176.1h-.18v.74h.18v-.74Zm-60.16-.46v-.18h-.73v.18h.73Zm-32.75-44.44c0-.11-.03-.21-.04-.32-.2.05-.4.1-.6.14,0,.06.02.12.03.17.2.01.4.01.61.01h0ZM101.44,47.76v-.18h-.73v.18h.73Zm-24.19,217.36c0,.11.03.21.04.32.2-.05.4-.1.6-.14,0-.06-.02-.12-.03-.17-.21-.01-.41-.01-.61-.01h0Zm29.76-187.44c.01.1.01.21.02.31.2-.04.41-.09.61-.13-.01-.06-.02-.12-.02-.18h-.61Zm3.52,88.51h-.18v.74h.18v-.74ZM17.98,25.49c-.11,0-.21.03-.32.04.05.2.1.4.14.6.06,0,.12-.02.17-.03,0-.21,0-.41,0-.61h0Zm156.26,142.48c.11-.01.21-.03.32-.04-.05-.2-.1-.4-.14-.6-.06.01-.12.02-.17.03-.01.2-.01.41-.01.61h0Zm-173.03-.25c0,.11,0,.21,0,.32.21-.05.41-.09.62-.14,0-.06-.02-.12-.02-.18h-.61,0Zm65.79-99.29h.18v-.74h-.18v.74Zm43.92,99.29c-.11.01-.21.03-.32.04.05.2.1.4.14.6.06-.01.12-.02.17-.03.01-.2.01-.41.01-.61h0Zm8.82,98.13c-.11.01-.21.03-.32.04.05.2.1.4.14.6.06-.01.12-.02.17-.03.01-.21.01-.41.01-.61h0Zm-75.67-68.12c0-.11-.03-.21-.04-.32-.2.05-.4.1-.6.14,0,.06.02.12.03.17.2.01.41.01.61.01h0Zm14.81-163.91c.11,0,.21-.03.32-.04-.05-.2-.1-.4-.14-.6-.06,0-.12.02-.17.03,0,.21,0,.41,0,.61h0Zm52.04,135c-.11.01-.21.03-.32.04.05.2.1.4.14.6.06-.01.12-.02.17-.03.01-.2.01-.41.01-.61h0Zm11.09,97.24v-.18h-.73v.18h.73Zm-44.09-69.09v-.18h-.73v.18h.73Zm31.91,69.86c-.01-.11-.03-.21-.04-.32-.2.05-.4.1-.6.14.01.06.02.12.03.17.2.01.4.01.61.01h0Zm-6.65-190.68h-.18v.74h.18v-.74Zm-58.23,192.21h.18v-.74h-.18v.74Zm90.58-75.77c-.01-.1-.01-.21-.02-.31-.2.04-.41.09-.61.13.01.06.02.12.02.18h.61ZM42.97,58.08c0-.11-.03-.21-.04-.32-.2.05-.4.1-.6.14,0,.06.02.12.03.17.2,0,.4,0,.61,0h0Zm104.32,134.14c-.01-.1-.01-.21-.02-.31-.2.04-.41.09-.61.13.01.06.02.12.02.18h.61ZM25.45,73.64c0,.11.03.21.04.32.2-.05.4-.1.6-.14,0-.06-.02-.12-.03-.17-.2,0-.41,0-.61,0h0Zm55.41-.34v.18h.73v-.18h-.73Zm6.16-69.19h-.18v.74h.18v-.74Zm-17.85,48.08c.1,0,.21,0,.31-.02-.04-.2-.09-.41-.13-.61-.06,0-.12.02-.18.02v.61Zm23.76,19.85c-.01-.11-.02-.21-.04-.32-.2.05-.4.1-.6.14.01.06.02.12.03.17.2,0,.4,0,.61,0h0ZM4.14,189.41c0,.11.03.21.04.32.2-.05.4-.1.6-.14,0-.06-.02-.12-.03-.17-.2-.01-.4-.01-.61-.01h0Zm114.19-4.57v-.18h-.73v.18h.73Zm-92.14-12.46c.11-.01.21-.02.32-.04-.05-.2-.1-.4-.14-.6-.06.01-.12.02-.17.03,0,.2,0,.41,0,.61h0Zm-24.37-.25c-.11.01-.21.02-.32.04.05.2.1.4.14.6.06-.01.12-.02.17-.03,0-.2,0-.41,0-.61h0Zm60.74,12.38c.11-.01.21-.02.32-.04-.05-.2-.1-.4-.14-.6-.06.01-.12.02-.17.03,0,.2,0,.41,0,.61h0Zm12.7-113.87h-.18v.74h.18v-.74Zm13.69-13.88v.18h.73v-.18h-.73Zm-62.18,13.88h-.18v.74h.18v-.74Zm-8.82,169.42h-.18v.74h.18v-.74Zm24.95-64.31h-.12v.37h.12v-.37Zm91.48,0h-.12v.37h.12v-.37Zm-66.5-.37h-.12v.37h.12v-.37Zm106.66,1.22v.12h.37v-.12h-.37ZM40.45,4.73v-.12h-.37v.12h.37Zm68.33,170.4v.12h.37v-.12h-.37ZM62.5,56.91v-.12h-.37v.12h.37Zm49.22,123v.12h.37v-.12h-.37Zm-44.2.25h-.12v.37h.12v-.37Zm106.65-5.64v-.12h-.37v.12h.37Zm-107.02,7.47h-.12v.37h.12v-.37Zm-65.64.86v.12h.37v-.12h-.37Zm6.98,0v.12h.37v-.12h-.37ZM33.96,32.78h.12v-.37h-.12v.37ZM90.41,2.89v-.12h-.37v.12h.37ZM24.78,172.07h.12v-.37h-.12v.37Zm149.15,12.86h.12v-.37h-.12v.37ZM119.07,28.13v.12h.37v-.12h-.37Zm-56.08,159.74h.12v-.37h-.12v.37ZM150.42,56.3h.12v-.37h-.12v.37Zm-110.58-23.52h.12v-.37h-.12v.37Zm68.09,138.19h-.12v.37h.12v-.37ZM20.49,26.53h-.12v.37h.12v-.37Zm45.68,23.28v.12h.37v-.12h-.37Zm71.88,7.23h-.12v.37h.12v-.37Zm-52.53-1.11h-.12v.37h.12v-.37Zm89.26,138.56h-.12v.37h.12v-.37Zm-29.26-24.87v.12h.37v-.12h-.37Zm29.51,26.71h.12v-.37h-.12v.37Zm-43.59-26.83h-.12v.37h.12v-.37Zm-64.17.12v.12h.37v-.12h-.37Zm107.15-.49h-.12v.37h.12v-.37Zm-101.76,27.56h-.12v.37h.12v-.37Zm4.28-140.76h.12v-.37h-.12v.37Zm-8.93,112.71v-.12h-.37v.12h.37Zm-37.47-1.22v.12h.37v-.12h-.37Zm144.37-1.84v.12h.37v-.12h-.37ZM117.84,24.69h-.12v.37h.12v-.37Zm-8.57,8.83h.12v-.37h-.12v.37Zm8.57-9.56h-.12v.37h.12v-.37Zm-54.73,0h-.12v.37h.12v-.37Zm-12,185.84v-.12h-.37v.12h.37Zm-21.68-44.59v.12h.37v-.12h-.37Zm39.19-5.27h-.12v.37h.12v-.37ZM72.29,3.01h-.12v.37h.12v-.37Zm72,209.12h-.12v.37h.12v-.37ZM62.74,55.57h-.12v.37h.12v-.37Zm-.98.24v-.12h-.37v.12h.37Zm111.68,157.3v-.12h-.37v.12h.37Zm-118.29-56.6v-.12h-.37v.12h.37Zm87.92,57.09h.12v-.37h-.12v.37Zm-127.35,0h-.12v.37h.12v-.37ZM148.46,23.35v.12h.37v-.12h-.37Zm-7.72,192.21v.12h.37v-.12h-.37Zm1.59.25h.12v-.37h-.12v.37Zm-92.08-61.01h-.12v.37h.12v-.37Zm92.7-96.42v-.12h-.37v.12h.37Zm-106.05.49h.12v-.37h-.12v.37Zm135.44,92.01v.12h.37v-.12h-.37ZM49.64,35.84v.12h.37v-.12h-.37ZM13.88,216.91h-.12v.37h.12v-.37ZM67.52,36.09h-.12v.37h.12v-.37Zm76.65,181.55h.12v-.37h-.12v.37Zm-106.29.86v.12h.37v-.12h-.37Zm136.78.25h.12v-.37h-.12v.37ZM118.46,22.49h.12v-.37h-.12v.37ZM34.45,221.32h-.12v.37h.12v-.37Zm7.47.12v.12h.37v-.12h-.37Zm-8.08.74v.12h.37v-.12h-.37ZM120.42,58.51h-.12v.37h.12v-.37Zm-.13,169.06h.12v-.37h-.12v.37ZM59.92,55.32v.12h.37v-.12h-.37Zm6,174.08h.12v-.37h-.12v.37ZM140.62,38.66h-.12v.37h.12v-.37Zm1.1,108.79h-.12v.37h.12v-.37ZM13.15,230.87h-.12v.37h.12v-.37ZM113.19,40.01v-.12h-.37v.12h.37Zm-40.04,191.72v.12h.37v-.12h-.37Zm-29.15-85.75h-.12v.37h.12v-.37Zm71.27-1.47h-.12v.37h.12v-.37Zm-93.55-2.82v.12h.37v-.12h-.37Zm110.57-90.78v.12h.37v-.12h-.37ZM62.86,234.43v-.12h-.37v.12h.37ZM33.96,59.61h.12v-.37h-.12v.37Zm15.19,79.75h-.12v.37h.12v-.37Zm16.53,95.56h-.12v.37h.12v-.37Zm7.96-95.56h.12v-.37h-.12v.37Zm36.73,96.66h.12v-.37h-.12v.37Zm-94.16.61v-.12h-.37v.12h.37Zm87.55.12h.12v-.37h-.12v.37Zm-30-99.23h-.12v.37h.12v-.37Zm-44.45-.73h-.12v.37h.12v-.37Zm87.43-1.84h-.12v.37h.12v-.37ZM16.94,238.1v-.12h-.37v.12h.37ZM73.76,42.34h-.12v.37h.12v-.37Zm44.7-20.95h.12v-.37h-.12v.37Zm-.37,112.83h.12v-.37h-.12v.37ZM41.56,4.36v-.12h-.37v.12h.37Zm77.63,129.49h.12v-.37h-.12v.37Zm-117.68-3.19v.12h.37v-.12h-.37Zm98.46,109.28v-.12h-.37v.12h.37ZM122.37,20.53v-.12h-.37v.12h.37ZM4.94,126.87h.12v-.37h-.12v.37Zm70.66,113.93h-.12v.37h.12v-.37ZM95.44.81h-.12v.37h.12v-.37ZM22.82,20.41v.12h.37v-.12h-.37Zm58.04,221.61v.12h.37v-.12h-.37Zm93.43-117.36h.12v-.37h-.12v.37ZM58.33,53.73h-.12v.37h.12v-.37Zm21.8,189.76v.12h.37v-.12h-.37Zm15.43,0v.12h.37v-.12h-.37Zm-66.74.62h.12v-.37h-.12v.37Zm79.96-.13v-.12h-.37v.12h.37Zm32.21-123.36h-.12v.37h.12v-.37Zm-48.37,123.61v.12h.37v-.12h-.37ZM120.54,19.79v-.12h-.37v.12h.37Zm-16.29-.61h-.12v.37h.12v-.37Zm-49.96,41.53h-.12v.37h.12v-.37ZM28.09,19.55h.12v-.37h-.12v.37Zm137.14,98.5h-.12v.37h.12v-.37Zm-72.24,128.14v-.12h-.37v.12h.37ZM97.39,1.79v-.12h-.37v.12h.37Zm60.37,116.62h.12v-.37h-.12v.37Zm-24.36-3.06v-.12h-.37v.12h.37Zm-71.52-.24h.12v-.37h-.12v.37Zm49.6-.37h.12v-.37h-.12v.37Zm-85.84-1.1h-.12v.37h.12v-.37Zm3.67-1.11h-.12v.37h.12v-.37Zm49.59,134.88h-.12v.37h.12v-.37Zm8.58.25v-.12h-.37v.12h.37ZM28.82,17.34h.12v-.37h-.12v.37Zm74.08,27.45v-.12h-.37v.12h.37ZM93.48,1.91h.12v-.37h-.12v.37Zm-18.37,59.9h.12v-.37h-.12v.37Zm-3.06,186.22v-.12h-.37v.12h.37ZM42.29,50.54v.12h.37v-.12h-.37Zm-18.86,60.15h-.12v.37h.12v-.37Zm-21.43-.36h.12v-.37h-.12v.37ZM147.48,16.98h.12v-.37h-.12v.37Zm-77.64,28.05v.12h.37v-.12h-.37Zm57.19,62.72h-.12v.37h.12v-.37Zm-25.47,141.13h.12v-.37h-.12v.37Zm40.53-143.7h-.12v.37h.12v-.37Zm-3.31,0h-.12v.37h.12v-.37Zm-67.1-54.64v.12h.37v-.12h-.37Zm36.37,11.76v.12h.37v-.12h-.37ZM20.62,101.75v-.12h-.37v.12h.37Zm127.96,148.97h.12v-.37h-.12v.37ZM29.07,15.26v.12h.37v-.12h-.37Zm53.51,235.46h-.12v.37h.12v-.37Zm56.08-152.52h.12v-.37h-.12v.37Zm16.53-.37h.12v-.37h-.12v.37Zm-52.53,153.99h.12v-.37h-.12v.37ZM37.03,96.73h-.12v.37h.12v-.37Zm2.44,155.83h.12v-.37h-.12v.37Zm3.31.37h.12v-.37h-.12v.37Zm2.45-157.06v-.12h-.37v.12h.37Zm43.1-31.48h.12v-.37h-.12v.37Zm-38.32,27.44v-.12h-.37v.12h.37Zm-23.76-27.08h.12v-.37h-.12v.37Zm32.45,25.73h-.12v.37h.12v-.37Zm29.88,165.14v.12h.37v-.12h-.37ZM158.87,52.26h.12v-.37h-.12v.37Zm-99.93,204.71h.12v-.37h-.12v.37Zm35.76.37h-.12v.37h.12v-.37Zm8.33.36h.12v-.37h-.12v.37Zm70.78-169.67v.12h.37v-.12h-.37ZM123.84,3.62v-.12h-.37v.12h.37Zm20.21,81.1v.12h.37v-.12h-.37Zm-26.82-19.72v-.12h-.37v.12h.37Zm-52.65,193.81h-.12v.37h.12v-.37Zm18.85.12v.12h.37v-.12h-.37ZM138.91,14.89v.12h.37v-.12h-.37Zm20.45,64.57h-.12v.37h.12v-.37Zm-58.17,180.08h.12v-.37h-.12v.37Zm38.08-179.96v.12h.37v-.12h-.37Zm-13.83,179.96h.12v-.37h-.12v.37ZM37.27,79.82h.12v-.37h-.12v.37Zm8.94,183.03h-.12v.37h.12v-.37Zm-6.37,1.1h.12v-.37h-.12v.37Zm120.62-184.86h-.12v.37h.12v-.37Zm-90.62-31.12v.12h.37v-.12h-.37Zm65.88,30.38h.12v-.37h-.12v.37Zm2.21-.36h.12v-.37h-.12v.37Zm-.86-.86v-.12h-.37v.12h.37Zm-28.04-12.01h-.12v.37h.12v-.37ZM41.68,13.3h.12v-.37h-.12v.37ZM60.29,1.3v.12h.37v-.12h-.37Zm106.05,46.55h-.12v.37h.12v-.37Zm-45.56,218.67h-.12v.37h.12v-.37Zm44.45-191.11h-.12v.37h.12v-.37Zm-119.88,191.85h.12v-.37h-.12v.37Zm103.23-191.85h.12v-.37h-.12v.37Zm-99.68,192.09v-.12h-.37v.12h.37Zm96.86-193.19h-.12v.37h.12v-.37Zm-102.49-23.52h-.12v.37h.12v-.37Zm45.92,23.52h-.12v.37h.12v-.37ZM94.09.93v.12h.37v-.12h-.37Zm-47.88,66.4h-.12v.37h.12v-.37Zm23.14-19.11h-.12v.37h.12v-.37Zm5.88,219.77h-.12v.37h.12v-.37Zm2.33.13v.12h.37v-.12h-.37Zm-31.47-196.75h.12v-.37h-.12v.37Zm32.57-19.97v-.12h-.37v.12h.37Z"/>
      <path class="cls-1" d="m.89,54.03c-.42-.69.23-1.15.38-1.71.35,1.04.34,1.04-.38,1.71Z"/>
      <path class="cls-1" d="m39.63,2.5c-.12.55-.28,1.04-1.13.73.46-.29.79-.51,1.13-.73Z"/>
      <path class="cls-1" d="m2.55,51.96v.61c-.06,0-.12.02-.18.02-.04-.2-.09-.41-.13-.61.1,0,.21,0,.31-.02Z"/>
      <path class="cls-1" d="m16.21,26.53c.12-.12.24-.25.37-.37v.37h-.37Z"/>
      <path class="cls-1" d="m39.68,2.61c.09-.1.17-.2.26-.3l.12.12c-.1.09-.2.17-.3.26l-.08-.08h0Z"/>
      <path class="cls-1" d="m19.85,22.53c-.1-.09-.2-.17-.3-.26l.12-.12c.09.1.17.2.26.3-.03.03-.06.05-.08.08h0Z"/>
      <path class="cls-1" d="m166.09,44.91c.12.12.24.25.37.37-.12-.13-.25-.25-.37-.37Z"/>
      <path class="cls-1" d="m140.34,12.61c-.1-.09-.2-.17-.3-.26.04-.04.08-.08.12-.12.09.1.17.2.26.3-.03.03-.05.05-.08.08h0Z"/>
      <path class="cls-1" d="m69.84,126.5c.12-.37.24-.74.37-1.1.81-.06,1.15.51,1.47,1.1h-1.84Z"/>
      <path class="cls-1" d="m74.62,129.81c-.48-.37-.76-.84-.73-1.47.81.2.76.84.73,1.47Z"/>
      <path class="cls-1" d="m73.85,128.37c-.1-.09-.2-.17-.3-.26.04-.04.08-.08.12-.12.09.1.17.2.26.3-.03.04-.06.06-.08.08h0Z"/>
      <path class="cls-1" d="m71.71,126.46c.1.09.2.17.3.26-.04.04-.08.08-.12.12-.09-.1-.17-.2-.26-.3l.08-.08Z"/>
      <path class="cls-1" d="m70.21,125.4c-.12-.12-.24-.24-.37-.37.12.12.25.24.37.37Z"/>
      <path class="cls-1" d="m105.81,123.52c.09-.1.17-.2.26-.3l.12.12c-.1.09-.2.17-.3.26-.04-.03-.06-.05-.08-.08h0Z"/>
      <path class="cls-1" d="m107.28,122.49c-.1-.09-.2-.17-.3-.26l.12-.12c.09.1.17.2.26.3-.03.04-.06.06-.08.08h0Z"/>
      <path class="cls-1" d="m107.56,120.99v.37h-.12v-.37h.12Z"/>
      <path class="cls-1" d="m108.09,120.28c-.09.1-.17.2-.26.3l-.12-.12c.1-.09.2-.17.3-.26.03.04.05.06.08.08h0Z"/>
      <path class="cls-1" d="m154.58,25.43v.37h-.12v-.37h.12Z"/>
      <path class="cls-1" d="m2.58,68.1c-.1-.09-.2-.17-.3-.26l.12-.12c.09.1.17.2.26.3-.03.03-.05.06-.08.08h0Z"/>
      <path class="cls-1" d="m147.72,18.45v.37c-.1-.08-.2-.16-.3-.25.1-.04.2-.08.3-.12Z"/>
      <path class="cls-1" d="m118.3,3.71c.09-.1.17-.2.26-.3.04.04.08.08.12.12-.1.09-.2.17-.3.26-.04-.03-.06-.05-.08-.08h0Z"/>
      <path class="cls-1" d="m99.23,247.78v-.37c.1.08.2.16.3.25-.1.04-.2.08-.3.12Z"/>
    </g>
  </g>
</svg>