<?xml version="1.0" encoding="UTF-8"?>
<svg id="Layer_2" data-name="Layer 2" xmlns="http://www.w3.org/2000/svg" viewBox="0 0 201.71 268.95">
  <defs>
    <style>
      .cls-1, .cls-2 {
        stroke-width: 0px;
      }

      .cls-2 {
        fill: #fff;
      }
    </style>
  </defs>
  <g id="Layer_1-2" data-name="Layer 1">
    <g>
      <path class="cls-2" d="m0,0h201.71v268.95H0c0-89.65,0-179.3,0-268.95Zm170.17,233.76c.23-2.19.6-4.43.68-6.68.12-3.35-.16-6.72.08-10.05.25-3.43-.73-6.73-.73-10.12.01-15.2.01-30.39.01-45.59,0-.89.15-1.82-.03-2.68-.86-4.16-.79-4.41-.03-8.85.24-1.41-.2-2.94-.33-4.53.11-.65.35-1.46.37-2.28.06-1.9.02-3.8.02-5.7-1.9-1.83.3-3.61.06-5.49-.51-4.01.61-8.14-.72-12.12-.1-.3-.15-.76.01-.99,1.14-1.6.52-3.4.63-5.1.09-1.45.02-2.9.02-4.36v-48.62c0-1.45.01-2.91,0-4.36-.01-1.39-.33-2.76-.5-4.1-.14-1.17-.19-2.51-.18-3.78.03-3.46.02-6.93,0-10.39,0-.76.19-1.83-.21-2.22-1.35-1.29.32-2.18.26-3.13-1.99-2.35-4.2-4.15-6.72-4.54-8.18-5.41-11.99-13.41-15.99-22.23-1.71-1.72-3.53-2.52-6.5-2.52-1.67,0-3.35.06-5.02-.03-.7-.04-1.38-.41-2.08-.63-1.89,1.3-4.05.39-6.07.66-.69-1.32-1.75-.07-2.64-.36-1-.33-2.14-.3-3.22-.3-9.27-.02-18.53,0-27.8,0h-9.04c-2.9,0-5.84.27-8.7-.08-2.87-.34-5.67,1.32-8.5.09-.18-.08-.55-.07-.63.04-.76,1.03-1.84.56-2.77.59-2,.07-4,.02-6,.02-1.64.48-2.37,1.78-2.92,3.17-.72,1.82-1.39,3.68-2.11,5.5-1.75,4.42-3.95,8.72-7.54,11.92-2.25,2-4.79,3.71-7.55,5.13-2.79,1.44-5.61,3.06-7.6,5.53.14,2.64-.81,5.01-.75,7.56.41,16.11-.1,32.21.59,48.33.67,15.61.13,31.28.17,46.92,0,1.25.32,2.5.51,3.89-.09.09-.53.36-.5.58.31,2.69-.71,5.47.58,8.13.34.71.36,2-.07,2.58-1.01,1.37-.43,2.79-.49,4.16-.04.9.57,1.82.57,2.74s-.44,1.82-.6,2.74c-.07.4-.06,1.01.19,1.23.71.66.49,1.45.44,2.17-.14,2.04.52,4.15-.61,6.11-.16.27.13.81.23,1.21.12.5.2,1.04.42,1.5.47.99-.69,1.76-.19,2.88.42.93.16,2.17.17,3.28,0,.54.08,1.17-.16,1.6-.74,1.36-.91,2.59.11,3.92.23.3-.06,1.03-.17,1.54s-.46,1.01-.41,1.49c.1.93.6,1.83.59,2.74,0,1.03-.44,2.04-.61,3.08-.09.54-.25,1.29.02,1.64,1.09,1.4.58,2.97.61,4.45.07,4.69-.08,9.39.05,14.08.19,6.48-.75,13.01.78,19.44.33.08.7.07.93.24,2.58,1.88,5.28,3.62,7.67,5.72,2.74,2.41,5.12,5.15,6.74,8.57,1.46,3.09,3.04,6.09,4.03,9.4.47,1.57,1.63,3.11,3.44,3.5,1.44.31,2.75.98,4.33.94,6.03-.13,12.06-.05,18.09-.05.89,0,1.82.15,2.67-.05.67-.15.99,1.19,1.89.17.6-.68,1.54.23,2.32.53.29.11.83.16.97,0,.99-1.17,2.29-.62,3.43-.62,14.51-.04,29.03-.01,43.54-.05,1.05,0,2.08.25,3.21-.35.71-.38,2.14.64,2.9.29,1.79-.82,3.63-.38,5.28-.64,3.07-2.42,3.73-6.19,5.7-9.15-.54-1.89.94-3.07,1.82-4.25,2.68-3.58,9.21-8.76,13.31-10.65,2.35-1.06,4.46-2.4,6.25-4.35Z"/>
      <path class="cls-1" d="m170.17,233.76c-1.79,1.95-3.91,3.29-6.27,4.38-4.1,1.88-10.63,7.06-13.31,10.65-.88,1.18-2.36,2.36-1.82,4.25-1.97,2.96-2.63,6.73-5.7,9.15-1.66.26-3.49-.18-5.28.64-.76.35-2.18-.67-2.9-.29-1.13.6-2.16.35-3.21.35-14.51.04-29.03.01-43.54.05-1.14,0-2.44-.55-3.43.62-.14.17-.68.12-.97,0-.77-.3-1.72-1.21-2.32-.53-.9,1.02-1.22-.32-1.89-.17-.85.19-1.78.05-2.67.05-6.03,0-12.06-.07-18.09.05-1.58.03-2.89-.64-4.33-.94-1.82-.39-2.97-1.93-3.44-3.5-.99-3.31-2.57-6.31-4.03-9.4-1.62-3.42-4-6.16-6.74-8.57-2.39-2.1-5.09-3.84-7.67-5.72-.23-.17-.6-.16-.93-.24-1.53-6.43-.6-12.96-.78-19.44-.13-4.69.02-9.39-.05-14.08-.02-1.48.49-3.05-.61-4.45-.27-.35-.11-1.1-.02-1.64.17-1.03.59-2.05.61-3.08,0-.91-.48-1.82-.59-2.74-.05-.47.3-.98.41-1.49.11-.52.4-1.24.17-1.54-1.02-1.33-.85-2.56-.11-3.92.24-.44.16-1.06.16-1.6,0-1.1.25-2.34-.17-3.28-.5-1.12.66-1.89.19-2.88-.22-.46-.3-.99-.42-1.5-.1-.41-.38-.94-.23-1.21,1.13-1.96.48-4.08.61-6.11.05-.72.28-1.52-.44-2.17-.24-.22-.25-.83-.19-1.23.16-.92.6-1.83.6-2.74s-.61-1.84-.57-2.74c.06-1.37-.52-2.78.49-4.16.43-.58.42-1.87.07-2.58-1.29-2.67-.27-5.44-.58-8.13-.02-.21.41-.48.5-.58-.19-1.39-.51-2.64-.51-3.89-.03-15.64.5-31.31-.17-46.92-.69-16.12-.18-32.23-.59-48.33-.07-2.56.88-4.92.75-7.56,1.99-2.47,4.81-4.09,7.6-5.53,2.76-1.42,5.31-3.13,7.55-5.13,3.59-3.2,5.79-7.5,7.54-11.92.72-1.81,1.38-3.67,2.11-5.5.55-1.39,1.27-2.7,2.92-3.17,2,0,4,.05,6-.02.94-.03,2.02.44,2.77-.59.08-.11.45-.12.63-.04,2.84,1.24,5.63-.43,8.5-.09,2.86.34,5.8.08,8.7.08h9.04c9.27,0,18.53,0,27.8,0,1.08,0,2.22-.02,3.22.3.89.29,1.95-.96,2.64.36,2.02-.27,4.18.65,6.07-.66.7.22,1.38.59,2.08.63,1.67.09,3.35.03,5.02.03,2.97,0,4.79.8,6.5,2.52,4,8.82,7.81,16.82,15.99,22.23,2.52.4,4.73,2.2,6.72,4.54.06.95-1.61,1.84-.26,3.13.41.39.21,1.46.21,2.22.02,3.46.03,6.93,0,10.39-.01,1.27.04,2.62.18,3.78.17,1.34.48,2.71.5,4.1.01,1.45,0,2.91,0,4.36v48.62c0,1.45.07,2.91-.02,4.36-.11,1.7.52,3.51-.63,5.1-.16.22-.11.68-.01.99,1.33,3.99.21,8.11.72,12.12.24,1.87-1.97,3.66-.06,5.49,0,1.9.04,3.8-.02,5.7-.03.82-.26,1.63-.37,2.28.14,1.59.58,3.12.33,4.53-.76,4.44-.83,4.68.03,8.85.18.86.03,1.78.03,2.68,0,15.2.01,30.39-.01,45.59,0,3.39.97,6.68.73,10.12-.24,3.34.04,6.7-.08,10.05-.06,2.22-.42,4.46-.66,6.65ZM94.64,47.64c.19,0,.39-.02.58-.03-.09-.44-.17-.87-.26-1.31-.14.02-.29.04-.43.06.04.43.07.85.6,1.24.03.43.06.83.11,1.38.49-.05.86-.09,1.26-.14-.04-.45-.06-.74-.1-1.14-.44-.04-.84-.07-1.76-.06Zm-8.8,206.48s-.09.09-.13.13c.16.18.31.37.47.55.07-.07.14-.14.21-.21-.18-.16-.37-.31-.61-.4-.26-1.06-.97-1.45-1.62-1.4-1.09-.73-1.46-1.99-3.38-1.94,1.13,1.03,1.54,2.22,2.99,2,.26,1.06.97,1.45,2.07,1.27ZM111.91,8.72c.35.2.71.41,1.16.67.2,0,.52,0,.96-.18v2.14c.69-.37,1.27-.68,2.08-1.1-.81-.41-1.46-.73-2.19-.86-.3-.41-.53-.95-.93-1.21-.45-.29-1.04-.28-1.01.6-.04-.04-.09-.09-.13-.13-.18.16-.37.31-.55.47.07.07.14.14.21.21.16-.18.32-.37.4-.61Zm-23.8,3.59c1.02-.54,1.67-.88,2.38-1.26-.46-.42-.75-.7-1.2-1.11-.38.76-.69,1.4-.75,2.19l-.13-.13c-.18.16-.37.31-.55.47l.21.21c.15-.18.3-.36.04-.37Zm3.62-3.64c-.39.08-.85.18-1.62.35.59.75.97,1.23,1.62,2.07,0-1.14,0-1.75.06-2.88,0,.19.02.39.03.58.44-.09.87-.17,1.31-.26-.02-.14-.04-.29-.06-.43-.43.03-.85.06-1.34.57Zm18.19,248.1c.02-.12.04-.23.06-.35-.83-.22-1.66-.44-2.48-.65.25.17.5.34.75.5-.78.33-1.56.66-2.33.99.8.12,1.29-.24,1.84-.35.7-.15,1.45-.1,2.14-1.22.01.19.02.39.03.58.44-.09.87-.17,1.31-.26-.02-.14-.04-.29-.05-.43-.45.03-.88.07-1.27,1.19Zm-26.17-129.92c-.12,2.28.97,4.17.73,6.3-.42,3.57.49,7.21-.62,10.8-.34,1.1-.55,2.62.43,3.78-.8,1.26-.49,2.66-.5,4.01-.03,4.13.07,8.27-.03,12.4-.11,4.15.48,8.33-.59,12.47-.34,1.29-.26,2.81.61,4.06-.44,2.64,1.2,5.05.69,7.35,1.18,1.23,2.1,2.2,3,3.14,1.19-.12,2.43.34,3.42-.6,1.11,1.15,2.52.55,3.77.56,4.27.04,8.52.05,12.79-.53,2.65-.35,5.3-.33,7.96-1.81.16-1.07.5-2.31.51-3.56.05-6.48.01-12.95.05-19.43.01-1.04.09-2.05.46-3.14.5-1.46.43-3.38-.11-4.84-.47-1.25-.63-2.59-.27-3.48.8-1.95.44-3.87.55-5.8.07-1.22.1-2.46-.01-3.68-.11-1.26-.58-2.49-.62-3.75-.09-3.56-.03-7.13-.03-10.16,1.01-2.76,2.48-4.59,4.32-6.14.64-.54,1.47-.87,2.07-1.45,3.74-3.56,6.85-7.48,8.62-12.51,1.24-3.52,2.27-7.01,2.39-10.72.06-1.93.4-3.93-.64-5.75.37-3.24-1.4-5.88-2.52-8.67-2.23-5.53-6.66-9.2-11.3-12.56-1.65-1.19-3.67-1.89-5.56-2.71-1.53-.67-3.3-.51-4.79-1.36-2.83.66-5.57-.89-8.52-.13-1.79.46-3.84.29-5.71.81-2.69.74-5.47,1.26-7.93,2.68-1.09.63-2.11,1.36-3.19,2-3,1.79-5.49,4.05-7.49,6.97-1.84,2.69-3.37,5.48-4.7,8.45-1.33,2.98-.89,6.26-1.94,9.25-.06.17,0,.5.12.6.99.79.45,1.87.51,2.81.13,1.93-.05,3.84.63,5.77.66,1.88,2.74,7.49,3.8,9.15,2.35,3.65,5.57,6.47,8.76,9.31.13.13.41.06.88.11Zm13.92,118.63c1.3,0,2.72.4,3.71-.08,2.45-1.18,5.18-2.15,6.77-4.58,1.38-2.11,2.09-4.52,2.41-7.02.34-2.66-.82-4.96-2.03-7.17-1.28-2.33-3.26-3.97-5.57-5.34-2.82-1.67-5.83-1.22-8.82-1.29-.9,1.05-2.53.53-3.4,1.44-2.16,2.24-4.66,4.15-5.99,7.2-1.43,3.28-1.45,6.58.14,9.46,2.72,4.87,6.96,7.74,12.78,7.38Zm2.22-200.82c7.58,1.55,13.07-1.28,15.7-7.96,2.12-5.38,2.02-9.63-5.58-15.66-1.13-.51-2.25-1.02-3.54-1.6-10.07-.97-13.49,3.95-15.18,9.07-.7,2.11-.48,4.7-.04,6.95.34,1.75,1.66,3.3,2.57,4.93,1.41,2.51,4.21,3.07,6.07,4.27Zm-12.54,210.15c1.5,2.47,4.6,2.16,6.31,4.11,3.76-.17,7.51.41,11.16-.71.13-.04.21-.27.27-.34-.3-.36-.59-.7-.84-1-.31.02-.56-.03-.74.06-.26.14-.46.38-.32.26-1.07-.08-1.88-.39-2.42-.13-.62.3-.93.63-1.69.16-.42-.25-1.27.34-1.91.29-.7-.06-1.39-.63-2.07-.59-1.67.1-3.12-.52-4.62-1.03-1.04-.35-2.08-.72-3.13-1.08ZM93.69,7.08c.35,1.39,1.38,1.14,1.85.85,2.14-1.35,4.47-1.26,6.82-1.23,1.22.02,2.44-.05,3.66.03.49.03.95.37,1.44.52.11.03.29-.16.6-.34-.36-.53-.71-1.04-.97-1.42-1.26-.42-2.6.44-3.53-.78-.47.45-.94.9-1.38,1.31-2.83.1-5.67-.35-8.49,1.06Zm29.45,11.03h-.34v2.68h.34v-2.68Zm5.82,51.61c-.73,1.25.31,1.45.76,2.07.72-1.24-.31-1.44-.76-2.07Zm-7.05-52.69c-.47.22-.93.43-1.39.65.08.11.16.21.24.32h1.15c0-.42,0-.71,0-.97Zm-16.7-8.14v.34h1.34v-.34h-1.34Zm12.85,5.09c.19-.02.39-.05.58-.07-.09-.36-.17-.73-.26-1.09-.11.02-.21.03-.32.05,0,.37,0,.74,0,1.11Zm-21.67,236.75c-.02-.19-.05-.39-.07-.58-.36.09-.73.17-1.09.26.02.11.03.21.05.32.37,0,.74,0,1.11,0ZM124.81,26.83h.34v-1.34h-.34v1.34Zm-15.03-19.57c-.01-.19-.02-.38-.03-.58-.38.08-.75.16-1.13.25.02.11.03.22.05.33h1.11Zm-16.46,39.02h.34v-1.34h-.34v1.34Zm13.12,2.57c-.02-.19-.05-.39-.07-.58-.36.09-.73.17-1.09.26.02.11.03.21.05.32h1.11Zm4.8-1.45v-.22h-.67v.22h.67Zm-8.71,1.79v.22h.67v-.22h-.67Zm-10.72-5.37v.22h.67v-.22h-.67Zm23.9,18.56h-.22v.67h.22v-.67Zm2.23.89v.22h.67v-.22h-.67Zm-27.25-20.34h.22v-.67h-.22v.67Zm-3.13-5.37h-.22v.67h.22v-.67Zm47.81,39.35v-.22h-.67v.22h.67Zm6.03,16.09v-.22h-.67v.22h.67Zm.44,14.31h-.22v.67h.22v-.67ZM34.18,32.42v.22h.67v-.22h-.67Zm92.92,167.45h-.22v.67h.22v-.67ZM82.65,26.83h.22v-.67h-.22v.67Zm39.76,194.5h-.22v.67h.22v-.67Zm-43.33,21.69v.22h.67v-.22h-.67Zm7.14,1.11h-.22v.67h.22v-.67Zm-4.69,2.02h-.22v.67h.22v-.67Zm4.69,0h-.22v.67h.22v-.67Zm21,1.11v-.22h-.67v.22h.67Zm-22.11.68v-.22h-.67v.22h.67Zm4.91.22h.22v-.67h-.22v.67Zm13.4.67h.22v-.67h-.22v.67Zm-17.2,0h-.22v.67h.22v-.67Zm8.27.22v.22h.67v-.22h-.67Zm6.7,0v.22h.67v-.22h-.67ZM124.42,22.81h-.22v.67h.22v-.67Zm-4.24-7.38h.22v-.67h-.22v.67Zm-5.14,236.75h-.22v.67h.22v-.67Zm2.23-241v-.22h-.67v.22h.67Zm-8.26-1.79h-.22v.67h.22v-.67Zm-14.74,40.24h-.22v.67h.22v-.67Z"/>
      <path class="cls-2" d="m83.75,126.85c-.46-.04-.75.02-.88-.1-3.19-2.84-6.41-5.66-8.76-9.31-1.07-1.66-3.15-7.27-3.8-9.15-.67-1.93-.5-3.84-.63-5.77-.06-.94.47-2.01-.51-2.81-.13-.1-.18-.43-.12-.6,1.06-2.99.62-6.26,1.94-9.25,1.32-2.97,2.85-5.76,4.7-8.45,2-2.92,4.49-5.18,7.49-6.97,1.08-.64,2.1-1.37,3.19-2,2.46-1.42,5.23-1.94,7.93-2.68,1.87-.52,3.92-.35,5.71-.81,2.95-.76,5.69.79,8.52.13,1.49.84,3.27.69,4.79,1.36,1.89.83,3.91,1.52,5.56,2.71,4.64,3.36,9.07,7.03,11.3,12.56,1.12,2.79,2.9,5.43,2.52,8.67,1.04,1.82.71,3.82.64,5.75-.12,3.71-1.15,7.2-2.39,10.72-1.77,5.02-4.88,8.94-8.62,12.51-.6.57-1.43.91-2.07,1.45-1.83,1.54-3.31,3.38-4.32,6.14,0,3.03-.06,6.59.03,10.16.03,1.25.5,2.49.62,3.75.11,1.22.08,2.46.01,3.68-.11,1.93.25,3.85-.55,5.8-.37.89-.2,2.23.27,3.48.54,1.46.61,3.38.11,4.84-.37,1.09-.46,2.1-.46,3.14-.04,6.48.01,12.95-.05,19.43-.01,1.24-.35,2.49-.51,3.56-2.66,1.48-5.31,1.46-7.96,1.81-4.27.57-8.52.57-12.79.53-1.25-.01-2.66.59-3.77-.56-.99.95-2.23.48-3.42.6-.9-.94-1.82-1.91-3-3.14.52-2.3-1.13-4.71-.69-7.35-.87-1.25-.95-2.77-.61-4.06,1.07-4.14.48-8.31.59-12.47.11-4.13,0-8.26.03-12.4,0-1.35-.3-2.75.5-4.01-.98-1.16-.77-2.68-.43-3.78,1.11-3.59.21-7.23.62-10.8.24-2.14-.85-4.03-.73-6.31Z"/>
      <path class="cls-2" d="m97.67,245.48c-5.82.36-10.06-2.51-12.76-7.39-1.6-2.88-1.57-6.18-.14-9.46,1.32-3.05,3.82-4.95,5.99-7.2.87-.91,2.5-.39,3.4-1.44,2.99.08,5.99-.38,8.82,1.29,2.31,1.37,4.29,3,5.57,5.34,1.21,2.21,2.36,4.51,2.03,7.17-.32,2.5-1.03,4.9-2.41,7.02-1.59,2.44-4.32,3.4-6.77,4.58-1.01.49-2.43.09-3.73.09Z"/>
      <path class="cls-2" d="m99.89,44.66c-1.86-1.2-4.67-1.76-6.07-4.27-.91-1.63-2.23-3.19-2.57-4.93-.44-2.25-.65-4.84.04-6.95,1.69-5.12,5.12-10.04,15.18-9.07,1.29.58,2.42,1.09,3.54,1.6,7.6,6.03,7.7,10.28,5.58,15.66-2.63,6.68-8.12,9.51-15.7,7.96Z"/>
      <path class="cls-2" d="m87.35,254.81c1.05.36,2.09.73,3.14,1.08,1.5.51,2.95,1.13,4.62,1.03.67-.04,1.36.53,2.07.59.64.05,1.49-.54,1.91-.29.76.46,1.07.13,1.69-.16.54-.26,1.35.04,2.42.13-.14.12.06-.12.32-.26.17-.09.43-.04.74-.06.25.29.53.63.84,1-.05.07-.13.3-.27.34-3.64,1.12-7.4.53-11.16.71-1.72-1.96-4.82-1.64-6.32-4.11Z"/>
      <path class="cls-2" d="m93.69,7.08c2.82-1.42,5.66-.96,8.49-1.06.44-.41.91-.86,1.38-1.31.93,1.22,2.27.36,3.53.78.26.38.61.89.97,1.42-.31.18-.49.37-.6.34-.49-.15-.95-.49-1.44-.52-1.21-.08-2.44,0-3.66-.03-2.35-.04-4.68-.12-6.82,1.23-.47.3-1.51.54-1.85-.85Z"/>
      <path class="cls-2" d="m109.92,256.77c-.73.04-1.47-.01-2.18.14-.54.11-1.03.48-1.84.35.78-.33,1.56-.66,2.33-.99-.25-.17-.5-.34-.75-.5.83.22,1.66.44,2.48.65,0,.11-.03.23-.04.35Z"/>
      <path class="cls-2" d="m114.04,9.22c.62.31,1.27.63,2.08,1.04-.8.43-1.38.73-2.08,1.1v-2.14Z"/>
      <path class="cls-2" d="m84.15,252.79c-1.84.28-2.25-.91-3.38-1.94,1.92-.04,2.29,1.21,3.38,1.94Z"/>
      <path class="cls-2" d="m91.73,8.67v2.41c-.66-.84-1.04-1.32-1.62-2.07.77-.16,1.23-.26,1.62-.34Z"/>
      <path class="cls-2" d="m88.11,12.31c.48-.97.79-1.61,1.17-2.37.45.41.75.69,1.2,1.11-.7.38-1.35.72-2.37,1.26Z"/>
      <path class="cls-2" d="m113.92,9.39h-.85c-.45-.26-.81-.47-1.16-.67.04-.82.63-.83,1.08-.54.41.26.63.8.93,1.21Z"/>
      <path class="cls-2" d="m85.78,254.2c-1.04.11-1.75-.28-2.01-1.34,1.04-.11,1.74.28,2.01,1.34Z"/>
      <path class="cls-2" d="m123.14,18.11v2.68h-.34v-2.68h.34Z"/>
      <path class="cls-2" d="m128.96,69.72c.45.62,1.48.83.76,2.07-.46-.62-1.49-.82-.76-2.07Z"/>
      <path class="cls-2" d="m95.13,47.59c.43.03.83.06,1.27.1.03.4.06.69.1,1.14-.41.04-.77.08-1.26.14-.04-.54-.07-.95-.11-1.38Z"/>
      <path class="cls-2" d="m121.91,17.03v.96h-1.15c-.08-.11-.16-.21-.24-.32.46-.21.92-.42,1.39-.64Z"/>
      <path class="cls-2" d="m91.79,8.2c.43-.04.85-.07,1.28-.11.02.14.04.29.06.43-.44.09-.87.17-1.31.26,0-.19-.02-.39-.03-.58Z"/>
      <path class="cls-2" d="m105.21,8.89h1.34v.34h-1.34v-.34Z"/>
      <path class="cls-2" d="m109.88,255.69c.43-.04.86-.07,1.28-.11.02.14.04.29.05.43-.44.09-.87.17-1.31.26,0-.2-.01-.39-.02-.58Z"/>
      <path class="cls-2" d="m118.06,13.98v-1.11c.11-.02.21-.03.32-.05.09.36.17.73.26,1.09-.2.02-.39.05-.58.07Z"/>
      <path class="cls-2" d="m96.39,250.73h-1.11c-.02-.11-.03-.21-.05-.32.36-.09.73-.17,1.09-.26.02.19.05.38.07.58Z"/>
      <path class="cls-2" d="m124.81,26.83v-1.34h.34v1.34h-.34Z"/>
      <path class="cls-2" d="m109.78,7.26h-1.11c-.02-.11-.03-.22-.05-.33.38-.08.75-.16,1.13-.25,0,.2.02.39.03.58Z"/>
      <path class="cls-2" d="m93.32,46.28v-1.34h.34v1.34h-.34Z"/>
      <path class="cls-2" d="m94.64,47.64c-.04-.43-.07-.85-.11-1.28.14-.02.29-.04.43-.06.09.44.17.87.26,1.31-.2,0-.39.02-.58.03Z"/>
      <path class="cls-2" d="m106.44,48.85h-1.11c-.02-.11-.03-.21-.05-.32.36-.09.73-.17,1.09-.26.03.19.05.38.07.58Z"/>
      <path class="cls-2" d="m111.24,47.4h-.67v-.22h.67v.22Z"/>
      <path class="cls-2" d="m102.53,49.19h.67v.22h-.67v-.22Z"/>
      <path class="cls-2" d="m91.81,43.82h.67v.22h-.67v-.22Z"/>
      <path class="cls-2" d="m115.71,62.38v.67h-.22v-.67c.07,0,.14,0,.22,0Z"/>
      <path class="cls-2" d="m117.94,63.27h.67v.22h-.67v-.22Z"/>
      <path class="cls-2" d="m90.69,42.93v-.67h.22v.67h-.22Z"/>
      <path class="cls-2" d="m87.56,37.56v.67h-.22v-.67h.22Z"/>
      <path class="cls-2" d="m135.37,76.91h-.67v-.22h.67v.22Z"/>
      <path class="cls-2" d="m141.4,93h-.67v-.22h.67v.22Z"/>
      <path class="cls-2" d="m141.84,107.31v.67h-.22v-.67h.22Z"/>
      <path class="cls-2" d="m34.18,32.42h.67v.22h-.67v-.22Z"/>
      <path class="cls-2" d="m127.1,199.87v.67h-.22v-.67h.22Z"/>
      <path class="cls-2" d="m82.65,26.83v-.67h.22v.67h-.22Z"/>
      <path class="cls-2" d="m122.41,221.33v.67h-.22v-.67h.22Z"/>
      <path class="cls-2" d="m79.08,243.02h.67v.22h-.67v-.22Z"/>
      <path class="cls-2" d="m86.22,244.13v.67h-.22v-.67h.22Z"/>
      <path class="cls-2" d="m81.53,246.15v.67h-.22v-.67h.22Z"/>
      <path class="cls-2" d="m86.22,246.15v.67h-.22v-.67h.22Z"/>
      <path class="cls-2" d="m107.22,247.26h-.67v-.22h.67v.22Z"/>
      <path class="cls-2" d="m85.11,247.94h-.67v-.22h.67v.22Z"/>
      <path class="cls-2" d="m90.02,248.16v-.67h.22v.67h-.22Z"/>
      <path class="cls-2" d="m103.42,248.83v-.67h.22v.67h-.22Z"/>
      <path class="cls-2" d="m86.22,248.83v.67h-.22v-.67h.22Z"/>
      <path class="cls-2" d="m94.49,249.05h.67v.22h-.67v-.22Z"/>
      <path class="cls-2" d="m101.19,249.05h.67v.22h-.67v-.22Z"/>
      <path class="cls-2" d="m124.42,22.81v.67h-.22v-.67h.22Z"/>
      <path class="cls-2" d="m120.18,15.43v-.67h.22v.67h-.22Z"/>
      <path class="cls-2" d="m115.04,252.18v.67h-.22v-.67h.22Z"/>
      <path class="cls-2" d="m88.53,12.13c-.16.18-.31.37-.47.55l-.21-.21c.18-.16.37-.31.55-.47.04.05.08.09.13.13Z"/>
      <path class="cls-2" d="m85.84,254.12c.18.16.37.31.55.47-.07.07-.14.14-.21.21-.16-.18-.31-.37-.47-.55.04-.04.08-.08.13-.13Z"/>
      <path class="cls-2" d="m117.27,11.18h-.67v-.22h.67v.22Z"/>
      <path class="cls-2" d="m109.01,9.39v.67h-.22v-.67h.22Z"/>
      <path class="cls-2" d="m111.98,8.78c-.16.18-.31.37-.47.55-.07-.07-.14-.14-.21-.21.18-.16.37-.31.55-.47.04.04.09.09.13.13Z"/>
      <path class="cls-2" d="m94.27,49.63v.67h-.22v-.67h.22Z"/>
    </g>
  </g>
</svg>