<?xml version="1.0" encoding="UTF-8"?>
<svg id="Layer_2" data-name="Layer 2" xmlns="http://www.w3.org/2000/svg" viewBox="0 0 248.64 407.95">
  <defs>
    <style>
      .cls-1 {
        stroke-width: 0px;
      }
    </style>
  </defs>
  <g id="Layer_1-2" data-name="Layer 1">
    <g>
      <path class="cls-1" d="m235.81,313.51c.74.65,1.21.98,1.59,1.4.51.56.83,1.37,1.44,1.72.79.46,1.68.71,2.35,1.41.54.56.8,1.35,1.55,1.73.17.09.15.56.31.62,2.15.85,2.96,2.72,3.36,4.71.17.85,1.81.42,1.13,1.63.85.84.12,2.22,1.07,3.02-.02,2.94.28,5.91-.78,8.75-.37,1-1.48,1.54-1.69,2.73-.17.95-.66,1.86-1.1,2.73-.65,1.26-1.08,2.57-2.34,3.58-1.06.85-1.74,2.13-3.01,2.97-1.56,1.04-2.67,2.72-4.35,3.71-.37.22-.62.76-.99.82-1.59.29-2.75,1.5-4.32,1.84-1.52.33-2.97.98-4.49,1.38-2.21.58-4.42,1.23-6.76,1.08-1.53.95-3.3.74-4.83.44-1.9-.37-3.77-.36-5.66-.46-.65-.04-1.38-.18-1.89-.54-.88-.63-1.81-.45-2.73-.51-2.14-1.29-4.56-1.87-6.9-2.65-.24-.08-.58-.1-.79,0-1.73.89-3.62.23-5.38.56-1.77.33-3.62.76-5.18,1.62-1.82,1.01-3.67,1.86-5.6,2.61-.38.15-.68.5-1.04.7-.58.32-1.15.77-1.77.85-2.22.3-4.03,1.45-5.88,2.55-.22.13-.36.51-.57.54-2.11.29-3.48,1.53-4.46,3.33-.12.23-.61.28-.7.5-.25.61-.52,1.26-.53,1.9-.04,1.84-.54,3.26-2.41,4.08-.58.25-1.18.86-1.4,1.78-.48,2.07-.59,2.04-.06,3.66-.13.32-.31.66-.41,1.02-.32,1.12-.63,2.07-1.91,2.7-1.08.53-1.85,1.66-3.16,2.06-.5.15-.78,1.04-1.15,1.6-.6.91-1.02,2.04-1.83,2.67-.95.75-1.37,1.72-1.9,2.67-.52.93-.92,1.93-1.39,2.93-.31.16-.93.29-1,.56-.38,1.43-1.75,1.77-2.67,2.57-1.08.93-2.34,1.64-3.49,2.48-1.09.79-2.3,1.4-3.41,2.15-1.01.67-2.09,1.33-3.14,2.01-.28.18-.61.55-.84.5-1.66-.37-2.77,1.19-4.37,1.14-.99-.03-1.98.34-2.98.49-3.24.47-6.17-.89-9.19-1.66-1.33-.34-2.63-.9-3.87-1.61-1.22-.7-2.46-1.35-3.68-2.07-1.26-.75-2.7-1.2-4.56-1.99-.62-.49-1.58-1.6-2.8-2.13-1.34-.58-1.81-1.66-2.44-2.73-.64-1.07-1.01-2.22-2.04-3.17-.87-.8-1.05-2.38-2.01-3.38-.57-.6-.93-1.4-1.51-1.98-.59-.59-1.36-1-2.02-1.53-1.07-.86-2.11-1.76-3.18-2.63-.38-.31-.8-.58-1.49-1.07-1.91-4.12-3.12-8.74-2.63-13.66-.6-.34-1.1-.63-1.3-1.34-.49-1.79-2.06-2.4-3.6-2.73-1.64-.35-3.24-.68-4.78-1.37-1.43-.64-3.03-.78-4.54-1.25-1.91-.6-3.58-1.68-5.49-2.23-.64-.18-1.28-.5-1.91-.5-.78.01-1-.63-1.5-.94-1.84-1.14-3.69-2.25-5.69-3.45-1.16.1-2.5.05-3.75.36-1.18.29-2.25.97-3.75,1.65-.92,1.68-3.38,1.6-5.04,2.75-1.37.22-2.7.49-4.04.65-1.26.16-2.51-.01-3.81.44-.99.34-2.28.2-3.52-.33-1.13-.48-2.62-.1-3.68-.1-1.54-.6-2.84-1.13-4.15-1.59-.7-.25-1.47-.3-2.17-.56-1.89-.69-3.48-1.93-5.16-3-.79-.5-1.42-1.28-2.26-1.64-1.02-.44-1.62-1.05-2.07-2.07-.36-.83-.95-1.89-1.69-2.16-1.07-.39-1.12-1.39-1.78-1.99-1.07-.96-1.5-2.36-1.95-3.89-1.66-.91-2.33-2.23-3.15-5.39-.24-.06-.48-.13-.72-.19-.07-.15-.21-.31-.19-.45.2-1.33-.35-2.51-.78-3.68-.41-1.12-.4-2.16-.05-3.24.1-.31.31-.64.28-.94-.21-2.01.34-3.92.66-5.79.35-.25.77-.41.94-.71.68-1.23,1.14-2.59,2.15-3.65.88-.93,1.64-1.97,2.53-2.9.8-.84,1.19-1.81,1.3-2.93.31-.12.62-.23.92-.35v-5.58c-.3-.07-.54-.12-.89-.2v-4.6c.29-.07.53-.14.86-.23v-2.99c-.33-.09-.58-.15-.89-.23v-8.77c.24-.09.55-.2.93-.33v-1.27c-.3-.11-.6-.23-.96-.36v-16.69c.35-.13.66-.25,1.21-.46-.48-.16-.76-.25-1.15-.39v-1.89c.29-.08.53-.14.86-.23v-2.39c-.2-.07-.51-.17-.9-.31V98.64c.23-.08.54-.19.92-.32v-2.37c-.2-.05-.43-.12-.76-.21-.46-2.09-1.63-3.71-3.65-4.77-.75-.4-1.27-1.22-1.92-1.82-.43-.39-.91-.72-1.62-1.27-.69-3.32-2.81-6.62-2.67-10.62-.48-.08-.96-.16-1.45-.24q-.21-3.34.69-5.23h.52c.09-.15.24-.29.25-.44.16-2,1.73-6.33,2.79-7.37.47-.46,1.29-.65,1.61-1.17.97-1.56,2.49-2.51,3.8-3.69.92-.83,1.44-1.97,2.55-2.68,1.1-.7,1.92-1.83,2.86-2.77h1.07l1.93-1.93c.65-.21,1.25-.24,1.57-.55,1.12-1.07,2.53-1.62,3.89-2.23,3.17-1.41,6.47-2.67,9.85-3.19,3.24-.49,6.63-.33,9.9.43.39.09.86.25,1.1.54,1.1,1.34,2.88,1.31,4.17,2.16,1.39.91,3.01,1.04,4.47,1.42,1.44.37,3.24.61,4.84-.35.75-.44,1.78-.39,2.68-.58.24-.05.5-.12.68-.27,1.92-1.55,4.4-1.91,6.48-3.01,1.93-1.02,4.1-1.29,5.95-2.42.4-.25,1.01-.15,1.81-.24.83-.82,1.89-1.65,3.34-2.14,1.53-.52,3.18-1.52,4.1-2.8,1.07-1.48,1.94-3.33,1.81-5.36,0-.18,0-.36,0-.61.28-.1.59-.2.93-.31.4-2.89,1.6-5.52,3-8.27.16-.08.64-.18.88-.47.76-.91,1.39-1.92,2.14-2.83.66-.8,1.4-1.53,2.13-2.28.9-.94,1.52-2.11,2.64-2.89.67-.46,1.04-1.35,1.64-1.95.65-.64,1.49-1.1,2.11-1.76,1.66-1.78,3.56-3.27,5.64-4.46,1.41-.81,2.73-1.87,4.42-2.22.7-.15,1.29-.72,1.97-1.02,2.55-1.15,5.14-2.2,7.64-3.44.8-.4,1.53-.18,2.28-.29.82-.12,1.65-.19,3.04-.35-.05-.01.51.34,1.05.31,2.02-.1,3.81.66,5.53,1.49,2.89,1.39,6.13,2.1,8.62,4.3,1.75-.23,2.3,1.58,3.64,2.15,1.21.51,2.15,1.68,3.21,2.56s2.14,1.73,3.17,2.65c.92.82,1.52,1.93,2.6,2.62,1.09.69,1.58,2.07,2.98,2.49.42.13.63.94.96,1.42.49.69.87,1.72,1.54,1.96.96.36,1.02,1.24,1.61,1.78.62.55,1.07,1.31,1.52,2.02.3.48.46,1.05.61,1.43,2.52,2.03,2.45,5,3.26,7.71.17.07.48.18.73.28.23,1.1.44,2.17.68,3.23.22.97.47,1.94.74,3.02.85.5,1.73,1.22,2.73,1.55,1.09.36,1.84,1.31,2.81,1.57,1.06.29,2.19.23,3.02,1.11,1.24-.42,1.69.99,2.72,1.18.95.17,1.9.6,2.72,1.12.78.49,1.53,1.13,2.19,1.73,1.84,1.64,4.28,1.78,6.28,2.95,1.9-.22,3.85.44,5.71-.38.08-.03.15-.15.2-.14,2.05.42,3.8-.73,5.69-1.11,1.2-.24,2.4-.66,3.48-1.23,2.01-1.06,4.12-1.46,6.36-1.41,1.51.03,3.04.15,4.53-.03,2.3-.27,4.46.54,6.72.62.93.03,1.86.62,2.76,1.02,2.33,1.03,4.86,1.6,6.96,3.17,1.19.89,1.76,2.2,2.68,3.26.42.48.91.9,1.55,1.52.32,2.03,1.4,4.08,2.73,5.99.59.85,1.73,1.07,2.23,2.24.3.72.74,1.82,1.89,2.16.42.12.84.89.93,1.42.37,2.15,1.38,4.15,1.36,6.39-.01,1.4-.71,2.55-1.08,3.83-.36,1.24-.69,2.42-1.91,3.19-.41.26-.46,1.04-.77,1.51-.79,1.2-1.11,2.76-2.61,3.41-.15.07-.35.23-.37.37-.18,1.7-1.49,2.95-1.82,4.59-.19.96-.47,1.91-.69,2.79-.34.03-.51.04-.68.06-.07.07-.19.14-.18.19.31,1.58-1.43,3.05-.22,4.69.18.24.15.65.17.99.03.53.01,1.07.01,1.6-.02,70.15-.02,140.27-.02,210.17ZM167.47,62.31l.1-.1c-.12-.15-.25-.29-.37-.44-.06.06-.11.11-.17.17.15.12.29.25.53.26-.03.03-.07.07-.09.11.12.14.24.28.36.43.06-.06.11-.11.17-.17-.15-.13-.29-.25-.53-.26Zm-88,2.08l-.53.53c-1.17-.08-1.67.74-2.13,1.6-.18.18-.36.36-.48.58l-.1-.1c-.15.12-.29.25-.44.37l.17.17c.12-.15.25-.29.32-.48h.53c.1.19.21.39.36.68.85-.49,1.61-.93,2.19-1.27-.17-.64-.3-1.09-.42-1.54.18-.18.36-.36.48-.58l.1.1c.15-.12.29-.25.44-.37l-.17-.17c-.13.14-.25.28-.32.48Zm88.1,3.78l-.1-.1c-.15.12-.29.25-.44.37.06.06.11.11.17.17.12-.15.25-.29.32-.48.18,0,.36,0,.48-.02.08.38.14.73.11.56.24-.05.66-.14,1.07-.22-.06-.09-.12-.18-.18-.27-.31-.02-.63-.05-.95-.05-.06-.15-.12-.29-.18-.44-.12.13-.24.28-.3.48Zm-93.91,1.06l-.1-.1c-.15.12-.29.25-.44.37l.17.17c.12-.15.25-.29.32-.48l.51-.51c.34-.03.66-.05,1.1-.09-.04-.39-.07-.68-.11-1-.36.03-.59.05-.91.08-.03.35-.05.67-.06.99-.18.17-.36.35-.48.57Zm-14.51,31.48l.1-.1c-.12-.15-.25-.29-.37-.44l-.17.17c.15.12.29.25.53.26-.03.03-.06.07-.09.11.12.14.24.28.36.43l.17-.17c-.14-.12-.29-.25-.53-.26Zm55.02,47.3c0-.15-.02-.31-.02-.46-.35.07-.7.14-1.04.2,0,.11.03.23.04.34.34-.03.68-.06.99-.92,0,.15.02.31.02.46.35-.07.7-.14,1.04-.2,0-.11-.03-.23-.04-.34-.34.03-.68.06-.99.92Zm-5.35,1.72c-.4.08-1.02-.26-1.01.58l-.1-.1c-.15.12-.29.25-.44.37l.17.17c.12-.15.25-.29.32-.48.4-.08,1.02.26,1.01-.58l.1.1c.15-.12.29-.25.44-.37l-.17-.17c-.13.14-.25.28-.32.48Zm2.67,45.33c.06.15.12.29.18.44.12-.15.24-.29.36-.44.39.29.78.57,1.13.83-.24.63-.53,1.08-.58,1.55-.13,1.18-.1,2.33-.46,3.54-.42,1.42-.25,3.02-.54,4.57-.27,1.49-.34,3.04-.59,4.57-.36,2.2-.49,4.43-.72,6.68-.26.09-.57.21-.89.32-.12,1.65.08,3.26-.49,4.88-.44,1.24-.02,2.66-.5,4.05-.42,1.22-.3,2.66-.57,4.02-.45,2.27-.5,4.61-.72,6.97-.25.1-.55.22-.82.33-.22,2.33-.44,4.64-.66,6.96-.02.25,0,.59-.15.73-.74.67-.22,1.51-.39,2.25-.18.82-.43,1.62-.52,2.45-.15,1.35.31,2.78-.55,4.04.42,2.97-.9,5.84-.49,8.69.3.35.53.62.85.98.46-.17.91-.48,1.38-.5.53-.02,1.07.37,1.59.34,1.97-.12,3.94-.47,5.91-.48,9.33-.05,18.67-.02,28-.03.22,0,.44-.13.84-.27-.5-.18-.81-.29-1.19-.42-.24-2.01-.06-4.05-.49-6.12-.47-2.24-.08-4.64-.58-6.97-.39-1.83.12-3.75-.51-5.66-.42-1.28-.01-2.82-.1-4.24-.09-1.35-.4-2.69-.49-4.05-.09-1.24-.01-2.49-.03-3.73,0-.15-.11-.31-.17-.46-.24-.06-.48-.13-.86-.22-.16-2.71.05-5.46-.49-8.22-.4-2-.12-4.1-.54-6.18-.43-2.18.3-4.52-.6-6.7.41-3.6-.76-7.12-.55-10.71.04-.7-.2-1.41-.29-2.03.18-.42.35-.8.46-1.07.52-.27.95-.52,1.4-.71.91-.38,1.89-.62,2.74-1.1.95-.53,1.85-1.18,2.67-1.91.72-.63,1.77-.91,2.11-2.01.07-.21.76-.21,1.15-.34.15-.05.29-.16.53-.3v-1.17c.4-.13.71-.24.78-.26.25-.66.36-1.17.62-1.58.67-1.06,1.85-1.81,2.23-3.03.72-2.29,1.27-4.63,1.89-6.94.22-.05.47-.1.75-.16v-7.16c-.33-.13-.63-.26-1.03-.43.37-2.76-.95-5.18-1.83-7.69-.13-.37,0-1.34-1.04-1.2-.24.03-.65-.54-.82-.91-1.42-2.97-3.7-4.97-6.56-6.59-1.23-.7-2.67-1.08-3.71-1.98-1.55-1.35-3.61-1.15-5.28-2.13-1.02-.59-2.47-.53-3.73-.58-1.37-.06-2.74,0-4.06-.53-.32-.13-.81.14-1.21.23-.41.09-.82.29-1.22.26-3.12-.21-6.01.79-8.93,1.63-1.26.36-2.71.59-3.67,1.37-1.85,1.5-4.43,1.94-5.8,4.08-.05.07-.11.16-.19.18-1.66.5-2.18,1.95-2.81,3.33-.37.82-.69,1.78-1.86,1.83-.06.44.03.97-.19,1.26-.88,1.18-1.29,2.56-1.43,3.93-.16,1.53-.8,2.97-.62,4.58.18,1.67.08,3.37.03,5.06-.03,1.21.1,2.38.54,3.51.56,1.46.8,3.12,1.68,4.35,1.02,1.43,1.87,2.96,2.91,4.36.44.59,1.17.95,1.83,1.46,0,.14,0,.41,0,1.09,0-.15-.02-.31-.02-.46-.35.07-.7.14-1.04.2,0,.11.03.23.04.34.34-.03.68-.06,1.01-.5.53.53,1.07,1.07,1.66,1.65l-.1-.1c-.15.12-.29.25-.44.37.06.06.11.11.17.17.12-.15.25-.29.32-.48,1.46.12,2.51.86,3.26,2.18l-.1-.1c-.15.12-.29.25-.44.37.06.06.11.11.17.17.12-.15.25-.29.32-.48.91-.04,1.59.37,2.13,1.07-.52.05-1.03.1-1.55.16,0,.13.03.25.04.38h1.51c0,.84.6.49,1.01.57ZM33.06,68c0-.15-.02-.31-.02-.46-.35.07-.7.14-1.04.2.02.11.03.23.05.34.34-.03.68-.06.99-.92,0,.15.02.31.02.46.35-.07.7-.14,1.04-.2-.02-.11-.03-.23-.05-.34-.33.03-.67.06-.99.92Zm92.79,328.74l.1-.1c-.12-.15-.25-.29-.37-.44l-.17.17c.15.12.29.25.49.3-.09.09-.18.19-.27.28.38.24.76.49,1.26.81.02-.36.04-.64.07-1.02-.43-.03-.75-.05-1.11,0Zm-70.87-78.52l-.1.1c.12.15.25.29.37.44.06-.06.11-.11.17-.17-.15-.12-.29-.25-.57-.38q-.62-.5-1.5,0c.6,0,1.09,0,1.63.01Zm21.24,16.65l.1-.1c-.12-.15-.25-.29-.37-.44-.06.06-.11.11-.17.17.15.12.29.25.75.05-.09.09-.19.18-.28.27.02.31.05.63.08,1.05.37-.02.66-.04,1.02-.07-.32-.5-.57-.88-1.13-.93Zm5.06-270.35c-.8.18-1.51.41-1.07,1.64.44-.67.75-1.16.81-1.82l.1.1c.15-.12.29-.25.44-.37l-.17-.17c-.12.15-.25.29-.11.62Zm126.25-12.26v.24h2.09v-.24c-.7,0-1.39,0-2.08.81-.01-.15-.02-.31-.03-.46-.35.07-.69.14-1.04.2.02.11.03.23.05.34.35-.03.69-.06,1.01-.89Zm-3.76,14.32c.56-.07,1.08-.14,1.87-.24-.75-.36-1.21-.58-1.78-.86-.03.4-.06.71-.05,1.45-.01-.15-.02-.31-.02-.46-.35.07-.7.14-1.04.2.01.11.03.23.04.34.34-.02.68-.05.98-.43Zm-10.65,50.63c.09-.09.18-.19.27-.28-.38-.24-.76-.49-1.26-.81-.02.36-.04.64-.07,1.02.43.03.74.05.5.12,1.2.4,1.92.64,2.72.9-.05-.38-.08-.61-.12-.9-.7-.01-1.37-.01-2.04-.05ZM50.65,347.86c.58.66,1.18,1.18,2.1.61-.52-.83-1.16-1.24-2.07.09,0-.15-.02-.31-.02-.46-.35.07-.7.14-1.04.2.02.11.03.23.05.34.32-.02.66-.05.98-.78ZM153.33,36.26c.39-.26.88-.57,1.68-1.09h-2.5c.28.38.48.63-.03,2.27.42-.39.62-.49.61-.57-.04-.25-.15-.5-.23-.75-.09.32-.18.64.47.14Zm14.18,29.73c.76.75,1.39,1.71,2.75,1.67q.62.5,1.5,0c-.6,0-1.09,0-1.58-.07.09-1.11,1.3-.08,1.57-.82-.43-.25-.83-.57-1.29-.74-.41-.15-.87-.15-1.6-.25.64-.27.96-.41,1.48-.64q-4.31-.96-6.37-.17h4.12c-.26.45-.42.73-.57,1.42-.01-.15-.02-.31-.02-.46-.35.07-.7.14-1.04.2.01.11.03.23.04.34.35,0,.69-.04,1.01-.48Zm-39.17,250.6c.36.41.47.61.55.6.26-.04.5-.15.75-.23-.32-.09-.64-.18-.03.21,4.08,4.5,4.02,4.8,4.51,7.44.3.08.6.17.98.27v2.97c.37-2.17.89-4.35-.3-6.31-.35-.08-.59-.13-.81-.18-.06-.5-.11-.91-.15-1.3-1.29-1.19-2.28-2.72-5.5-3.47Zm3.22-245.03c-1.11-.32-1.9-.6-2.71-.76-.74-.15-1.46.07-2.22-.47-.47-.33-1.54-.28-2.33.13,1.21.51,2.23,1.08,3.33,1.36,2.42.62,4.23,2.25,6.27,3.49-.32,1.02,1,.58,1.05,1.11.16,1.76,1.57,3.21,1.13,5.15-.24,1.05.11,2.22-.55,3.24-.13.2.07.6.15,1.22.58-.92.99-1.56,1.42-2.24,0-1.8.24-3.7-.07-5.5-.3-1.76-1.25-3.38-2.5-4.64-1.02-.72-2.05-1.44-2.97-2.09Zm67.89-16.16c-1.73-.88-1.92-.85-2.98.3.12.17.24.33.43.6-.86.08-1.52.14-2.23.2.07.39.11.63.11.62,1.07-.07,2.06-.07,3.02-.22s1.89-.45,2.7-.66c.12-.42.18-.66.24-.86.71-.08,1.33-.14,1.96-.21-1.09-.38-2.17-.62-3.25.23ZM121.88,3.02c-.69.88.2,1.17.51,1.53h2.4v-.78c-.92-.58-2.16.36-2.91-.75Zm5.99-.03c-.68.95-1.05,1.46-1.5,2.1h1.69c-.05-.58-.1-1.05-.19-2.1ZM42.39,132.21c.13.11.26.22.4.33l-1.26.33c.06.08.13.15.19.23h1.96v-.89h-1.29Zm140.57-16.62c.47,0,.64,0,.35,0,.65-.35,1-.54,1.49-.79-.67-.42-1.08-.67-1.71-1.06-.05.72-.08,1.19-.13,1.85Zm-80.96,266.49q2.14.15,3.04-.75c-1.05-.5-1.72.36-3.04.75ZM119.34,49.66c.16.84.21,1.08.24,1.27h2.02c.03-.11.05-.22.08-.33-.63-.26-1.27-.51-2.34-.94Zm5.35,348v-2.05c-.08-.01-.16-.01-.25-.02-.1.55-.21,1.09-.28,1.48-.42.16-.66.25-.91.34.02.08.04.16.06.25.43,0,.84,0,1.38,0Zm-2.49-1.72c.37-.17.74-.34,1.11-.51-.06-.09-.13-.18-.19-.27h-2.05c.06.39.1.69.16,1.08.3-.28.48-.44.69-.64.16.19.32.38.28.34Zm6.15-285.98c-1.47-.58-2.12.24-3.18.61,1.28.61,1.96-.26,3.18-.61Zm-62.79-53.49h-1.51v.89h1.51v-.89Zm2.8-.91c-.11-.28-.23-.55-.4-.98-.76.48-1.44.75-1.23,1.77.59-.29,1.07-.52,1.63-.79Zm124.31,52.66c.83.09,1.73.95,2.63,0h-2.63Zm-138.23-10.29c-.64.09-1.11.16-1.92.28.75.46,1.15.7,1.72,1.06.07-.51.12-.81.2-1.34ZM132.19,14.69c-.82-.37-1.68-.6-2.48,0h2.48Zm41.77,53.91c-.64.09-1.11.16-1.92.28.75.46,1.15.7,1.72,1.06.08-.52.12-.81.2-1.34Zm-118.59,235.19c-.83-.29-1.69-.68-3.11,0h3.11Zm-15.7,49.41c.57-.43.98-.73,1.64-1.23h-1.91c.09.42.15.71.27,1.23Zm170.69-25.19h-1.97c.57.46.94.76,1.48,1.19.19-.47.3-.75.49-1.19ZM51.67,119.49c.1.14.2.28.3.42.27-.11.57-.18.82-.34.21-.13.37-.36.55-.54-.1-.11-.19-.22-.29-.33-.46.27-.92.53-1.38.79Zm12.34,227.1c-.05,1.19.39,1.2,1.1.79-.05-.28-.1-.51-.15-.79h-.95Zm128.66-47.42c.01.15.03.3.04.46.64-.04,1.29-.09,1.93-.13-.01-.11-.01-.22-.02-.33h-1.95Zm-130.74,47.95c.53-.08,1-.14,1.79-.26-.83-.34-1.3-.53-1.84-.75.02.34.03.58.05,1.01Zm59.6,47.34c0-.15-.01-.31-.01-.46-.65.04-1.31.09-1.96.13.01.11.01.22.02.33h1.95ZM191.53,115.99v-.27h-2.13v.27h2.13ZM35.58,76.09c.05-.25.1-.54.21-1.09-.66.09-1.14.15-1.85.25.69.36,1.12.58,1.64.84Zm106.86-51.84v-.27h-2.13v.27h2.13Zm4.88,16.23c.01.15.03.3.04.46.64-.04,1.29-.09,1.93-.13-.01-.11-.01-.22-.02-.33h-1.95Zm56.39,229.7c-.01-.15-.02-.31-.03-.46-.65.04-1.3.09-1.95.13.01.11.02.22.02.33h1.96Zm-123.39,54.49c.57-.94-.21-1.14-.63-1.59-.57.94.22,1.14.63,1.59Zm-43.6,3.09c0-.11-.03-.22-.04-.33h-1.54c.08.41.14.7.21,1.06.29-.27.45-.49.67-.61.2-.09.47-.08.7-.12Zm84.81-182.36c.11.57.15.81.22,1.14.53-.03,1-.06,1.78-.11-.79-.4-1.25-.64-2-1.03Zm-61.8-36.88h2c-.92-.4-1.43-.62-2-.88v.88Zm75.7,39.03c-.53.08-1,.14-1.79.26.83.34,1.3.53,1.84.75-.02-.34-.03-.57-.05-1.01Zm8.51-135.53c-.96-.43-1.44-.65-1.99-.9v.9h1.99Zm71.06,46.1v.27h1.6v-.27h-1.6Zm-86.52,88.31c-.02-.16-.03-.31-.05-.47-.47.07-.93.13-1.4.2.01.09.02.18.03.27h1.42Zm-70.35-32.04v-.27h-1.6v.27h1.6Zm11.89,1.52q.81.17.7-1.13c-.33.53-.53.86-.7,1.13Zm-29.05,211.34c-.02-.16-.03-.31-.05-.47-.47.07-.93.13-1.4.2,0,.09.02.18.03.27h1.42Zm128.24,7.65c.01.16.02.32.03.48.47-.07.94-.13,1.41-.2-.01-.09-.02-.19-.03-.28h-1.41ZM47.99,96.79v-.27h-1.6v.27h1.6Zm27.21,239.49v-.27h-1.6v.27h1.6Zm-27.64,12.49c0,.16,0,.31,0,.47.48-.06.95-.13,1.43-.19,0-.09,0-.19-.02-.28h-1.42Zm158.29-210.34c-.02-.16-.03-.31-.05-.47-.47.07-.93.13-1.4.2.01.09.02.18.03.27h1.42Zm-160.96-5.68c0,.16,0,.31,0,.47.48-.06.96-.13,1.43-.19,0-.09-.02-.19-.02-.28h-1.42ZM141.8,23.22c0-.16-.01-.31-.01-.47-.48.06-.95.13-1.43.19.01.09.01.19.02.28h1.42Zm-39.82,93c0,.16,0,.31,0,.47.48-.06.95-.13,1.43-.19,0-.09,0-.19-.02-.28h-1.42Zm85.61,174.04c1.52.6,1.34-.04,1.15-.58-.32.16-.67.34-1.15.58Zm-25.49-246.77c-.02-.16-.03-.31-.05-.47-.47.07-.93.13-1.4.2.01.09.02.18.03.27h1.42Zm-52.66,251.41c.02.16.03.31.05.47.47-.07.93-.13,1.4-.2,0-.09-.02-.18-.03-.27h-1.42Zm-3.21-182.95c.02.16.03.31.05.47.47-.07.93-.13,1.4-.2,0-.09-.02-.18-.03-.27h-1.42Zm83.08,187.03c-.02-.15-.04-.31-.06-.46-.29.07-.58.14-.87.21.01.08.03.17.04.25h.89Zm-131.05-2.04h.27v-1.07h-.27v1.07Zm-.66,4.93v.27h1.07v-.27h-1.07Zm43.67,85.65c-.02-.15-.04-.31-.06-.46-.29.07-.58.14-.87.21,0,.08.03.17.04.25h.89Zm-33.09-99.2c-.02-.15-.04-.31-.06-.46-.29.07-.58.14-.87.21,0,.08.03.17.04.25h.89Zm103.74-217.53h.27v-1.07h-.27v1.07Zm-38.11-56.1c-.02-.15-.04-.31-.05-.46-.29.07-.58.14-.87.21.01.08.03.17.04.25h.88Zm-68.65,273.63c.15-.02.31-.04.46-.06-.07-.29-.14-.58-.21-.87-.08.01-.17.03-.25.04v.89Zm13.68-3.21c0-.15,0-.31-.02-.46-.3.07-.6.13-.9.2,0,.09.02.18.04.26.29,0,.59,0,.88,0Zm-24.53-.53c-.02-.15-.04-.31-.06-.46-.29.07-.58.14-.87.21,0,.08.03.17.04.25h.89ZM205.4,64.52v.27h1.07v-.27h-1.07ZM44.79,273.6v.27h1.07v-.27h-1.07ZM14.82,88.3c-.02-.15-.04-.31-.06-.46-.29.07-.58.14-.87.21,0,.08.03.17.04.25h.89Zm113.21,228.24v-.27h-1.07v.27h1.07Zm-.98-303.27c.02.15.04.31.06.46.29-.07.58-.14.87-.21-.01-.08-.03-.17-.04-.25h-.89Zm-31.65,22.22c-.02-.15-.04-.31-.06-.46-.29.07-.58.14-.87.21,0,.08.03.17.04.25h.89Zm-47.86,68.46c.02.15.04.31.06.46.29-.07.58-.14.87-.21,0-.08-.03-.17-.04-.25h-.89Zm151.91.88c-.02-.15-.04-.31-.05-.46-.29.07-.58.14-.87.21.01.08.03.17.04.25h.88Zm-146.04,1.25c.02.15.04.31.06.46.29-.07.58-.14.87-.21,0-.08-.03-.17-.04-.25h-.89Zm143.37.89c-.02-.15-.04-.31-.05-.46-.29.07-.58.14-.87.21.01.08.03.17.04.25h.88Zm-141.22.18c0,.15.02.3.03.46.3-.06.59-.13.89-.19,0-.09-.02-.18-.04-.26-.29-.01-.59-.01-.88-.01Zm-11.94,243.57c0-.15,0-.31-.02-.46-.3.07-.6.13-.9.2,0,.09.02.18.04.26.29,0,.59,0,.88,0Zm63.5-157.88c0-.15,0-.31-.02-.46-.3.07-.6.13-.9.2,0,.09.02.18.04.26.29,0,.59,0,.88,0Zm84.5-83.75c.15,0,.31,0,.46-.02-.07-.3-.13-.6-.2-.9-.09,0-.18.02-.26.04,0,.29,0,.59,0,.88Zm-76.48,285.9c-.02-.15-.04-.31-.06-.46-.29.07-.58.14-.87.21,0,.08.03.17.04.25h.89Zm-10.99-242.06h.27v-1.07h-.27v1.07Zm14.89,242.24c.02.15.04.31.06.46.29-.07.58-.14.87-.21-.01-.08-.03-.17-.04-.25h-.89ZM189.83,110.7c-.01-.15-.02-.3-.03-.46-.3.06-.59.13-.89.19.01.09.02.18.04.26.29.01.58.01.88.01ZM34.22,333.3c0,.15,0,.31.02.46.3-.07.6-.13.9-.2,0-.09-.02-.18-.04-.26-.29,0-.59,0-.88,0Zm77.72-184.73c-.02-.15-.04-.31-.06-.46-.29.07-.58.14-.87.21,0,.08.03.17.04.25h.89Zm-46.25-35.21c.15,0,.3-.02.46-.03-.06-.3-.13-.59-.19-.89-.09,0-.18.02-.26.04-.01.29-.01.58-.01.88Zm9.43,220.83c-.02-.15-.04-.31-.06-.46-.29.07-.58.14-.87.21,0,.08.03.17.04.25h.89ZM211.35,59.68c.02.15.04.31.05.46.29-.07.58-.14.87-.21-.01-.08-.03-.17-.04-.25h-.88Zm-30.58-1.25c-.02-.15-.04-.31-.05-.46-.29.07-.58.14-.87.21.01.08.03.17.04.25h.88Zm-112.6-.54c0-.15-.02-.3-.03-.46-.3.06-.59.13-.89.19,0,.09.02.18.04.26.29.01.58.01.88.01ZM106.24,10.07c.02.15.04.31.06.46.29-.07.58-.14.87-.21,0-.08-.03-.17-.04-.25h-.89Zm118.9,45.91v.27h1.07v-.27h-1.07Zm-55.06,280.34c-.01-.15-.02-.3-.03-.46-.3.06-.59.13-.89.19.01.09.02.18.04.26.29,0,.59,0,.88,0Zm30.07-198.95c.15-.02.31-.04.46-.06-.07-.29-.14-.58-.21-.87-.08,0-.17.03-.25.04v.89Zm-87.69-22.23c-.15.02-.31.04-.46.06.07.29.14.58.21.87.08,0,.17-.03.25-.04v-.89Zm75.43.01c.01.15.02.3.03.46.3-.06.59-.13.89-.19-.01-.09-.02-.18-.04-.26-.29-.01-.59-.01-.88-.01Zm16.44-61.83v.27h1.07v-.27h-1.07Zm12.81-.54v.27h1.07v-.27h-1.07ZM66,346.01h-.27v1.07h.27v-1.07Zm63.53,51.12c-.01-.15-.01-.31-.02-.46-.3.07-.6.13-.9.2.01.09.02.18.04.26.29,0,.59,0,.88,0Zm22.96-275.23c-.02-.15-.04-.31-.05-.46-.29.07-.58.14-.87.21.01.08.03.17.04.25h.88Zm5.33-1.41c-.15,0-.31,0-.46.02.07.3.13.6.2.9.09,0,.18-.02.26-.04,0-.29,0-.59,0-.88Zm-100.31,182.76c-.02-.15-.04-.31-.06-.46-.29.07-.58.14-.87.21,0,.08.03.17.04.25h.89Zm22.5-184.1v-.18h-.53v.18h.53Zm89.11-1.07v-.18h-.53v.18h.53Zm-54.07-.36h-.18v.53h.18v-.53Zm40.01,3.74h-.18v.53h.18v-.53Zm-.89.89v-.18h-.53v.18h.53Zm-7.29.71h.18v-.53h-.18v.53Zm-69.9-4.8h.18v-.53h-.18v.53Zm100.85-2.14h.18v-.53h-.18v.53Zm-139.8,18.14h.18v-.53h-.18v.53Zm164.88,1.6h.18v-.53h-.18v.53Zm-3.74,1.07h.18v-.53h-.18v.53Zm-87.68-21.52v-.18h-.53v.18h.53Zm91.77,22.94v-.18h-.53v.18h.53Zm-131.08-22.76h.18v-.53h-.18v.53Zm113.65-.53h.18v-.53h-.18v.53Zm-77.54-1.96v.18h.53v-.18h-.53Zm9.42,33.43h-.18v.53h.18v-.53Zm-50.69-33.61h-.18v.53h.18v-.53Zm-3.2,0h-.18v.53h.18v-.53Zm68.66,34.67h.18v-.53h-.18v.53Zm21.87-34.67h.18v-.53h-.18v.53Zm-49.62,0h.18v-.53h-.18v.53Zm-42.87-.35v.18h.53v-.18h-.53Zm74.88,36.09h.18v-.53h-.18v.53Zm-4.62-37.87h-.18v.53h.18v-.53Zm8.36,40h.18v-.53h-.18v.53Zm52.47-41.6h-.18v.53h.18v-.53Zm-91.42,45.87h.18v-.53h-.18v.53Zm45,0h-.18v.53h.18v-.53Zm-80.04-45.87h-.18v.53h.18v-.53Zm-4.45-.53h.18v-.53h-.18v.53Zm-10.85-11.92v-.18h-.53v.18h.53Zm-6.22,171.4h.18v-.53h-.18v.53ZM20.6,87.85h-.18v.53h.18v-.53Zm184.98,182.42h.18v-.53h-.18v.53Zm-2.67-192.02h.18v-.53h-.18v.53Zm-171.1-3.2h-.18v.53h.18v-.53Zm90.53,209.62h.18v-.53h-.18v.53ZM27.54,73.99h-.18v.53h.18v-.53Zm96.93,211.22h.18v-.53h-.18v.53ZM24.87,72.92h-.18v.53h.18v-.53Zm10.67-5.87h-.18v.53h.18v-.53Zm161.14,233.09h-.18v.53h.18v-.53Zm10.32-235.58v.18h.53v-.18h-.53Zm.36-1.77h-.18v.53h.18v-.53Zm-35.04-.36v.18h.53v-.18h-.53Zm2.66-.36v-.18h-.53v.18h.53Zm-6.4-.17v.18h.53v-.18h-.53Zm6.4-1.07v.18h.53v-.18h-.53Zm-104.4,273.98h.18v-.53h-.18v.53Zm101.2-.36v.18h.53v-.18h-.53ZM223.54,57.27v-.18h-.53v.18h.53Zm-171.81-1.24v.18h.53v-.18h-.53Zm130.9-.18h.18v-.53h-.18v.53Zm-47.31-2.13h-.18v.53h.18v-.53Zm-58.87,283.76h.18v-.53h-.18v.53ZM118.42,50.34v-.18h-.53v.18h.53Zm48.74-1.96h.18v-.53h-.18v.53Zm-3.02-1.6h-.18v.53h.18v-.53Zm-34.69-3.2h-.18v.53h.18v-.53Zm-1.07-.53h-.18v.53h.18v-.53Zm29.89-1.6h-.18v.53h.18v-.53Zm-61.37-5.33h-.18v.53h.18v-.53Zm53.36-8h-.18v.53h.18v-.53Zm-23.65,324.83h.18v-.53h-.18v.53Zm-5.16-325.37h-.18v.53h.18v-.53Zm-29.88,346.17h-.18v.53h.18v-.53ZM111.67,19.58h.18v-.53h-.18v.53Zm-11.21,362.7h.18v-.53h-.18v.53Zm1.07.53h.18v-.53h-.18v.53Zm51.76,0h.18v-.53h-.18v.53ZM144.04,15.67v-.18h-.53v.18h.53Zm1.78,377.28h.18v-.53h-.18v.53Zm-3.56-378.17h-.18v.53h.18v-.53Zm-17.08-2.13h-.18v.53h.18v-.53Zm-2.13,0h-.18v.53h.18v-.53Zm-.18-1.07h.18v-.53h-.18v.53Zm19.74,384.04h.18v-.53h-.18v.53Zm-5.15-387.24h-.18v.53h.18v-.53Zm-24.73-1.6h.18v-.53h-.18v.53Zm5.16,390.08v.18h.53v-.18h-.53Zm1.96-.18h-.18v.53h.18v-.53Zm-.54-392.03h-.18v.53h.18v-.53Zm-1.6,0h-.18v.53h.18v-.53Zm19.57,394.7h.18v-.53h-.18v.53Zm-15.48,2.13h.18v-.53h-.18v.53Zm4.81,0h.18v-.53h-.18v.53Z"/>
      <path class="cls-1" d="m111.49,194.53h-1.07v-.53c.41.08,1.02-.27,1.07.53Z"/>
      <path class="cls-1" d="m112.02,195.06h-.53v-.53c.18.18.35.36.53.53Z"/>
      <path class="cls-1" d="m76.8,67.05v-.53c.15.12.29.24.44.36-.14.06-.29.11-.44.17Z"/>
    </g>
  </g>
</svg>