<?xml version="1.0" encoding="UTF-8"?>
<svg id="Layer_2" data-name="Layer 2" xmlns="http://www.w3.org/2000/svg" viewBox="0 0 212.83 330.44">
  <defs>
    <style>
      .cls-1 {
        stroke-width: 0px;
      }
    </style>
  </defs>
  <g id="Layer_1-2" data-name="Layer 1">
    <g>
      <path class="cls-1" d="m7.17,227.58c-.09-.1-.18-.2-.28-.31v-.56c-.1-.11-.2-.21-.3-.32v-.55c-.1-.11-.2-.22-.3-.33v-1.12c-.08-.08-.15-.15-.25-.25v-1.96c-.1-.12-.18-.23-.3-.37v-.8c-.1-.11-.19-.22-.3-.35v-1.11c-.1-.11-.19-.21-.3-.32v-.86c-.07-.06-.14-.12-.2-.18-.17-.32-.04-.66-.1-.98-.07-.07-.14-.14-.27-.27v-2.3l-.28-.28v-2.01c-.12-.12-.19-.19-.3-.3v-1.72c-.12-.12-.19-.19-.26-.26v-.84c-.1-.11-.2-.21-.3-.32v-2.01c-.07-.06-.14-.13-.17-.16-.06-.07-.11-.11-.11-.14v-2.58c-.48-.19-.16-.69-.41-.99-.2-.23-.3-.54-.48-.88.08-.12.18-.27.31-.46v-.53c-.08-.09-.18-.19-.28-.3v-1.72c-.17-.17-.34-.34-.56-.55v-1.73c-.12-.12-.19-.19-.3-.3v-1.44c-.12-.12-.19-.19-.27-.27v-3.13c-.1-.11-.19-.22-.3-.34v-3.13c-.1-.11-.2-.21-.29-.32v-.28c.1-.27.64.02.56-.56-.03-.21-.39-.28-.56-.85v-2.89c-.12-.12-.19-.19-.27-.27v-8.58c-.1-.11-.19-.22-.3-.33v-2c.09-.09.18-.2.28-.3v-15.78c.07-.07.14-.14.2-.2.03-.04.08-.07.08-.11v-7.15c.09-.09.15-.15.27-.27v-1.15c.12-.12.19-.19.3-.3v-2.3c.12-.12.19-.19.27-.27v-6c.1-.11.19-.22.3-.33v-1.12c.1-.11.2-.21.3-.32v-2.29c.07-.07.14-.14.2-.2.03-.04.08-.07.08-.11v-2.56c.09-.09.16-.16.26-.26v-1.95c.1-.12.18-.23.32-.42v-1.69c.12-.12.19-.19.27-.27v-1.07c.21-.36.38-.67.59-1.04v-1.65c.07-.07.14-.14.26-.26,0-.27.03-.59.05-.91.07-.07.14-.14.23-.23.02-.29.05-.61.07-.93.47-.22.03-.87.52-1.08v-.85c.1-.11.19-.22.3-.33v-1.41c.1-.11.2-.21.3-.32v-.85c.07-.07.14-.14.26-.26v-1.15c.12-.12.19-.19.3-.3v-.86c.12-.12.19-.19.27-.27v-1.11c.1-.12.19-.22.3-.35v-1.11c.1-.11.19-.21.3-.33v-.56c.07-.07.13-.14.28-.29.06-.33,0-.75.02-1.17.49-.18.1-.72.41-.98.36-.3.02-.73.2-1.07l.22-.22v-1.11c.1-.11.19-.22.3-.35v-.77c.21-.36.39-.67.59-1.02v-.8l.26-.26v-1.15l.28-.28c.03-.3.05-.62.08-.94.45-.23.03-.86.52-1.08v-.85c.1-.11.2-.21.3-.32v-.56c.1-.11.2-.21.3-.32v-.56c.36-.21.27-.57.28-.85l.56-.56v-.83c.1-.11.19-.22.3-.34-.19-.44.33-.72.3-1.14.35-.2.28-.67.57-.91-.07-.35.11-.61.28-.89.08-.15-.02-.45.08-.53.25-.19.15-.54.39-.71.24-.17.07-.44.13-.69.08-.09.18-.19.28-.3v-.43c.23-.47.54-.84.54-1.19,0-.42.37-.61.36-1.03,0-.31.23-.67.44-.95.22-.28-.04-.64.28-.91.21-.18.28-.54.4-.83.12-.29.3-.53.32-.88.02-.28.34-.53.26-.89.37-.24.17-.72.38-.99.2-.26.16-.64.48-.81-.12-.33.35-.44.28-.74-.06-.32.12-.52.29-.74-.15-.46.26-.75.37-1.14.08-.29.39-.52.47-.8.08-.31-.02-.66.31-.88-.07-.6.33-1.01.57-1.49.24-.47.38-1.01.68-1.43.16-.23.15-.51.37-.73.2-.21.27-.55.39-.83.11-.24.17-.54.35-.71.23-.21.2-.5.38-.72.19-.23.34-.53.41-.83.06-.27.41-.41.32-.73.44-.2.19-.67.39-.99.18-.29.35-.61.48-.95.09-.24.22-.49.36-.71.12-.19.35-.32.48-.43,0-.24-.05-.4,0-.52.29-.64.68-1.24.92-1.91.41-.26.56-.73.77-1.12.2-.39.38-.8.59-1.19.23-.44.45-.87.75-1.28.33-.47.54-1.02.91-1.49.29-.37.38-.89.73-1.27.33-.36.48-.86.69-1.29.17-.35.39-.61.65-.9v-.66c.13-.11.34-.24.49-.42.11-.13.11-.36.22-.48.23-.24.21-.59.49-.82.23-.19.46-.5.49-.78.05-.39.4-.52.52-.8.25-.58.55-1.13.96-1.61,0-.4.39-.5.57-.77-.15-.38.44-.5.3-.88.24-.24.53-.44.7-.72.3-.49.52-1.02.87-1.73.42-.41.99-.99,1.55-1.53.03-.63.73-.76.87-1.25.14-.51.64-.68.88-1.13v-.23l1.05-1.05c.17-.36.3-.64.5-1.06.84-.83,1.78-1.78,2.72-2.7.04-.16.05-.31.11-.41.17-.26.48-.4.53-.79.03-.23.37-.41.58-.61.13-.13.26-.25.27-.47,0-.11.16-.21.24-.33.16-.26.52-.14.71-.4.19-.27.52-.45.68-.73.14-.23.2-.49.42-.69.39-.36.76-.73,1.12-1.12.38-.42.9-.71,1.13-1.25.21-.51.71-.74,1-1.17.2-.29.26-.68.63-.86h.43c.08-.05.17-.08.23-.14.54-.54,1.08-1.08,1.63-1.62.54-.54,1.12-1.05,1.61-1.63.46-.55,1.17-.75,1.63-1.3.49-.59,1.06-1.1,1.58-1.63h.31l1.43-1.43c.39.18.49-.48.88-.32.03,0,.14-.12.2-.19.08-.11.2-.22.21-.34.02-.29.26-.38.41-.55.12-.13.28-.24.44-.32.23-.13.48-.23.87-.42.07-.07.27-.28.48-.48l.81-.81c.41.06.52-.4.8-.49.53-.17.82-.6,1.19-.93.58-.05.78-.63,1.24-.84.36-.18.71-.36,1.19-.61h.8c.14-.19.3-.42.43-.59h.43c.24-.26.46-.66.78-.78.43-.16.69-.46.98-.75.26-.27.66-.25.92-.59.3-.38.92-.34,1.26-.73.32.06.46-.3.73-.32.33-.03.42-.39.66-.48.76-.26,1.38-.8,2.18-.98.37-.08.77-.23,1.06-.55.13-.14.98-.5,1.19-.58.38-.14.79-.21,1.09-.55h.83c.11-.1.22-.19.34-.3h.55c.11-.1.21-.2.32-.3h.49c.37-.21.68-.39,1.01-.57h.74c.08-.06.19-.14.34-.26h.79c.12-.1.22-.18.36-.3h.81c.11-.1.22-.19.34-.3h1.12c.11-.1.21-.2.32-.3h.85l.26-.26h1.15l.3-.3h1.15l.3-.3h1.44l.3-.3h1.15l.26-.26h1.13c.11-.1.21-.2.32-.3h1.71l.26-.26c.55-.08,1.16.02,1.77-.05l.23-.23h1.44c.1.06.25.16.46.29.13-.08.28-.18.49-.31h5.11c.08.07.18.17.3.27h3.42c.11.1.21.2.32.3h2.29c.07.07.14.14.21.21.04.03.07.07.11.07h1.98c.09.09.16.16.26.26h1.67c.12.1.23.18.36.29.19.02.42.05.62.07.09.09.15.15.23.23h.84c.11.1.21.19.33.3h1.13c.11.1.21.2.32.3h.84c.11.1.22.2.33.3h.98c.3.13.47.28.62.26.33-.05.49.25.75.29.28.05.57-.02.75.28.33-.11.45.33.73.31.3-.02.56.03.74.29.6-.07,1.02.32,1.48.57.24,0,.56-.1.7.02.31.26.75.15,1,.36.26.2.67.13.82.48h.57c.11.1.21.2.31.29h.45c.86.44,1.74.86,2.58,1.34.32.18.81-.11.99.38.36-.08.51.41.87.32.24.29.62.36.93.53.46.26.99.42,1.43.7.23.15.43.12.65.18.17.04.3.21.46.27.47.17.92.36,1.27.75.08.08.27.05.37.13.4.29.84.54,1.24.83.39.28.91.38,1.25.77.05.06.16.08.24.11.2.1.39.23.6.28.31.07.41.38.65.52.19.11.47.07.59.31.17.33.58.26.8.5.22.25.48.46.7.72.28.32.8.29,1,.71.18.39.63.36.9.61.3.28.55.59.99.74.41.14.53.8,1.11.79.24.24.47.48.71.71.23.22.58.22.8.5.3.37.67.68,1,1.02.54-.06.65.67,1.17.64.64.64,1.27,1.27,1.91,1.91-.05.36.26.47.44.68.19.22.4.41.61.61.47.47.95.95,1.42,1.42s.95.95,1.42,1.42c.51.51,1.01,1.01,1.52,1.52.14.72.8,1.01,1.23,1.5.44.51.94.95,1.41,1.43s.93.97,1.43,1.41c.23.2.22.5.4.7.22.25.47.48.71.71.2.2.41.41.55.55.07.19.08.35.16.44.33.38.68.73.94,1.19.22.38.48.76.68,1.16.04.08.05.19.11.24.63.5.88,1.32,1.52,1.82.19.15.06.44.3.6.18.12.37.27.39.55.01.15.19.33.33.43.23.15.15.45.31.59.25.23.21.59.49.82.23.19.34.52.52.78.23.34.44.69.72.99.25.27.5.54.6.9.42.2.38.73.71,1,.01.43.37.62.61.9v.29c.34.33.68.66.98.96.23.44.36.9.66,1.22.32.34.39.83.78,1.13.38.28.69.66,1.02,1v.28c.1.11.2.21.29.31v.79c.05.07.16.16.22.28.13.28.21.59.37.85.14.24.36.43.55.63-.15.38.46.5.3.88.44.36.6.89.88,1.35.25.42.58.81.84,1.32v.77c.24.28.54.48.63.89.06.29.28.58.5.79.22.21.26.47.4.7.23.38.35.83.62,1.18.17.22.12.53.39.71.18.12.4.28.33.57.31.18.29.55.46.82.18.29.35.61.45.96.08.29.43.52.46.8.04.35.41.51.37.87-.01.1.17.21.27.32v.56c.23.29.62.46.61.9.22.14.21.39.32.58.11.2.3.38.5.51.34.22.25.7.6.91v.84c.08.08.19.14.2.21.11.78.52,1.42.92,2.06-.01.42.49.7.3,1.17.34.21.37.62.55.93.17.3.37.6.47.95.01.04.06.07.11.12v.82c.33.35.44.8.78,1.15.29.3.35.8.62,1.17.25.36.38.8.63,1.33v.74c.65.34.65,1.15,1.13,1.7v.75c.2.36.38.67.59,1.04v.77c.35.21.27.69.58.91-.11.57.52,1.01.22,1.69.25.13.51.26.63.32v.79c.1.11.19.21.3.32v.85c.1.11.19.21.29.31v.48c.45.58.58,1.34.86,2.03.05.12,0,.34.08.39.3.2.15.66.5.81v1.15c.07.06.14.13.25.24v1.16c.12.12.19.18.25.25.19.22-.08.57.2.78.24.17.14.43.15.65.01.18-.03.37.15.51.3.25-.05.78.42.97v1.14c.1.11.2.21.3.32v.57c.07.07.14.14.21.21.08.53.24,1.04.65,1.54v.83c.12.12.19.19.3.3v1.15c.12.12.19.19.26.26v.85c.1.11.2.21.3.32v.85l.25.25v1.15l.3.3v1.15l.25.25c.17.44-.15.96.21,1.35.26.29-.08.8.41.99v1.43c.1.11.2.21.3.32v1.72l.26.26v.97c.17.37.34.56.3.69-.12.43.41.61.32,1.04-.08.37-.01.76-.02,1.14,0,.28,0,.53.24.77.13.13.07.44.13.66.02.08.13.14.2.21v1.71c.1.11.2.21.3.32v2.57l.28.28c.03.73-.01,1.53.02,2.31l.25.25v1.09c.1.12.18.23.3.38v2.47c.2.36.38.67.59,1.05v3.64c.1.11.2.21.3.32v3.15l.25.25c.09.46-.02.98.06,1.49l.25.25v1.44l.3.3v6.32l.27.27v14.36c-.07.08-.17.19-.27.3v5.43c-.07.07-.13.14-.2.21-.03.03-.09.07-.09.1v3.15l-.21.21c-.03.09-.07.17-.07.26-.01.81,0,1.62,0,2.4l.26.26v.86c-.14.26-.32.57-.53.97v1.61c-.1.11-.19.21-.3.33v2.85c-.07.07-.13.14-.2.21-.03.08-.08.16-.09.25-.01.43,0,.86,0,1.27.11.12.2.23.29.32.05.44-.36.54-.59.88v1.41l-.26.26v2.56c-.1.11-.2.21-.3.32v1.71c-.1.11-.19.21-.28.3-.06.23.09.35.19.51.09.14.08.35.11.54-.11.16-.21.31-.31.46v.75c-.07.09-.16.19-.3.37v1.98l-.26.26v1.42c-.1.11-.2.21-.3.32v1.63c-.18.34-.33.62-.56,1.03v1.05l-.3.3v1.72l-.27.27v1.69c-.1.11-.19.22-.3.34v1.12c-.1.11-.2.21-.3.32v.56c-.1.11-.2.21-.3.32v.85c-.08.08-.2.14-.2.21-.02.6-.51,1.09-.34,1.73-.09.11-.18.22-.29.35v.81c-.1.11-.19.22-.3.34v1.12c-.1.11-.2.21-.3.32v.85l-.25.25v1.02c-.23.44-.38.72-.61,1.15v1.31l-.27.27v1.07c-.21.36-.38.67-.59,1.04v.5l-.26.26v1.02c-.23.44-.38.71-.58,1.1v.96c-.2.36-.38.67-.59,1.05v.48c-.1.11-.2.21-.3.32v.76c-.31.59-.59,1.1-.86,1.61.13.49-.47.82-.28,1.33-.09.1-.19.2-.29.32v.56c-.1.11-.2.21-.3.32v.76c-.31.59-.58,1.1-.86,1.61.13.49-.48.82-.28,1.32-.09.1-.19.2-.29.31v.56c-.1.11-.19.21-.29.31v.47c-.18.32-.38.67-.57,1.02.19.46-.33.73-.31,1.17.02.34-.43.61-.27,1.03-.31.18-.3.55-.46.82-.17.29-.35.61-.45.96-.08.29-.41.52-.47.8-.07.36-.14.7-.34,1.01-.1.15-.17.31-.29.54v.48c-.1.11-.2.21-.29.31v.3c0,.09.02.25-.02.27-.43.22-.15.7-.39,1-.19.24-.36.53-.43.82-.07.31-.43.5-.31.88.08.28-.4.41-.28.74-.36.2-.17.64-.33.86-.19.26-.25.49-.24.77-.08.37-.64.44-.57.91-.27.24-.34.54-.29.89-.44.57-.65,1.26-1,1.88-.33.58-.56,1.21-.92,1.77-.19.28.04.63-.28.91-.24.21-.27.64-.43.95-.14.28-.44.52-.47.8-.04.38-.16.7-.34,1.02-.09.16-.18.31-.29.52v.77c-.1.12-.24.22-.27.34-.29,1.07-.59,1.68-1.15,2.25-.17.17-.43.31-.49.51-.11.39-.46.59-.61.9-.2.44-.44.87-.64,1.31-.16.36-.29.75-.57,1.06.16.47-.21.79-.37,1.14-.15.31-.29.65-.49.95-.22.33-.31.74-.58,1.05.05.53-.7.63-.63,1.18-.35.25-.54.62-.7,1-.14.33-.4.6-.42.98-.29.14-.2.5-.41.69s-.12.55-.4.7c-.28.14-.27.46-.41.69-.23.38-.4.79-.6,1.19-.18.35-.33.73-.53,1.07-.18.3-.45.55-.6.9-.16.37-.35.75-.7,1,0,.37-.31.55-.5.8-.16.21-.25.47-.42.79v.47c-.1.11-.19.21-.3.32v.56c-.25.28-.48.54-.65.89-.17.34-.3.76-.66,1.03-.28.21-.64.42-.69.85-.05.39-.59.45-.6.91,0,.18-.28.36-.45.52-.17.17-.04.46-.3.6-.35.18-.3.68-.62.88-.34.22-.27.69-.6.91-.05.03-.02.18-.03.35-.24.22-.5.51-.8.74-.42.32-.61.8-.91,1.2-.3.4-.78.64-.94,1.19-.08.28-.46.47-.68.72-.18.2-.15.51-.4.7-.22.16-.48.38-.55.62-.07.26-.2.44-.38.56-.27.18-.16.52-.39.71-.12.1-.1.38-.22.47-.47.34-.59.93-1,1.32-2.05,2-4.08,4.04-6.09,6.09-.24.24-.51.36-.8.5-.37.18-.73.37-1,.7-.15.19-.33.34-.5.51-.47.47-.88,1.05-1.44,1.39-.53.32-.94.75-1.39,1.14-.13.11-.38.1-.47.22-.42.52-1.15.64-1.51,1.21-.29.46-.91.46-1.21.91-.26.4-.75.49-1.14.7-.04.02-.12-.01-.13.01-.62.86-1.64,1.11-2.49,1.62-.23.14-.51.16-.7.4-.24.3-.49.68-.81.78-.36.11-.52.37-.79.54-.23.14-.51.17-.7.38-.9.01-1.52.73-2.34.94-.25.41-.87.01-1.09.49-.39.1-.73.31-1.08.51-.34.19-.71.35-1.07.52-.36.17-.8.26-1.06.53-.31.31-.74-.02-1.02.37-.15.21-.56.24-.83.37-.32.16-.62.35-1,.56h-.48c-.11.1-.21.2-.32.3h-.76c-.55.29-1.03.53-1.6.83-.2.02-.52.05-.84.09-.2.51-.92-.09-1.03.51h-.91c-.16.17-.32.36-.59.3-.17.29-.46.26-.74.29-.21.02-.41.27-.6.25-.33-.02-.49.23-.75.3-.23.06-.48.01-.71.01-.25.23-.55.33-.9.29-.1.09-.2.18-.31.28h-.78c-.36.21-.67.39-1.01.58h-.74c-.08.06-.18.14-.38.28h-1.39l-.3.3h-1.44l-.26.26h-2.56c-.11.1-.21.19-.32.3h-2.58c-.06.07-.12.14-.13.15-.09.08-.13.13-.16.14h-2.57c-.08.08-.15.15-.21.21-.09.02-.17.07-.26.07h-6.42l-.28-.28h-4.31c-.12-.12-.19-.19-.3-.3h-1.15c-.12-.12-.19-.19-.26-.26h-1.13c-.11-.1-.21-.2-.32-.3h-1.43c-.06-.07-.13-.14-.15-.16-.08-.07-.12-.12-.15-.12-.48-.01-.95,0-1.42,0-.08-.08-.15-.15-.27-.27h-1.44c-.12-.12-.19-.19-.3-.3h-1.15c-.12-.12-.19-.19-.3-.3h-1.15c-.12-.12-.19-.19-.26-.26h-1.13c-.11-.1-.21-.2-.32-.3h-1.64c-.37-.21-.68-.39-1.01-.58h-.74c-.08-.06-.19-.14-.34-.26h-.71c-.29-.09-.39-.38-.67-.31-.26.06-.42-.13-.62-.25-.18-.11-.53,0-.64-.14-.18-.21-.43-.14-.62-.28-.28-.21-.3-.19-.77-.21-.07-.07-.13-.14-.2-.2-.03-.03-.08-.05-.14-.08-.61.24-1.09-.36-1.7-.32-.18-.31-.52-.15-.75-.25-.25-.11-.44-.31-.75-.28-.11.01-.23-.14-.35-.17-.38-.11-.69-.38-1.13-.42-.37-.03-.69-.4-1.06-.53-.25-.09-.58.04-.76-.29h-1c-.11-.14-.29-.37-.47-.59-.33.12-.45-.26-.74-.31-.29-.05-.59-.22-.82-.42-.25-.21-.52-.35-.79-.51-.65-.39-1.38-.61-2.01-1.05-.25-.17-.63-.17-.84-.37-.31-.3-.68-.46-1.01-.7-.22-.16-.39-.35-.69-.43-.18-.05-.44-.16-.59-.29-.31-.29-.69-.46-1-.71-.25-.21-.54-.33-.81-.49-.23-.14-.37-.37-.66-.49-.33-.12-.56-.49-.85-.72-.1-.08-.25-.1-.45-.17-.31-.31-.68-.68-1.05-1.05-.54.08-.63-.67-1.18-.63-.12.01-.26-.27-.41-.38-.33-.25-.52-.62-.97-.78-.37-.13-.63-.54-.95-.83-.51.09-.56-.63-1.06-.59-.1.01-.22-.15-.32-.25-.48-.47-.95-.95-1.42-1.42-.44-.44-.82-.98-1.34-1.29-.58-.35-1.02-.79-1.49-1.25-.44-.43-.88-.88-1.32-1.32-.58-.58-1.15-1.15-1.73-1.72-.17-.17-.34-.33-.51-.49-.51.1-.57-.57-1.05-.6-.28-.02-.56-.32-.53-.72-.37-.37-.74-.74-1.12-1.12v-.29c-.67-.67-1.35-1.35-2.03-2.02-.88-.33-1.32-1.17-2.02-1.72-.45-.36-.6-.92-1-1.32-.39-.38-.9-.67-1.05-1.28-.06-.24-.36-.45-.59-.61-.27-.18-.14-.53-.39-.71-.22-.16-.37-.37-.44-.68-.06-.29-.49-.38-.55-.78-.04-.23-.35-.42-.54-.63.16-.38-.46-.5-.3-.88-.18-.26-.52-.38-.58-.77-.05-.29-.26-.56-.44-.82-.15-.22-.11-.56-.4-.7s-.28-.46-.4-.7c-.41-.83-.85-1.63-1.45-2.02-.47-.92-.84-1.63-1.2-2.34-.14-.28-.32-.55-.39-.84-.08-.31-.39-.41-.52-.65-.14-.27-.21-.59-.37-.85-.14-.24-.36-.42-.55-.63.1-.51-.51-.6-.61-1.04-.09-.42-.36-.8-.57-1.19-.19-.35-.39-.7-.56-1.06-.37-.81-.85-1.56-1.15-2.39-.11-.32-.54-.39-.58-.77-.04-.37-.43-.48-.57-.77v-.43c-.05-.39-.64-.45-.57-.91-.24-.25-.35-.54-.29-.89-.38-.5-.58-1.1-.86-1.65-.14-.28-.31-.53-.31-.89,0-.22-.24-.46-.34-.71-.11-.29-.44-.52-.47-.8-.05-.4-.34-.54-.57-.84v-.74c-.46-.72-.73-1.49-1.17-2.16-.13-.2.05-.52-.2-.78-.2-.2-.35-.55-.36-.84-.02-.31-.23-.5-.29-.75-.07-.26.03-.57-.27-.75.07-.64-.46-1.06-.59-1.62-.06-.27-.42-.4-.3-.74.09-.28-.29-.41-.26-.59.07-.5-.42-.83-.31-1.32-.47-.27-.07-.94-.56-1.2,0-.32.05-.67-.3-.88.13-.33-.37-.45-.28-.74.12-.39-.29-.56-.31-.89,0-.12-.14-.23-.28-.44-.11-.27.21-.77-.26-1.06.13-.45-.34-.75-.31-1.16.04-.4-.31-.63-.33-1.03-.02-.36-.33-.71-.52-1.07-.02-.26-.04-.54-.06-.83-.49-.21.02-.89-.52-1.05v-.88c-.1-.11-.19-.21-.3-.33,0-.17.08-.46,0-.54-.31-.25-.25-.7-.56-.93v-.77c-.06-.08-.14-.18-.26-.35-.02-.26.06-.66-.1-.88-.19-.27-.12-.55-.24-.77-.15-.29-.33-.55-.26-.91-.09-.1-.19-.2-.29-.31v-.85c-.1-.11-.19-.21-.3-.32v-.55c-.1-.12-.2-.22-.3-.33v-1.41c-.08-.08-.15-.15-.22-.22-.02-.09-.05-.18-.05-.26,0-.24-.03-.48,0-.72.05-.29-.27-.37-.29-.6-.02-.18.02-.45-.08-.53-.21-.17-.16-.43-.29-.61-.08-.11-.16-.22-.2-.35-.06-.17.05-.36-.1-.54-.17-.2-.26-.46-.45-.82v-1.21c-.44-.5-.83-.92-.75-1.54ZM161.37,25.95c-.06-.22-.04-.44-.29-.25.08.07.16.13.23.09.06.22.04.44.29.25-.08-.07-.16-.13-.23-.09Zm3.7,235.06c-.01.2.09.29.29.18v.54l-1.44,1.44v2.56s.05.07.08.11c.26.05.52.1.78.15v.63c.22.16.34.48.69.43.17-.31.29-.66.62-.86.22-.05.48.1.67-.11.03-.13.06-.26.07-.3.33-.22.59-.39.82-.54v-.62c-.1-.11-.2-.21-.28-.3-.12-.32.21-.41.26-.56v-.78c-.17-.23-.28-.38-.4-.53-.23.23-.42.5-.73.16v-.29c-.34-.33-.68-.66-1.15-1.01.01-.2-.09-.29-.25-.21-.06-.22-.04-.44-.29-.25.08.06.16.12.26.16Zm37.65-158.4c-.06-.22-.04-.44-.29-.25.08.07.16.13.23.09.06.22.04.44.29.25-.09-.07-.16-.14-.23-.09ZM46.5,32.76c.1-.06.24-.1.28-.19.05-.11,0-.25,0-.38q.29-.17.17-.55c-.31.11-.12.37-.17.55-.1.06-.24.1-.28.19-.05.11,0,.25,0,.38q-.29.17-.17.55c.31-.11.11-.36.17-.55Zm151.59,204.99q.29-.17.17-.55c-.31.11-.12.37-.17.55q-.29.17-.17.55c.31-.1.12-.36.17-.55Zm-21.57-192.72c.06.22.04.44.29.25-.08-.07-.16-.13-.25-.17-.01-.17-.02-.34-.04-.57-.2,0-.36.02-.54.04.16.28.3.48.54.45Zm-62.55,258.19c.17-.01.34-.02.57-.04-.01-.2-.02-.36-.04-.54-.29.16-.49.3-.53.58-.28.04-.41.25-.6.58.25-.04.45.1.6-.17v-.41ZM22.41,178.69c-.06-.22-.04-.44-.29-.25.08.07.16.13.25.17,0,.17.03.34.04.58.21-.02.37-.04.59-.06-.06-.23-.1-.38-.14-.51-.21,0-.34,0-.45.07Zm102.75-20.46q-.17-.29-.55-.17c.11.31.37.11.55.17q.66.87.8.78c.23-.43-.21-.54-.37-.78h-.43Zm66.04-4.88c-.05-.3-.28-.44-.54-.59-.1.05-.22.1-.32.14v.45h-1.28s-.07.06-.14.11c.07.09.14.18.27.34v1.12l.56.56c-.09.1-.17.2-.26.3.23.18.32.43.27.72-.23.05-.28-.21-.5-.28-.19.33.04.74-.18,1.13-.3.12-.72-.15-1.03.14,0,.1-.01.19-.01.28.19.21.51.4.54.62.05.34.29.46.45.68.35-.16.43.34.73.3.29,0,.39-.44.73-.31l.61-.61c.2-.2.51-.37.58-.61.14-.46.77-.92.12-1.47-.1-.08-.04-.36-.05-.55.09-.11.19-.21.29-.32,0-.4.03-.82-.01-1.24-.29-.04-.52-.05-.74-.1-.05-.01-.07-.15-.1-.23.17-.03.38.09.58-.15-.02-.11-.05-.27-.08-.42-.21-.01-.35-.01-.49-.01Zm-116.57-33.3c.46-.01.17-.62.55-.69,0-.19.03-.37.02-.56,0-.06-.1-.11-.16-.16-.12.23-.25.47-.41.79v.62c-.32.07-.53.26-.58.61.1.17.19.35.29.51-.51.1-.14.58-.34.8-.07.07-.13.13-.2.2q-.03,1.22.2,1.31c.04-.28.08-.54.12-.77.1-.09.17-.16.23-.22v-1.3c.17.03.27-.07.28-.2.02-.32,0-.63,0-.94Zm-53.68,143.83c-.04-.28-.25-.41-.47-.54-.17.2-.18.39.07.54h.39c.02.18.03.36.05.52.3-.25.56-.48.85-.73-.04-.12-.09-.24-.13-.36h-.33c-.28.08.02.62-.43.57Zm61.15-43.35c-.46-.04-.18.46-.44.6-.25.14-.09.43-.13.62.14.19.26.36.39.54.12-.12.18-.16.18-.19,0-.52,0-1.05,0-1.57.08-.03.16-.07.23-.1.29-.55-.42-.92-.24-1.44,0-.03-.1-.1-.16-.16-.23.3-.07.65-.12.97.09.1.19.2.29.31,0,.13,0,.27,0,.42Zm109.99-146.92c-.06-.22-.04-.44-.29-.25.08.07.16.13.26.17-.1.46.31.73.39,1.12h.65c.05-.07.1-.1.1-.14,0-.5-.49-.65-.72-.98-.14,0-.28,0-.39.08Zm-169.14-5.82h.73c.12-.13.25-.27.43-.46-.02-.44-.04-.95-.07-1.46,0-.03-.06-.05-.1-.08l-.41.41v.61c-.19.16-.41.34-.58.48,0,.21,0,.36,0,.5-.08.03-.16.07-.29.12v.92c-.21.08-.38.14-.58.21.03.33.05.65.08.96,0,.02.06.04.1.06.42-.2.36-.73.7-.99-.01-.43-.01-.85-.01-1.28Zm161.93-9.2v-.43c-.13-.13-.27-.26-.44-.42-.14.31-.29.6-.41.91-.02.05.08.15.16.28.23-.11.46-.22.69-.34v1.29c.1.1.19.21.29.31v.57c.23.28.56.46.63.89.02.15.23.42.55.41v.85c.2,0,.35-.02.49-.03.02-.16.03-.24.05-.39-.13-.13-.29-.29-.45-.43-.02-.02-.09,0-.13,0v-.71c-.1-.1-.19-.2-.29-.31v-.37c-.17-.13-.4-.31-.59-.45v-.73c-.15-.37-.22-.57-.32-.77-.02-.07-.15-.09-.23-.13Zm-15.51-23.85c-.04-.26-.28-.39-.51-.56-.1.04-.22.08-.35.13.02.15.04.27.06.43h.8v.83c.17.14.39.32.56.45.02.27-.04.53.05.63.29.29.26.8.72.98.06-.16.08-.35.18-.48.12-.15.26-.27.19-.55-.13-.04-.3-.07-.45-.15-.16-.09-.29-.24-.4-.33v-.63c-.28-.24-.46-.6-.85-.75Zm22.44,37.35v.86c.2,0,.35-.02.49-.03.02-.16.03-.24.06-.41-.23-.06-.26-.41-.59-.42v-.42c-.1-.1-.19-.21-.29-.31v-.56c-.27-.27-.54-.54-.73-.73-.17-.33-.28-.56-.42-.83-.06-.27.18-.62-.16-.88-.22.05-.48-.1-.67.11-.01.09-.02.18-.04.34.19.15.41.33.58.46v.68c.44.21.54.7.78,1.07.11.17.08.44.12.66.13.14.26.27.39.4.16,0,.3,0,.48,0ZM9.75,229.72c.07.3-.61.42-.2.81.26.06.52.15.75-.07-.03-.25.17-.54-.14-.74-.14,0-.27,0-.45.08.17-.59.84-.73.92-1.36-.14-.13-.31-.42-.46-.41-.37.03-.5-.47-.88-.32-.2.08-.34-.08-.48-.22-.02-.02-.13.05-.19.08v.53c.38.52.46,1.21,1.13,1.62Zm193.22-6.32c-.46-.03-.18.46-.44.6-.32.18.03.63-.3.88-.21.15-.13.54-.41.68v1.04c-.33.63-.61,1.18-.89,1.74.11.13.2.24.3.36-.08.09-.16.19-.27.31.14.11.28.23.35.29.17-.1.36-.21.53-.32v-1.16l.27-.27v-1.44l.61-.61v-.87c.12-.11.19-.18.25-.25,0-.31,0-.65,0-.98.08-.03.16-.06.25-.1.03-.34.11-.7-.1-1.12-.25.44-.1.84-.15,1.22Zm-23.54-97.04c.08-.03.16-.07.25-.1.02-.27.17-.56-.12-.77-.28-.21,0-.55-.2-.77l-.5-.5c.17-.27.56-.37.57-.65-.01-.39-.21-.35-.41-.36-.19-.18-.39-.38-.6-.57l-.71.71v.65c-.18.14-.4.32-.57.46v.92l.41.41c.11-.35.3-.65.6-.85h.57c.33.38.67,1.05.71,1.46-.17-.09-.34-.18-.51-.28-.06.31-.15.57.1.84.13-.04.28-.08.41-.12v-.48Zm-88.71,173.7c-.02.18-.03.35-.05.52-.32.05-.58.1-.88.15l.43.43c.49.26.77-.23,1.18-.24.06,0,.11-.12.17-.19-.05-.31.14-.66-.13-.94-.19.23-.43.33-.73.28v-1.28s-.06-.07-.14-.15h-.86c-.22-.22-.39-.39-.46-.46-.35-.17-.58-.29-.83-.41-.17.01-.35.03-.49.04-.2.34,0,.49.21.7v1.15c.12.12.18.18.3.3v1.2c.07-.05.14-.1.21-.16.05.19.1.37.14.5.22-.18.37-.3.48-.39.03-.47-.05-.89.07-1.32.18.02.31.03.43.04.07.2.13.36.19.55.13-.12.23-.21.33-.3.14-.02.28-.02.43-.02Zm109.67-204.14v.45c-.18.14-.37.29-.26.58.29.29.59.6.9.9.06.05.16.06.25.09.43-.34.45-.4.75-.91.14-.24.04-.46.09-.7-.73-.43-.75-1.29-1.17-2.17v-.87c-.22-.42-.37-.69-.56-1.04v-1.05c-.2-.34-.56-.45-.87-.63v-.55c-.08-.08-.15-.15-.26-.26v-1.15l-.91-.91v-1.45c-.23-.17-.32-.44-.62-.39-.22.16-.49.28-.5.64.13.37.8.17.81.71-.07.07-.13.13-.2.2v.64c.1.1.17.17.24.24.01.23.02.45.03.61.14.14.2.2.27.27v.57c.1.1.19.21.29.31v.67c.17.12.4.29.59.43v.89c.48.55.48,1.36,1.13,1.69v1.62c-.17-.03-.27.07-.28.22-.03.19.01.38.28.35Zm6.6,25.56c-.18.04-.38-.09-.52.09-.09.2-.08.37.05.44.2.06.33.09.45.12.02.36.04.68.05.95l.26.26v.85c.1.11.2.21.3.32v1.42c.1.11.2.22.3.34-.04.12-.08.25-.11.37-.2-.06-.25-.32-.45-.2-.06-.22-.04-.44-.29-.25.08.07.16.13.26.17v.52c.17.14.39.32.59.47v2.61l.26.26v2.05c.49.21.14.73.45.99.23-.05.48.1.68-.1.05-.33.13-.66-.27-.91v-3.18l-.25-.25c-.05-.7.01-1.41-.03-2.04l-.27-.27v-1.71c-.1-.1-.19-.21-.29-.31v-1.14c-.1-.11-.19-.21-.29-.31v-1.41c-.1-.11-.2-.22-.29-.33v-.84l-.42-.42c-.27.1-.4-.14-.59-.26-.01-.01-.06.06-.11.11v.63c.17.13.39.31.56.45-.03.22-.03.36-.03.51Zm-173.7,16.94c.09.15.17.3.26.45-.08.08-.17.18-.26.28,0,.34,0,.66.08.96-.22.06-.44.04-.25.29.07-.08.13-.16.17-.26.19,0,.38-.01.57,0,.08.01.16.06.25.09q.07.65.2.76h.29c.14-.28.28-.55.42-.83v-.43c.21-.32.51-.5.86-.62v-.56c-.1-.11-.2-.21-.29-.32v-1.98c-.19-.31-.5-.4-.8-.52-.33-.14-.25-.57-.52-.78h-.5c-.19-.13-.33-.23-.59-.41-.13.24-.24.45-.34.63.08.04.28.13.47.22v.86c.1.12.2.22.28.32-.05.23.1.49-.13.68-.09.01-.19.01-.29.02-.15-.58-.73-.88-.87-1.43-.35-.05-.48.09-.4.54.24.19.57.46.85.69v.97c.21.06.24.4.54.38Zm21.25-82.91c-.17-.13-.31-.23-.45-.34l-.41.41v1.14c.24.16.26.46.41.74h.76c.31.17.47.25.66.36.2-.25.38-.48.52-.65h.94c.1.1.21.19.33.31.12-.03.25-.06.38-.09v-.92c-.06-.07-.16-.18-.25-.29,0-.26-.03-.5.14-.78.23-.36.55-.74.42-1.25.16-.17.39-.3.26-.59l-.4-.4c-.3.27-.09.62-.15.93-.05.25-.25.23-.46.21-.39-.37-.58-.88-.78-1.37-.26-.03-.54-.18-.81.16.22.17.44.34.63.49q-.1.46-.44.45c-.2-.19-.41-.39-.62-.6-.13.04-.25.08-.38.12.09.26.56.38.18.73-.23-.13-.45-.26-.47-.57,0-.27-.22-.25-.41-.25-.17.21-.51.29-.46.65.23.41.69.62.86.96v.44Zm120.01,187.13v-.43l-.71-.71c-.4.48-.39,1.15-.72,1.67-.06.1-.01.28-.01.45.12.16.37.29.27.59-.15.25-.53.36-.57.79.08.11.19.26.31.42v1.49c.21.55.36.94.71,1.17h1.43s.07-.06.15-.14v-1.18c.31-.29.58-.55.85-.8v-.58c-.1-.11-.2-.21-.29-.32v-.85c-.32-.49-.34-1.1-.71-1.56-.24-.01-.48-.01-.71-.01Zm-139.53-35.6c0-.17-.02-.34-.04-.57-.2.01-.36.02-.54.04.16.28.3.48.58.53,0,.24,0,.48,0,.72-.13.13-.27.27-.41.4-.38-.15-.4-.56-.65-.89-.5.25-1.02.51-1.53.76v.58c.1.1.19.21.28.3.11.31-.2.41-.28.62.04.22-.1.48.13.66.32.06.66-.07.96.1.17.28-.02.44-.2.6v2.42c.16.02.29.04.41.05.14-.21.42-.29.43-.65-.07-.09-.17-.23-.3-.39.14-.04.26-.09.39-.13.12.11.22.2.33.3.1-.09.2-.18.3-.27.22-.05.47.1.71-.14,0-.62,0-1.29,0-1.95,0-.06.1-.12.17-.2.18.26.38.44.68.15,0-.05,0-.09,0-.14v-1.06c-.41-.11-.24-.63-.56-.88-.09-.07,0-.36,0-.52-.16-.16-.3-.3-.43-.43-.15-.02-.29-.02-.43,0Zm-19.5,42.65v1.55c.2-.01.35-.02.52-.03v-.98c-.15-.16-.28-.29-.55-.42v-2.45c-.17-.17-.4-.31-.49-.51-.11-.24-.25-.47-.36-.71-.07-.15,0-.36,0-.5-.22-.22-.39-.39-.57-.57v-1.99c-.2-.21-.39-.41-.58-.61.07-.61-.33-1.02-.6-1.54v-.66c-.14-.27-.23-.42-.31-.57.13-.15.22-.25.34-.39-.04-.38.03-.81-.02-1.15-.14-.13-.21-.2-.27-.26v-1.73c-.27-.27-.54-.54-.81-.81-.03-.13-.05-.27-.11-.39-.06-.12-.17-.21-.26-.33v-.8c-.1-.1-.17-.17-.25-.25v-.6c-.2-.05-.22-.36-.5-.36-.13.14-.26.28-.35.38v.57c.11.14.2.25.3.37v1.53c.45-.2.57.19.83.39v.57c-.09.1-.19.2-.28.3v.49c.21.37.39.68.59,1.04v1.81c.18.35.26.63.44.81.26.26-.05.66.28.9.21.15.13.54.41.68v1.82c.17.13.4.3.55.41.06.34-.07.6.17.77.19.14.11.34.15.51.06.21.18.4.28.61v.72c.09.1.18.2.28.31v.55c.1.11.2.21.3.32v.6c.32.2.43.64.88.6Zm18.92-143.14c0,.28-.28.35-.43.59h-1.34c.11.87.84,1.05,1.38,1.42h.8c.14-.27.29-.54.44-.82-.05-.39.11-.81-.12-1.19h-.73c0-.29,0-.57,0-.86,0-.08-.06-.16-.09-.25-.06-.07-.12-.13-.18-.2.09-.1.19-.21.27-.3.14-.55-.43-.93-.33-1.41-.14-.16-.26-.31-.52-.63-.15.3-.27.55-.47.95-.07-.34-.1-.47-.15-.7.29-.25.62-.52.88-.75.07-.31-.11-.41-.21-.56-.09-.14-.12-.32-.17-.46h-.79c-.52.27-.95.49-1.38.71v.36c-.18.14-.4.32-.59.47v1.17c-.11.12-.2.23-.26.3v1c.13.31.19.48.27.63.27.47.48.99.95,1.32.07.05.17.04.26.06.42-.12.44-.54.63-.85h.59c.14.11.27.36.57.26.08-.08.19-.18.29-.27.15.01.3.01.44.01Zm128.88-50.43c-.02-.15-.3,0-.27-.24.04-.28.01-.57.01-.86-.2-.34-.58-.42-.88-.62-.11-.07-.14-.13-.24.03v.88c.1.12.17.22.25.32-.13.04-.24.12-.3.09-.4-.2-.85-.33-1.14-.71-.07-.09-.23-.12-.35-.17q-.49.76-1.08,1.01v2.04c-.25.25-.46.44-.65.66-.11.13-.18.3-.26.42.39.39.72.73,1.05,1.07h.6c.11-.22.34-.24.55-.32.22-.09.38-.35.58-.55.32.4-.04.55-.15.75v.86c.15.15.28.28.42.42.13-.23.25-.47.41-.68.18-.22.4-.41.6-.61v-.5c.21-.37.39-.68.59-1.03v-1.07c.08-.08.15-.15.24-.24.02-.31.02-.63.02-.95ZM26.97,136.12c-.46.11-.73-.33-1.3-.44.3-.24.52-.41.74-.57.05-.04.13-.05.17-.07.13.09.24.17.33.24.13-.04.21-.07.3-.1l-.39-.78h-1.14c-.12-.1-.21-.18-.31-.26-.63.63-1.24,1.24-1.85,1.85v.57c-.1.11-.2.21-.3.32v1.14c-.37.2-.26.57-.29.8-.14.22-.23.37-.3.48.23.42.42.77.61,1.1v.73c.11.19.39.3.29.6.24.24.47.47.72.72h1.7s.07-.06.12-.1c.02-.21.05-.44.07-.64.19-.24.47-.36.54-.66.04-.24-.24-.3-.27-.46-.03-.19-.06-.35-.21-.49-.16-.15-.13-.33.02-.48.23-.02.46-.04.69-.07.02-.35-.23-.21-.24-.37-.22-.11-.43-.21-.59-.29.05-.2.05-.33.1-.37.11-.07.26-.07.38-.11.04-.01.07-.06.11-.11v-.56c.1-.11.2-.21.3-.32v-1.3q.29-.17.17-.55c-.3.11-.11.36-.17.55Zm142.41-66.9c0-.28-.29-.36-.41-.55-.23-.02-.45-.04-.63-.06-.11-.11-.18-.18-.26-.26-.12.14-.25.28-.41.46v.44c-.16.4-.66.5-.58,1.07.16.12.38.3.58.46v.58c.16.17.29.31.37.41.19.04.32.07.49.11v1.51l.25.25c.06.61-.03,1.22.04,1.78.19.17.32.29.4.36.41.13.55-.52.93-.19.02.09.05.17.09.31-.19.21-.41.45-.63.7.07.14.13.26.19.38.42-.09.74-.43,1.18-.36.03,0,.07-.06.1-.1v-.55c.38-.54,1.18-.59,1.41-1.18v-2.89c-.1-.1-.17-.17-.23-.23-.02-.23-.04-.45-.06-.66-.21-.09-.39-.13-.53-.23-.15-.11-.26-.29-.41-.39-.14-.09-.38,0-.46-.25-.04-.19.11-.45-.13-.65h-.56c-.11-.1-.21-.2-.32-.3-.12.03-.27.03-.41.03ZM30.13,125.22c-.18-.02-.35-.03-.5-.05-.19-.5.19-.62.4-.83.22-.05.48.1.66-.13,0-.09,0-.19,0-.29-.09-.1-.19-.2-.29-.31v-4.69c-.26-.21-.59-.48-.77-.63-.11-.31-.15-.43-.19-.55h-1.46c-.2.19-.39.51-.62.54-.34.05-.47.29-.68.45-.22.18-.43.37-.65.55.19.37-.16.44-.21.6v1.18c.37.24.29.56.25.76-.14.26-.23.41-.31.56.13.15.22.25.32.37.02.21.03.44.05.67.27.03.5.06.68.08.17.15.31.28.44.4-.05.24.1.49-.13.71-.1-.08-.19-.16-.3-.25-.31-.01-.63-.09-.95.06.04.48.5.42.76.61.33.24.51.65.97.77.33.09.62.34.99.54.25,0,.58.09.89-.06-.05-.48-.51-.42-.78-.61-.03-.17-.09-.35.13-.43.11.09.22.18.28.23h.89c.04-.1.08-.18.03-.23.22-.06.44-.04.25-.29-.05.08-.12.16-.16.27Zm97.64,19.09c-.14-.56.41-.9.27-1.39.2-.19.22-.51.39-.69.24-.25.16-.52.19-.79.1-.11.2-.21.3-.32v-.55c.11-.12.2-.23.3-.34v-.83l.27-.27v-.86l.27-.27v-1.98c.1-.11.19-.22.3-.34v-.55c.1-.11.2-.21.29-.32v-5.16c-.1-.11-.2-.21-.3-.32v-2.44c-.13-.27-.29-.45-.26-.59.07-.45-.49-.71-.3-1.18-.2-.35-.39-.7-.57-1.02v-.76c-.09-.1-.19-.2-.29-.31v-.48c-.31-.58-.58-1.09-.86-1.63v-.67c-.16-.28-.28-.58-.47-.82-.21-.25-.49-.45-.52-.48-.23-.51-.33-.75-.45-.99-.04-.08-.08-.16-.14-.23-.31-.33-.63-.65-.84-1.09-.17-.37-.55-.67-.9-.91-.38-.26-.38-.73-.7-1.01-.35-.32-.67-.69-1.02-1.01-.37-.34-.62-.85-1.2-.92-.34-.34-.67-.69-1.02-1.01-.09-.08-.31-.03-.37-.12-.41-.53-1.1-.68-1.53-1.2-.25-.3-.67-.46-1-.7-.34-.24-.77-.46-1.23-.42-.18-.18-.36-.5-.52-.49-.33.01-.45-.31-.74-.34-.21-.02-.4-.18-.6-.27-.2-.1-.41-.28-.6-.27-.33.03-.49-.24-.75-.3-.23-.05-.48,0-.74,0-.09-.08-.2-.17-.31-.26-.21-.02-.44-.04-.61-.05l-.25-.25h-1.14c-.11-.1-.21-.19-.32-.3h-1.12c-.11-.1-.22-.2-.33-.3h-.82c-.13-.11-.24-.2-.3-.25h-.78c-.25.14-.4.23-.55.31-.15-.13-.26-.22-.41-.35-.36.09-.79-.09-1.17.06l-.24.24h-3.44c-.11.1-.21.19-.32.3h-1.98c-.12.1-.22.2-.33.3h-1.11c-.13.11-.24.2-.33.27-.22,0-.42.03-.6,0-.29-.05-.37.28-.6.29-.29,0-.53.02-.77.25-.13.13-.52,0-.64.14-.21.23-.54.12-.72.38-.12.18-.43.08-.59.3-.17.23-.53-.03-.78.2-.22.2-.53.32-.81.45s-.58.22-.85.38-.42.44-.79.54c-.31.08-.52.46-.89.6-.33.13-.57.5-.82.78-.59.66-1.28,1.2-1.76,1.99-.36.6-.99,1.03-1.42,1.46-.28.57-.52,1.04-.89,1.81-.11.1-.43.47-.81.75-.43.32-.51.86-.88,1.23-.29.29-.44.76-.61,1.17-.26.61-.71,1.15-.74,1.85,0,.07-.13.14-.24.25v.87c-.12.11-.19.18-.25.24v.86c-.1.11-.2.21-.3.32v.84c-.08.08-.14.14-.26.26v1.15l-.28.28v7.52l.28.28v1.33c.22.42.37.69.56,1.03v.68c.12.23.2.39.29.55.14.28.24.59.44.82.26.3-.04.79.39.99-.1.36.41.51.32.87.32.22.32.55.29.86.22.32.62.48.61.92.66.91.87,2.08,1.68,2.89-.06.46.55.52.57.91.02.47.69.53.59,1.05.27.27.54.54.81.81s.54.54.81.81.51.58.82.8c.32.24.38.62.61.9.18.22.45.38.59.62.13.23.31.47.35.71.06.39.53.5.55.77.02.33.36.44.34.73-.02.24.22.29.3.49v.68c.44,1.02,1.08,1.79,1.22,2.8.07.07.14.14.2.2v.86c.1.11.2.21.3.32v1.98c.11.12.2.23.26.3v4.03c-.08.08-.15.15-.27.27v3.16c-.12.12-.19.19-.3.3v1.44c-.12.12-.19.19-.3.3v1.44c-.12.12-.19.18-.25.25v3.44c-.1.11-.2.21-.3.32v1.98c-.11.12-.2.22-.3.34v1.98c-.08.08-.15.15-.27.27v2.01c-.12.12-.19.19-.3.3v2.01c-.12.12-.19.19-.27.27v3.13s-.05.07-.08.11c-.07.07-.14.14-.2.2v1.72c-.1.11-.2.21-.3.32v2.27c-.11.12-.2.22-.3.34v1.31c-.22.4-.39.72-.52.97v.86c.1.1.17.17.25.25v1.56c0,.08-.05.17-.08.25-.07.07-.14.13-.2.2v5.74c-.1.11-.2.21-.3.32v1.41c-.11.12-.2.23-.3.34v1.04c-.14.22-.23.37-.32.53.12.15.21.26.32.39v1.96c.1.11.19.22.3.34v.56c-.08.09-.18.19-.28.3v.56c.1.11.2.21.28.3v1.43c-.11.12-.2.23-.3.34v1.73c-.27.11-.24.35-.28.59-.04.25-.19.49-.3.74.1.12.2.22.3.34v5.71c.26.17.27.47.43.76h1.22c.29.31.55.59.8.86h3.16c.11.1.22.2.33.3h1.7c.08.08.15.15.27.27h.83c.18.14.29.23.41.32h3.1c.1.1.17.17.26.26h2.55s.07.05.11.07c.07.07.14.14.21.21h3.58c.08,0,.17-.06.25-.09.07-.07.14-.13.21-.2h2.85c.11-.1.22-.2.33-.3h3.42l.27-.27h1.44l.28-.28c.3-.01.62-.03.9-.04l.25-.25h1.99c.11-.1.21-.19.33-.3h.84c.11-.1.21-.19.32-.3h.84c.11-.1.22-.2.33-.3h.82c.13-.11.24-.2.35-.3h.77c.17-.11.33-.28.4-.25.44.19.67-.26,1.03-.33.37-.07.47-.52.62-.85.04-.08.09-.16.13-.23v-1.6c-.08-.09-.18-.2-.28-.32v-.55c-.1-.11-.2-.21-.3-.32v-.85c-.1-.11-.2-.21-.3-.32v-1.7l-.26-.26v-2.58l-.3-.3v-2.58l-.3-.3v-4.88l-.26-.26v-2c-.1-.11-.2-.21-.3-.32v-.85c-.1-.11-.2-.21-.3-.32v-3.14l-.26-.26v-2.01l-.3-.3v-1.72l-.3-.3v-1.15l-.25-.25c-.05-.42.04-.84-.03-1.2-.13-.12-.2-.18-.27-.24v-3.16c-.1-.11-.2-.21-.3-.32v-1.13l-.26-.26v-2.3l-.3-.3v-1.44l-.27-.27v-1.98c-.1-.11-.19-.22-.3-.33v-.84c-.1-.11-.2-.21-.3-.32v-1.13c-.1-.11-.2-.21-.3-.32v-1.42l-.26-.26v-1.72l-.3-.3v-2.3l-.25-.25s-.03-.09-.03-.13v-3.3s-.05-.08-.07-.11l-.21-.21v-6.73c0-.08.05-.17.09-.27.06-.05.13-.12.2-.18v-1.43c.1-.11.2-.21.3-.32v-.85c.38-.2.2-.6.32-.88.13-.28.37-.52.49-.8.11-.29-.05-.67.32-.87-.01-.39.29-.65.41-.98.11-.29.4-.53.44-.82.05-.4.53-.51.54-.78.01-.37.47-.5.34-.91.3-.29.61-.58.91-.88.27-.27.53-.56.82-.81.32-.28.32-.75.7-1.02.3-.21.57-.51.72-.84.19-.41.67-.6.78-.96.13-.44.57-.62.67-1.02.1-.42.49-.56.68-.87.11-.32.27-.71.69-1.01Zm-26.86-104.37c-.11.1-.21.2-.32.3h-.62c-.11.5-.54.18-.83.31-.39.54-1.09.68-1.51,1.21-.42.52-.93.96-1.41,1.43-.14.33-.19.75-.42.96-.36.32,0,.89-.49,1.1-.06.32.07.66-.1.97-.07.06-.14.13-.2.19v2.01c.1.11.2.21.29.32v.85c.37.2.16.64.33.86.22.29.27.67.58.92.24.19.57.37.52.73l1.36,1.36c.5.13.97.39,1.33.82.23.02.45.05.64.07l.24.24h.85c.11.1.21.2.31.29h2.29c.11-.1.21-.2.32-.29h.8c.77-.56,1.74-.69,2.33-1.43h.27c.35-.34.69-.67,1.02-1.01v-.29c.74-.6.86-1.57,1.43-2.33.04-.37-.04-.79.02-1.14.14-.13.21-.19.27-.25v-1.72c-.1-.11-.2-.21-.29-.32v-.85c-.37-.2-.16-.64-.33-.86-.18-.23-.16-.54-.38-.71-.27-.2-.37-.5-.52-.79-.13-.24-.39-.41-.59-.62-.24-.24-.47-.48-.71-.71-.23-.22-.41-.52-.79-.51-.14-.29-.48-.22-.7-.39-.24-.19-.54-.29-.81-.43h-.45c-.1-.09-.2-.19-.31-.29-1.13,0-2.28,0-3.42,0Zm-1.87,244.04c.25.49.41.8.57,1.12.1.2.24.39.28.6.04.28.41.41.32.73.57.57,1.11,1.2,1.74,1.71.4.33.95.47,1.42.72.32.17.63.37,1.01.31.11.09.22.18.28.24h3.76c.19-.48.69-.14.99-.41.29-.25.7-.36,1.01-.5.43-.39.77-.8,1.21-1.05.3-.17.48-.33.64-.64.3-.56.72-1.05,1.13-1.63v-.49c.1-.11.2-.21.3-.32v-.55c.11-.12.2-.23.26-.3v-2.72c-.13-.32-.27-.49-.26-.64.03-.43-.45-.71-.32-1.18.03-.12-.23-.29-.26-.45-.06-.38-.54-.47-.56-.77-.04-.47-.42-.62-.66-.88-.25-.26-.43-.61-.86-.69-.37-.06-.45-.63-.91-.57-.45-.37-1.05-.49-1.52-.87h-1.11c-.08-.08-.15-.15-.25-.24h-1.78c-.08.08-.15.15-.21.21-.33.17-.77-.17-1.06.2-.23.3-.62,0-.9.28-.23.24-.62.31-1.05.51-.62.62-1.33,1.33-1.92,1.92-.47.94-.86,1.73-1.29,2.59v3.76ZM1.71,150.04c-.1.11-.2.21-.28.3v3.15c.1.12.2.22.27.3v.88c-.23.15-.26.36-.29.61s-.18.49-.29.75c.09.11.18.21.3.36v2.67c0,.09-.04.17-.07.26-.07.07-.14.14-.21.21v1.13c-.12.15-.23.28-.36.44.13.18.24.32.34.46-.07.07-.14.14-.24.24v1.15c.12.2.21.35.31.5-.12.15-.21.26-.31.38v3.79c.16.14.28.26.41.37.41-.31.47-.79.71-1.17-.11-.2-.22-.39-.3-.54.03-.3.4-.37.28-.7-.06-.07-.15-.18-.28-.33.07-.26-.08-.59.08-.91.17-.06.33-.12.49-.17-.02-.35.09-.68-.08-1.01-.06-.05-.13-.12-.2-.18v-1.44c-.1-.11-.2-.21-.28-.3v-1.07c.22-.39.39-.7.54-.97v-3.63c-.14-.25-.23-.4-.31-.55.13-.15.22-.25.32-.37.06-.49-.03-1.01.05-1.47.11-.11.18-.18.26-.26v-2.57s.06-.07.13-.16c.02-.02.09-.08.15-.14v-3.16c-.1-.11-.2-.21-.29-.31,0-.1-.02-.26.02-.28.47-.23.06-.86.5-1.09.02-.23.08-.47.04-.69-.09-.49.42-.83.31-1.32,0-.06.1-.14.16-.22.03-.04.07-.07.09-.09-.11-.19-.21-.37-.47-.83,0-.01-.24-.26-.5-.47-.08-.06-.25.01-.43.03v.92c-.14.18-.23.29-.32.41v3.39l-.22.22v1.07c.15.32.23.48.3.63-.14.15-.23.25-.33.35,0,.48,0,.96,0,1.43Zm185.04-30.29h-.32c-.05.16-.11.32-.17.49-.31.1-.61.2-.81.53.02.11.04.24.05.35.21.07.37.13.52.18v.64c-.39.27-.79.56-1.16.82.01.26.02.45.03.62.36.15.78.2.83.65.03.23.18.32.3.45.05.05.13.07.19.1l.23-.23c.2.1.18.27.13.44-.14.14-.27.27-.4.41h-1.15c-.13.13-.26.27-.44.45.4.28.79.56,1.19.85-.05.16-.08.29-.12.41-.26.02-.49.04-.79.06.03.21.05.37.07.54.26,0,.54-.08.62.01.25.3.71.24.92.55h.85c.13-.25.25-.48.43-.84.03-.18-.1-.52.07-.82.13-.03.26-.07.39-.1.11-.43.51-.77.36-1.45.16-.09.41-.23.59-.33,0-.16.02-.22,0-.26-.07-.12-.16-.22-.3-.42v-1.8c-.28-.59-.47-.99-.67-1.41-.21-.02-.44-.05-.64-.07-.26-.28-.53-.55-.8-.82Zm23.68,35.14c.12.16.23.31.33.43-.14.25-.24.45-.35.64.11.17.21.32.34.5v3.94c.36.26.3.57.19.9-.17.06-.33.12-.5.18v1.17c-.1.11-.2.21-.29.32.05.22-.1.47.1.67.18-.1.37-.2.54-.3.22.26.56.34.49.83-.15.11-.38.27-.55.39v2.38c-.08.18-.33.24-.28.58.05.07.16.21.21.27.13.3-.05.56.21.77.11-.01.24-.03.35-.04.18-.31-.03-.67.31-.94.21-.17-.06-.66.32-.85-.08-.2-.38-.31-.26-.59.09-.1.19-.21.28-.31v-.53c-.13-.18-.23-.32-.34-.47.14-.19.24-.34.36-.52v-1.28c.14-.24.23-.4.32-.55-.13-.15-.22-.26-.34-.4v-4.54s-.05-.07-.07-.11l-.2-.2c.09-.1.19-.21.27-.3v-3.15c-.1-.11-.2-.22-.3-.33v-3.69c-.11-.13-.2-.24-.27-.32-.06-.35.15-.7-.15-.98-.28.19-.44.47-.51.79-.17.06-.33.12-.51.18.19.3.58.4.59.89l-.89.89c.4.15.25.65.59.87.04.03,0,.18-.01.26-.1.11-.19.22-.29.33.08.21-.09.48.16.66h.28c.1-.09.2-.18.33-.3.05.14.09.26.16.45-.22.17-.44.35-.62.48,0,.39,0,.68,0,.93Zm-28.56-47.19h.85c.1-.09.2-.19.33-.31.05.15.09.28.12.39-.32.42-.68.75-1.15.94.19.23.44.08.66.12.2-.1.3-.39.6-.29.1.09.2.19.33.3.12-.03.25-.05.38-.08.02-.36.03-.68.04-.96.21-.21.37-.37.54-.54.04-.41-.03-.84.03-1.19.14-.13.2-.19.27-.25v-1.44c-.35-.2-.29-.65-.56-.92-.09-.09-.01-.36-.01-.52-.28-.29-.59-.5-.65-.92-.02-.17-.2-.31-.24-.36h-1.3c-.2.46-.72.12-.97.41v1.15c-.1.1-.19.21-.28.3v.85c.19.27.58.37.57.86-.12.12-.29.27-.44.45-.15.17-.4.27-.42.48v.49c.09.1.19.2.29.31-.2.09-.39.18-.61.28.04.15.07.28.11.42.48-.16.78.26,1.17.31.14-.09.24-.19.34-.28Zm-35.95-67.47c-.24.28-.45.52-.68.78.04.11.08.24.13.4h.72v1.57c-.08.08-.15.15-.21.21.27.51.49,1.06,1.04,1.33.21.05.48-.12.65.22-.28.05-.54.09-.79.13-.22.22-.42.42-.62.63-.01,0,.01.06.02.1.23.2.41.48.69.63.21-.23.06-.48.12-.7.13-.13.27-.27.4-.4.3.18.61.35.91.52.22-.22.46-.46.69-.69.05-.22-.1-.47.1-.67.17-.06.33-.11.47-.16v-.89c-.1-.11-.2-.22-.27-.3v-1.71c.1-.12.18-.21.27-.32-.42-.2-.19-.6-.32-.88l-1.15-1.15c-.28-.13-.48-.23-.78-.38h-1.03c-.19.18-.39.38-.61.58-.31-.08-.43.07-.4.38.2.25.41.49.65.77Zm30.35,49.8v.49c-.12.23-.2.39-.29.54-.1.15-.2.3-.32.44s-.3.24-.27.37c.42.42.78.78,1.16,1.17.15-.03.41.12.57-.14-.14-.14-.27-.27-.39-.39-.15-.03-.28-.06-.47-.1.03-.19.06-.35.08-.51h1.01c.14.17.31.39.45.56h.63c.15-.15.28-.28.45-.45-.3-.2-.6-.39-.89-.59-.03-.42.25-.56.63-.69.12.08.26.19.38.27.24-.23.49-.46.71-.67v-1.35c-.16-.32-.25-.58-.42-.78-.14-.17-.14-.32-.16-.51-.03-.37-.25-.7-.46-.94-.26-.28-.35-.64-.59-.91-.25-.29-.53-.54-.79-.8-.33.33-.67.67-1.03,1.03v.23c-.1.11-.19.21-.29.31v.86c.16.17.39.3.26.59-.48.22-.48.21-.84.63.21.5.44,1,.88,1.34Zm-108.24-36.1v-1.92c0-.08-.06-.16-.1-.26-.22-.02-.44-.05-.48-.05l-1.14-1.14c-.02-.05-.07-.17-.16-.39-.21.28-.38.51-.5.67-.52.06-.95-.08-1.34.12v.6q.13.14.18.42h-.58c-.26.25-.53.51-.75.72,0,.23-.06.42,0,.51.24.33.29.77.64,1.02.16.12.26.27.2.49-.09.09-.18.2-.28.3v1.43s.06.07.12.12h.68c.43-.31.7-.5.91-.65,0-.19,0-.29,0-.38q.03-.32.42-.37c.39.37.76.78,1.14,1.12.55-.41.85-.91,1-1.45l-.67-.67c.28-.1.44-.15.7-.24Zm-33.59,120.96v-2.74c-.29-.23-.47-.58-.79-.73-.54.09-.6.55-.82.87-.41.02-.55-.25-.69-.57-.19-.46-.4-.92-.8-1.25-.22-.18-.41-.4-.61-.6-.06-.06-.15-.11-.22-.16-.22.04-.48-.1-.66.14v.57c-.1.11-.2.21-.28.3v.56c.11.12.2.23.26.3v.87c-.19.19-.36.36-.54.54.08.1.17.19.25.3.02.45.06.44.19.77.16.41.53.76.41,1.26.14.14.27.27.41.41h.56c.11.1.21.2.31.29.3.11.4-.19.6-.26.3-.15.66.14.95-.15,0-.23.03-.45.04-.73.49.01.91.01,1.43.01Zm1.72-88.66v1.79c-.1.1-.19.21-.28.3v.76c.17.32.29.56.41.8h.62c.25.29.53.61.8.93.03-.04.06-.08.09-.12.18.1.36.2.55.31l.21-.21c.31-.03.63-.06.95-.09.03,0,.06-.07.09-.1.1-.29-.18-.4-.28-.59v-3.62c.2-.37.37-.68.51-.93-.23-.26-.45-.51-.63-.72h-1.34c-.09.14-.23.38-.37.61-.28-.3-.13-.55-.19-.77-.29-.26-.24-.36-.68-.43-.54.38-.87.91-1.06,1.6.21.17.43.34.6.48Zm-12.43,126.6c.27-.14.46-.25.66-.34.23-.12.47-.22.72-.34.19.42.35.79.52,1.15,0,.03.08.04.16.08h.7c.24.14.39.23.58.34.29-.29.55-.56.76-.76v-1.79c-.24-.15-.25-.37-.28-.61-.04-.25-.19-.49-.28-.71.09-.24.4-.33.23-.56-.12-.2-.24-.4-.28-.46-.37-.11-.64.04-.79-.22v-.62c.27-.18.56-.38.88-.59-.04-.12-.09-.24-.12-.34-.43-.22-.53.46-.91.27-.04.12-.07.26-.14.37-.31.55-.88.77-1.45,1.09h-1.32c-.05.07-.1.11-.1.14v3.41c.12.15.25.29.46.49Zm155.12-55.61v1.09c.44.69.62,1.49,1.32,1.92h1.08c.35-.3.63-.66,1-.83.41-.19.64-.51.89-.77.06-.27-.15-.36-.24-.52-.09-.14.01-.38-.23-.43-.13-.04-.25-.08-.39-.12.32-.42.43-.94.85-1.18v-.94c-.14-.03-.26-.07-.65-.16-.22-.25-.59-.67-.94-1.06-.2,0-.35-.03-.48.01-.12.04-.21.18-.33.24s-.26.07-.38.11c-.11.03-.12.28-.29.15l-.22-.22c-.13.14-.34.25-.38.41-.07.23-.11.44-.32.58-.04.52.04,1.04-.04,1.49-.11.1-.18.17-.25.23Zm9.76,31.35c-.25-.28-.5-.55-.73-.79-.38.08-.73-.14-.98.17.14.14.26.3.41.4.12.08.37-.08.39.21-.19.13-.27.41-.6.38-.12-.07-.26-.16-.35-.21-.16.12-.31.23-.54.41.28.2.51.36.69.49-.01.29-.02.48-.04.79-.44-.19-.57.18-.87.42v.97c-.17.38-.24.54-.3.68.14.15.23.25.32.35v.53c-.13.18-.23.32-.35.5.25.28.46.51.63.7.01.25.02.44.04.68.45.04.86.02,1.28.01l.41-.41v-.28c.36-.12.67-.31.88-.62.2-.29.37-.61.58-.96v-1.07c.36-.19.24-.51.26-.79-.08-.1-.18-.2-.28-.32v-.54c-.16-.15-.25-.37-.5-.4-.06.17-.12.34-.2.56-.15-.31-.28-.56-.4-.8.09-.12.17-.22.23-.3.02-.29.02-.53.02-.76ZM46.98,68.66c-.28-.06-.53.09-.74-.13v-1.21l.56-.56c-.07-.2.09-.44-.09-.65-.45-.22-.56.2-.78.39-.05.22.1.48-.11.66-.29.14-.43-.08-.62-.27-.2.08-.45-.09-.68.12v.9c.1.12.17.22.25.32-.54.23-1.07.38-1.42.83v.85c-.1.11-.2.21-.28.3v1.46c.36.16.81.24,1.06.51.33.35.83.41,1.12.79.24.32.78.26.94.71-.32.44-.35.74-.12.97.1-.1.21-.19.27-.25.18-.05.31-.08.36-.1.13-.27.23-.47.37-.76v-.46c-.09-.09-.18-.2-.28-.3v-.56c.1-.11.2-.21.28-.3v-1.42c-.1-.12-.2-.22-.27-.3-.19-.54.5-.91.18-1.54Zm162.02,115.84v2c-.1.11-.2.21-.28.3v1.43c.1.12.2.22.28.31.05.37-.08.65-.26.88v1.14c.15.14.28.27.41.39.24-.21.09-.46.14-.7.09-.09.18-.2.28-.3v-.85c-.09-.1-.19-.2-.27-.3.1-.11.19-.22.29-.33v-.83l.27-.27v-2.3l.3-.3v-2.01l.3-.3v-.86l.25-.25v-.98c-.16-.11-.38-.27-.52-.37.1-.43.58-.48.51-1-.16-.13-.39-.3-.56-.44v-1.24c.19-.14.24-.35.33-.57.09-.24.37-.41.51-.54v-1.49l-.23-.23c-.02-.62.03-.73.54-1.47v-2c.1-.11.2-.21.28-.3v-1.15c-.14-.07-1.04-.33-1.1-.32-.01.4-.16.8.2,1.18.13.14.1.44,0,.65l-.23.23v.56c-.1.11-.2.21-.3.32v.56c.1.11.2.21.2.22.22.41-.13.49-.22.75v.76c-.11.14-.2.24-.26.31-.15.56.52.94.21,1.48l-.21.21v.84c-.12.15-.23.29-.32.41q.36.66.01,1.13v1.38l-.27.27v2.58l-.27.27c.08.1.16.19.26.31v.56c-.08.06-.17.17-.27.27Zm-25.27,22.56v1.07c-.17.14-.39.31-.58.47.06.41-.06.69-.26.92v1.14c.35.28.56.63.73,1.01.16.36.33.72.47,1.01.29.15.52.27.76.39h.43c.18-.23.46-.28.66-.36.14-.27.31-.49.37-.74.06-.27-.02-.57.33-.77v-1.11c.21-.38.37-.65.54-.96v-1.02c-.36-.39-.68-.73-.99-1.06h-.84c-.18.13-.33.23-.47.34-.19-.14-.34-.24-.46-.32-.22-.01-.4-.01-.69-.01ZM4.17,197.27c.15-.2.21-.39,0-.53-.19-.05-.32-.09-.44-.12,0-.26-.09-.5.05-.71.17-.06.33-.12.5-.17v-.32c-.09-.1-.19-.2-.28-.3v-.86c.16-.17.39-.3.26-.6-.13-.13-.27-.27-.41-.41-.29.42-.02.92-.2,1.37-.12.11-.25.23-.38.35-.06-.06-.12-.09-.12-.12,0-.48,0-.95,0-1.42-.11-.11-.2-.22-.3-.32v-1.14c.1-.11.18-.21.27-.31-.08-.08-.14-.14-.25-.25,0-.28-.03-.6-.04-.86-.16-.19-.29-.33-.42-.48-.15.04-.27.07-.39.1v2.12c.23.19.38.38.16.61-.14.15-.24.28-.19.5.09.1.19.2.24.26.04.9.71,1.49.9,2.29-.09.1-.18.2-.28.31,0,.31-.09.64.06.95.07.07.14.14.21.21v.54c.12.16.23.31.33.43-.14.25-.24.45-.34.63.17.3.28.57.33.91.05.33.32.63.55,1.02v3.04s.05.07.08.11c.07.07.14.14.2.2v1.71c.1.1.19.2.26.29-.11.16-.21.3-.36.51.24.15.43.28.71.47.13-.06.48.17.79-.07v-.93c-.1-.1-.17-.17-.24-.24v-1.41c-.1-.11-.19-.21-.3-.32v-.56c.09-.1.18-.2.27-.3-.1-.11-.19-.21-.26-.29v-.85c.11-.13.2-.24.33-.4-.3-.53-.69-1.04-.68-1.66-.1-.1-.17-.17-.24-.24v-1.17c-.2-.13-.25-.33-.33-.56-.08-.24-.37-.41-.58-.61.06-.16.11-.28.15-.39.16-.01.25-.01.37-.01Zm80.8-21.09c-.44.37-.26.8-.25,1.19.14.13.27.25.4.37.24-.22.08-.47.13-.69.1-.1.19-.21.29-.31v-2.28c.1-.11.2-.21.29-.32v-2.55c.11-.12.2-.23.3-.34v-.83l.22-.22c-.15-.31-.37-.61-.17-.98.07-.07.14-.14.21-.21v-2.85c.34-.21.25-.7.58-.91v-6.29c-.1-.11-.18-.21-.29-.33.19-.07.36-.13.66-.24-.34-.15-.39-.39-.36-.67.03-.33-.37-.5-.31-.89.03-.22-.2-.47-.31-.71.04-.03.08-.06.12-.1-.33-.27-.66-.54-.91-.75-.06-.33.04-.57-.16-.78-.14-.15-.2-.38-.3-.58-.38.21-.58-.65-.99-.15.7.64.81,1.27.89,1.77.27.27.54.54.81.81.02.03,0,.09.02.21,0,.11-.02.29-.04.45-.22.08-.39.13-.58.2.64.49.8,1.24,1.17,1.85.08.13,0,.36,0,.47-.14.14-.21.21-.28.28v.57c.18.19.37.39.56.59-.08.08-.15.15-.26.26v1.05c-.17.28-.26.43-.35.58.12.15.21.26.31.37v1.53c-.29.05-.56.09-.82.13v1.74c.17.29.33.56.48.83.04.08.08.16.09.25,0,.14,0,.28,0,.53-.18.13-.41.29-.6.42v1.49c-.19.19-.36.36-.55.55v1.26c0,.09.05.17.08.25.07.07.14.14.21.21v.86c-.09.1-.19.2-.29.31v.55c-.1.11-.18.21-.26.3.1.12.19.23.27.32-.02.48-.02.91-.02,1.43Zm-63.74,18.37c.13.13.27.27.4.4h.93c.1-.1.17-.17.24-.24.19.47.51.84.9,1.12h1.42c.15-.15.28-.28.42-.42v-.85c-.09-.1-.19-.2-.27-.3.1-.11.19-.21.26-.3v-2c-.17-.22-.44-.34-.5-.56.11-.19.19-.35.33-.61-.17-.12-.32-.25-.48-.34-.26-.13-.13-.43-.33-.64-.15,0-.35.03-.52-.01-.15-.04-.27-.16-.41-.25-.11.31-.18.57.02.81.14.03.27.06.43.09v1.53c-.14.15-.27.29-.39.42h-.59q-.71-.71-.62-.81c.26-.05.52-.09.74-.13.13-.36-.15-.47-.26-.66-.05-.22.1-.48-.15-.69-.2.05-.43-.08-.68.09v.64c.08.1.16.2.23.29-.29.29-.56.56-.83.83-.03.42.03.84-.02,1.19-.14.13-.21.19-.27.25,0,.38,0,.76,0,1.15Zm1.15-23.55c.14.14.27.27.41.41.23.02.45.04.69.06.07.4.12.76-.06,1.11h-.31c-.19-.18-.39-.37-.59-.56-.18.18-.35.35-.52.52-.18-.1-.37-.2-.55-.31-.18.32-.34.59-.52.9v1.06c-.19.07-.36.13-.52.19v.95c.2.2.37.37.54.54-.09.1-.18.2-.28.3.31.22.47.61.85.74.22-.12.41-.23.62-.35.16.11.29.26.45.31.17.05.37.01.48.01.16.12.25.19.34.26.54-.54,1.05-1.05,1.55-1.55-.1-.1-.19-.21-.29-.31v-.85c-.14-.38-.52-.36-.85-.53.03-.42-.09-.88.09-1.35.15.13.25.22.35.31l.44-.44c-.51-.25-.57-.82-.91-1.23v-.79c-.16-.15-.3-.28-.41-.39h-.58c-.15.15-.28.28-.42.42,0,.19,0,.38,0,.57Zm1.81-13.29c.32.1.61.38,1.05.13,0-.18.02-.41.03-.64.35-.22.29-.55.22-1.04-.13-.08-.37-.23-.54-.33.02-.32.03-.5.04-.64.21-.21.38-.38.55-.55v-.29c-.52-.34-1.19-.45-1.56-1.01h-.59c-.14-.14-.3-.25-.4-.41-.08-.14.02-.38-.28-.46-.08.03-.21.07-.33.12v1.17c-.2.21-.39.41-.57.59v1.75c.46.19.12.72.38.95.17.03.3.06.47.1v1.91c.46.08.88,0,1.42.06.11.15.28.38.38.53h.7c.08-.23.4-.28.37-.58-.14-.31-.3-.59-.71-.55-.1.09-.2.19-.31.28.24-.48-.68-.58-.32-1.09Zm156.25,66.85c-.45.3-.42.89-.94,1.17h-.88c.13.63.88.47,1.08.96,0,.31.09.64-.05.94l-.22.22c0,.75,0,1.51.01,2.27,0,.05.11.09.18.14.07-.17.13-.34.21-.52h.64l.54.54h.57c.18-.09.28-.38.56-.28.47-.33.77-.79,1.02-1.42-.05-.27.09-.7-.02-1.05-.12-.12-.19-.18-.25-.25v-.87c-.2-.19-.38-.41-.61-.59-.17-.13-.38-.21-.58-.31-.28-.13-.6-.21-.79-.5-.14-.17-.32-.31-.47-.45ZM113.41,27.46c.36-.22.86-.31.87-.89,0-.04.14-.12.22-.12.33-.02.45-.29.59-.47v-1.59c-.16-.1-.41-.24-.65-.38.13-.23.19-.34.28-.51.21.12.39.22.61.34.03-.14.06-.27.08-.4-.55-.35-1.21-.47-1.57-1.01-.16.12-.3.22-.4.3-.58-.17-.72-.84-1.31-.89-.17.15-.34.3-.45.4v1.49c.08.08.19.14.21.22.07.35.11.69.33,1.01.13.2.07.56-.23.73v2.08c.17.15.3.28.48.44.16-.09.31-.18.53-.3.25.25.52.55.83.81.07.06.25-.03.39-.05v-.75c-.27-.15-.54-.3-.81-.46Zm18.16,6.45h.91c.1-.1.21-.19.31-.29h.88c.06-.16.08-.35.18-.49.14-.19.33-.34.5-.5v-.58c-.1-.11-.2-.21-.29-.31v-1.42c-.22-.17-.35-.42-.69-.45-.18,0-.33-.29-.48-.43v-.9c-.22-.11-.29-.41-.7-.35-.17.17-.46.36-.61.63-.15.28-.25.59-.25.59-.49.28-.75.07-1,.34.03.12.06.28.08.38.22.05.35.09.41.1.13.27.22.46.37.77v1.03c-.18.19-.37.39-.56.59.14.14.28.28.41.41.25,0,.48,0,.45.29-.34.34-.64.64-.96.95.22.2.36.33.5.45.18-.26.37-.55.54-.81Zm-64.73,257.4c-.1-.17-.2-.36-.3-.52.14-.16.23-.26.3-.33-.19-.33-.36-.64-.56-1.01v-.77c-.16-.15-.3-.28-.41-.39-.25-.05-.51.1-.7-.14,0-.18,0-.37,0-.32-.21-.36-.33-.56-.41-.71-.3.02-.48.03-.61.03-.27.21-.39.5-.71.56-.22-.11-.46-.22-.68-.33l-.47.47v1.41s.05.07.13.17c.13-.02.29-.05.44-.08v-.64c.25-.16.36-.62.83-.33v.64c-.09.12-.18.22-.23.28v1.75c.43.2.15.62.34.91.11.02.24.05.54.12.08.12.23.35.34.52.31-.02.49-.03.7-.04.04-.29.08-.56.13-.83.25.1.36.4.68.27.2-.21.43-.46.65-.69ZM121.76,32.57c.3-.2.64-.06.96-.1.14-.14.27-.27.41-.41.02-.32.04-.64.05-.91.12-.12.18-.18.26-.26v-.85c.1-.11.2-.21.29-.31v-.28c-.3-.25-.85-.21-.86-.81.07-.08.15-.19.26-.32-.19-.27-.45-.49-.7-.72-.23.25-.08.51-.15.73-.17.17-.34.34-.51.51-.06.16-.11.33-.17.51-.17-.17-.43-.33-.41-.43.07-.39-.47-.5-.34-.88,0,0-.12-.06-.19-.1-.14.14-.26.28-.4.43.05.13.09.26.13.38h.31c.15.28.3.55.48.88v.81c.26.02.48.04.71.06.14.14.27.27.43.43-.17.28.16.37.24.57.01.02-.06.07-.1.1-.09,0-.18.02-.29.03-.1-.09-.2-.18-.26-.24-.45-.15-.89.07-1.29-.12-.07-.54-.48-.79-.84-1.08-.03-.02-.09,0-.28,0-.08.11-.21.3-.37.51v.64c.17.11.4.27.59.4v.92c.33.33.64.64.94.94.36-.09.52.32.87.36.22.02.41.34.64.55.06-.18.12-.35.18-.51.23-.1.62-.03.5-.48-.2-.52-.91-.41-1.09-.95Zm-40.87-4.24c.22.62.76.78.94,1.28-.17.42.29.69.36,1.09.16.05.33.11.51.17l-.74.74h-.28c-.14.18-.38.28-.44.53v.43c.19.19.29.51.68.47.08-.06.19-.15.33-.27.32.28.6.65.9.85.16,0,.22,0,.25-.02.44-.43.88-.87,1.18-1.17.22-.46-.15-.52-.21-.92v-.64l-.54-.54v-.56c-.1-.11-.2-.21-.31-.33.02-.11.05-.24.07-.35.21-.07.37-.13.51-.18v-1.23c-.34-.14-.44-.6-.99-.69-.1.15-.3.37-.61.33-.2.36-.57.23-.71.26-.36.31-.62.52-.9.75Zm96.91,164.38c-.19.21-.29.31-.37.4v1.44l.42.42h.86c.1-.09.2-.19.31-.29h.33c.08-.24.09-.54.35-.7.27-.16.27-.46.41-.7.23-.03.45-.05.76-.09-.02-.61.01-1.22-.02-1.81-.1-.12-.19-.22-.28-.32,0-.26.02-.5-.01-.74-.03-.27.13-.57-.14-.81-.28,0-.57-.01-.85,0-.32.02-.66-.09-.98.09-.03.22-.02.47-.1.67-.09.24-.26.45-.4.67-.23.05-.49-.1-.68.14v1.14c.12.15.23.29.39.49ZM29.61,227.33c.25-.3.46-.56.62-.75.31-.06.57.08.77-.17-.02-.11-.04-.24-.05-.33-.34-.26-.49.15-.74.14-.12-.13-.25-.27-.35-.38-.05-.26.09-.52-.15-.71-.23,0-.47-.01-.71,0-.27.02-.56-.08-.75.04-.26.5-.48.94-.7,1.37v.73c-.09.1-.18.2-.28.31v.5c.2.35.38.66.58,1.02v.73c.26.28.48.52.7.76.32-.12.42.19.59.26h.91c.04-.13.07-.26.12-.44.16-.16.35-.37.53-.56v-1.1c-.13-.19-.23-.33-.35-.5.23-.26.43-.48.68-.77-.23-.03-.36-.04-.47-.06-.15.15-.29.29-.43.43,0,.18.04.39-.28.44-.07-.03-.19-.08-.22-.1-.23-.37.12-.45.18-.65-.06-.07-.13-.14-.2-.21Zm175.53-117.55c-.07-.03-.26-.12-.44-.21v-.6c.2-.1.39-.19.55-.27.12-.34-.23-.42-.3-.75v-.7c-.19-.19-.36-.36-.58-.58v-1.15l-.25-.25v-.86c-.18-.15-.32-.32-.32-.59,0-.05-.22-.11-.38-.18-.23.27-.44.52-.66.79.05.09.2.24.2.38,0,.3.43.41.3.74.35.21.25.56.31.88.03.16.19.29.28.45.2.36.52.65.8.98-.16.16-.26.44-.61.44-.25,0-.23.24-.17.6.11.07.34.21.55.34-.14.19-.21.28-.28.37l.55.55v2c.1.11.19.21.29.32v.84c.1.11.2.22.3.33v1.02c.21.4.36.7.52,1l-.23.23c.09.1.17.2.27.31v1.41s.06.07.09.11c.07.07.13.14.2.21v1.43s.06.07.1.1c.18-.1.36-.2.54-.3.15.14.26.24.36.34.21-.2.19-.39-.01-.59-.06-.06-.09-.15-.12-.21-.01-.2-.03-.39-.03-.51l-.26-.26v-1.7q-.24-.27-.29-.6c.1-.11.19-.21.27-.3v-1.17c-.44-.29-.59-.8-.89-1.27v-.74l-.24-.24v-1.36c-.14-.29-.25-.48-.42-.78ZM51.09,274.65v1.9c.28.59.55,1.08,1.04,1.4h.84c.09-.19.19-.39.28-.58h.87c.13-.24.25-.48.42-.8v-2.63c-.24-.22-.55-.5-.85-.77,0-.2-.02-.39,0-.28-.23-.73-.73-.66-1.05-.92-.14.17-.17.34,0,.49.16.14.23.29.16.5-.13.13-.26.26-.4.4h-.28c-.14.23-.25.48-.42.68-.18.22-.41.4-.61.61Zm116.85-29.01v-.98c-.16-.11-.39-.28-.59-.42v-.61l-.39-.39c-.17.09-.33.16-.48.26-.15.1-.3.2-.44.32s-.27.26-.4.39c0,.34-.01.67,0,1.01,0,.08.06.16.09.25.16.06.33.11.51.18-.07.45-.31.67-.71.76-.21-.48-.51-.86-.92-1.15-.16,1.06-.18,2-.05,2.2.17.17.37.33.13.59-.17.06-.33.11-.49.16v.32c.13.13.27.27.4.39h.6c.18-.13.29-.2.35-.25h.49c.14-.11.28-.22.16-.12.54-.3.57.23.84.02.03-.23.05-.45.08-.72.24-.02.46-.04.69-.05l.41-.41v-1.42c-.05-.08-.12-.15-.28-.33ZM94.01,32.19l.4-.4v-1.13c-.21-.39-.36-.66-.51-.95.18-.08.24-.36.55-.4.14.07.32.16.54.28v-.76c-.49-.26-.52-.85-.92-1.19s-.74-.74-1.12-1.1c-.06-.06-.16-.06-.25-.09-.27.02-.35.29-.56.43,0,.18.08.46,0,.54-.29.26-.23.71-.56.92.05.22-.1.47.11.67.57.04.66.07.7.14-.23.27-.45.52-.61.71-.21.06-.34.09-.48.13,0,.22-.08.48,0,.58.27.27.21.72.56.92v.57c.25.16.35.62.79.36.06-.17.12-.33.17-.49.12,0,.22,0,.32,0,.1.09.2.19.31.29.18-.02.37-.02.56-.02Zm-58.74,209.69c-.41-.19-.68-.31-.92-.42-.3.28-.54.51-.78.74v2.01c-.1.11-.2.22-.27.3v.7c.36,1.04,1.16,1.52,1.66,2.14.06.2.1.33.15.47.16-.02.29-.04.4-.06.07-.2.13-.37.18-.53h.61c.14-.14.27-.27.43-.43v-1.97c0-.1,0-.19,0-.29,0-.04-.05-.08-.12-.19-.2-.12-.47-.28-.74-.44v-1.42c-.24-.24-.48-.48-.6-.61Zm173.73-107.63c-.18-.17-.31-.29-.54-.51-.05.55-.05,1-.02,1.39l.27.27v1.14c.1.11.2.21.29.31.11.29-.18.39-.26.59l.56.56v3.02c.17.33.25.49.32.63-.13.15-.23.25-.32.36.09.1.18.2.28.31v.84c.1.11.2.22.3.33v1.7l.27.27c0,.7,0,1.46.01,2.21,0,.08.09.15.14.23h.57l.42-.42v-.58c-.07-.08-.17-.19-.27-.3v-1.42c-.1-.11-.2-.21-.29-.32v-2.81c-.1-.05-.35-.17-.61-.29l.29-.29v-.92l-.26-.26v-2.55s-.05-.07-.07-.11l-.21-.21v-2c-.28-.15-.25-.48-.4-.7-.22-.14-.57.15-.73-.2.06-.07.13-.14.26-.27Zm-130.06,164.76v.61c-.1.11-.2.21-.28.3v.56c.1.12.2.22.25.29.27.59-.67,1.02-.11,1.59h.28c.31.31.61.61.91.92.13.14.26.28.43.24.36-.36.7-.7,1.08-1.08v-2.77c.1-.11.19-.21.29-.32v-.56c-.09-.1-.19-.2-.29-.31v-1.24c-.17-.13-.4-.3-.55-.41-.06-.33.08-.59-.2-.8-.1.04-.24.07-.35.13-.08.04-.13.15-.21.18-.12.05-.26.06-.41.08.02.17.03.3.04.43.29.05.55.09.81.14v.62c.1.11.2.21.29.32v.57c.16.17.39.3.27.59-.13.13-.27.27-.46.46-.07-.34-.12-.63-.19-.97-.28.14-.54-.06-.72.16-.07.16.03.38-.21.45-.14-.19-.29-.39-.67-.18Zm-35.1-40.38l-.97-.97c-.35.17-.78.38-1.27.62v1.2c-.22.08-.38.14-.55.2v1.15c-.12.16-.23.3-.34.45.4.58.5,1.29,1.05,1.75h.86c.1-.1.21-.19.31-.29.1-.01.2-.01.21-.01.39-.36.73-.69,1.06-.99v-1.15c-.11-.12-.2-.23-.29-.34v-.75c-.14-.23-.23-.38-.32-.53.11-.16.2-.27.25-.34Zm146.65-82.32c.22-.05.47.1.72-.15v-.86l.25-.25v-1.01c-.3-.42-.5-.69-.71-.99-.23.15-.38.24-.45.28-.19-.1-.39-.21-.55-.3v-.62q-.42-.41-.64-.41c-.3.14-.49.49-.77.72v.28c-.1.11-.2.21-.29.31v2.44c0,.08.07.16.11.24.16.05.38-.02.48.26-.09.35-.27.63-.72.65-.04,0-.07.12-.11.18.14.14.28.26.39.37h.78c.41-.38.76-.7,1.04-.96.07-.21.11-.34.16-.49.1.13.2.22.31.31ZM13.34,90.76c-.14.27-.29.55-.43.83v.73c-.09.1-.18.2-.28.31-.06.21.09.46-.1.66-.17.06-.33.11-.49.16v1.18c-.1.11-.2.21-.29.32v1.25c-.17.12-.4.28-.54.38-.03.42-.05.7-.08.98-.4.27-.19.69-.24,1.01-.29.54-.56,1.05-.87,1.63v.76c-.1.11-.2.21-.28.31,0,.16.03.31,0,.44-.07.21-.24.39-.26.6-.03.24-.1.42-.23.63-.1.15-.04.44,0,.66,0,.1.13.18.2.27-.21.21-.38.38-.55.54v.57c-.1.11-.2.21-.29.31v2.27c-.1.12-.2.22-.25.29v1.18s.06.07.13.13c.11-.15.23-.29.42-.54v-1.52c.22-.42.37-.7.56-1.06v-1.61c.1-.11.19-.21.29-.31v-.48c.31-.58.58-1.09.88-1.66v-1.89c.19-.19.43-.33.51-.54.08-.22.12-.44.33-.58v-.8c.2-.35.38-.66.59-1.02v-.78l.26-.26v-1.15l.56-.56c.11-.42-.09-.9.16-1.38.22.33.43.49.72.21-.1-.1-.19-.21-.28-.3v-1.25c.17-.13.4-.29.62-.45-.08-.2-.12-.32-.17-.44-.2-.03-.39-.03-.58-.03Zm25.93,138.39c.57-.26,1.17-.49,1.46-1.04v-1.13q-.24-.39-.33-.97c-.31-.02-.63-.03-.95-.05-.21-.16-.33-.43-.6-.51-.1.25-.15.52-.39.71v.82c-.18.33-.5.41-.8.52-.06.16-.11.33-.17.51-.17-.04-.3-.06-.44-.1-.04-.34.09-.71-.32-.94v-1.78c-.13-.04-.22-.09-.3-.08s-.16.08-.28.14v1.46c-.11.11-.18.18-.25.25v.57c.19.2.38.4.57.6-.11.3.2.4.31.67v1.35s.06.07.1.1c.18-.19.44-.29.47-.64.02-.18.27-.35.41-.51h.53c.21-.13.36-.23.48-.31.19.16.34.25.5.36Zm21.02,47.36h1.85c.11-.1.21-.2.32-.3h.56c.12-.24.25-.48.41-.8v-.51c-.38-.27-.78-.55-1.13-.8-.07-.4.13-.76-.16-1.03h-.86c-.11-.1-.21-.2-.31-.29-.23.05-.48-.1-.67.12-.11.33.09.72-.17,1.04-.2-.2-.37-.37-.53-.53-.27.23-.55.47-.85.73.14.21.24.36.41.63v1.07c.17.17.29.28.41.4l.22-.22c.18.18.37.37.5.49ZM3.43,141.19v-1.32c.16-.12.39-.28.56-.41v-.93c-.37-.23-.29-.56-.25-.79.14-.23.22-.38.31-.53-.13-.15-.21-.26-.32-.39v-.56c.07-.08.16-.18.31-.35v-.85l.25-.25v-4.29c.13-.18.39-.3.28-.6q-.42-.4-.84-.34v1.48c-.12.12-.18.18-.3.3v1.44c-.12.12-.18.18-.3.3v2.3c-.11.11-.18.18-.3.3v2.3c-.11.11-.18.18-.24.24v2.66c.25.19.38.52.84.29Zm-1.27,37.98c.06-.06.12-.1.12-.13v-6.3c-.1-.1-.19-.21-.29-.31-.11-.3.19-.4.27-.57v-.86c-.08-.08-.15-.15-.26-.26v-1.15c-.12-.12-.18-.18-.26-.26-.02-.21-.05-.44-.07-.65-.15-.14-.29-.27-.43-.41-.13.04-.26.08-.39.13v2.17c0,.08.05.17.08.25.07.07.14.14.2.2-.1.1-.19.21-.28.3v.56c.1.12.2.22.29.33v2.84c.08.08.15.15.24.24v.9c-.11.13-.19.24-.23.29v2.08c.5-.04.68.4,1.01.61Zm50.37,80.71c-.33-.68-.57-1.19-1.09-1.46-.28,0-.58-.05-.75.26-.2-.08-.3-.38-.62-.25-.1.11-.23.25-.39.43v1.38c-.1.11-.19.22-.32.36.09.27-.09.61.1.92.17.06.33.11.49.17v.32c-.1.11-.19.21-.31.33.1.2-.09.46.14.65.33.02.65.09.96-.05.02-.09.05-.18.07-.26-.08-.14-.17-.29-.27-.47.16-.03.29-.05.53-.09.12.19.27.42.41.63.61-.48.63-1.2,1.05-1.66,0-.44,0-.87,0-1.21Zm-8.19-14.37c.1-.09.2-.19.31-.28.1.2.19.39.3.6.15-.05.28-.09.4-.13v-2.57c-.12-.22-.23-.41-.47-.82-.18-.18-.55-.55-.93-.93-.05-.41-.21-.71-.59-.75-.4.4-.76.76-1.18,1.17.07.11.18.3.29.49v.74c-.08.09-.17.2-.27.31-.18.5.26.82.36,1.25.58.06.8.61,1.21.91.19.01.38.01.57.01ZM76.36,39.52v2.6c.12.11.24.32.4.35.47.09.72.32.8.8.03.15.24.28.38.42.14-.03.27-.06.4-.09v-.97l-.27-.27c.6-.32.59-1.11,1.15-1.41v-1.18c-.37-.2-.25-.57-.29-.81-.26-.28-.48-.53-.68-.75h-.59c-.3.19-.43.48-.51.79-.37.04-.59.27-.79.52Zm-34.97,66.4c0-.07-.03-.12-.02-.13l1.1-1.1v-.58c-.1-.11-.19-.21-.29-.31v-1.42c-.57-.41-.65-1.22-1.32-1.55-.14.22-.34.29-.6.27-.12,0-.25.06-.37.09v.61c-.1.1-.19.21-.29.31.05.22-.1.47.12.68.15.03.36-.02.48.27-.09.19-.21.42-.35.69.21.24.43.47.62.68,0,.23-.02.42-.03.55l-.55.55c.02.32-.09.65.07.95.39.27.53-.33.91-.21.08.07.18.15.3.25.21,0,.44.08.72-.09-.02-.13-.03-.29-.05-.42-.2-.04-.33-.06-.45-.09Zm112.77,174.47c.28.29.63.11.94.14.32.03.65.01.92.01.26-.26.46-.46.66-.67.03-.03.04-.08.07-.16-.02-.43-.04-.9-.07-1.37,0-.04-.06-.07-.08-.1-.34-.04-.68.1-.99-.11-.03-.22-.05-.45-.08-.7-.28-.14-.4-.48-.77-.61-.14.36.09.77-.18,1.13-.13-.13-.27-.25-.38-.38-.1-.13-.31-.18-.3-.4l.55-.55c-.14-.12-.28-.25-.42-.37-.14-.11-.21-.32-.54-.33-.08.01-.26.02-.47.04v1.58l.26.26v1.06c.32.5.42,1,.86,1.2.02.14.02.23.02.33Zm-26.26,23.4c.17-.18.4-.32.4-.46.01-.29.18-.42.34-.58.13-.13.24-.25.27-.46.03-.2.21-.38.32-.56-.14-.16-.23-.26-.33-.38v-1.38c-.12-.21-.4-.32-.3-.62-.28-.24-.47-.58-.86-.76-.12.08-.22.16-.34.22-.16.08-.32.14-.51.21v.62c.04.14.37.23.31.4-.19.27-.31.45-.42.6-.19-.14-.28-.21-.46-.35v1.29c-.15.17-.24.27-.3.35v.83c.16.18.29.32.4.45h.88c.2.18.36.35.6.58Zm-54.3-11.22c-.11-.11-.24-.24-.38-.38,0-.23-.09-.46.06-.69.26-.04.52-.09.82-.14-.14-.15-.23-.25-.29-.32-.04-.17-.07-.3-.1-.41-.17-.04-.3-.08-.51-.13.03-.39-.03-.81,0-1.13.27-.31.48-.55.69-.79.29.2.39.6.92.57.04-.44.57-.74.36-1.31-.13-.13-.27-.27-.4-.4-.3.11-.41-.17-.61-.29h-.83c-.44-.33-.76-.38-.99-.14v.56c-.1.11-.2.21-.3.32v1.42c-.26.23-.71.19-.83.65.13.03.26.05.39.08.31.28.62.57.95.84.09.07.24.08.56.18-.46.08-.72.13-1.02.18,0,.13-.03.26-.04.37.59.59,1.17,1.17,1.74,1.74.03.03.06.08.1.1.02.01.07-.04.13-.08v-.7c-.14-.05-.27-.07-.43-.1Zm-28.25-205.69c-.1.11-.2.21-.28.3v.56c.1.11.18.21.25.3-.15.16-.27.3-.41.44-.32-.09-.45.05-.41.46.1.11.26.27.37.38.54,0,.97,0,1.4,0,.08,0,.15-.09.23-.13v-.58c.13-.12.27-.26.41-.39.39.21.58.69.97.83.36,0,.34-.21.34-.41.19-.2.38-.4.57-.6v-.56c-.1-.11-.2-.22-.31-.34v-1.12s-.06-.07-.15-.15h-1.15l-.25-.25h-.57c-.11-.1-.21-.19-.32-.29h-.55c-.11-.1-.21-.18-.35-.3-.04.17-.08.29-.11.41.11.12.21.22.31.33.01.36.01.74.01,1.12Zm129.14,17.37h-.66c-.32-.38-.31-.94-.71-1.28-.06-.05-.13-.08-.19-.12-.37.25-.37.73-.69,1.02v1.39c-.08.08-.15.15-.22.22q.42.8.84,1.06s.11,0,.13-.03c.05-.07.11-.16.11-.24,0-.26.14-.31.39-.31.36.4.74.82,1.11,1.22.19-.17.29-.26.39-.35.43.35.48.36.7.14.05-.32-.08-.65.1-.97.06-.06.13-.12.2-.18-.04-.33.1-.67-.1-.97-.17-.05-.33-.1-.47-.15-.06-.38.11-.72-.12-1.01-.1,0-.19-.02-.25-.03-.21.23-.41.43-.56.59Zm-38.4-61.12c.29-.17.48-.27.65-.37.52.53,1,1,1.47,1.47.03.03.09,0,.15.02l.68-.34c.39.5.37,1.19,1.01,1.5.1-.04.22-.09.32-.14v-.93c-.75-.03-.81-.74-1.17-1.23v-.77c-.16-.15-.3-.28-.45-.42-.14.05-.26.09-.38.13v.32c.09.1.18.2.33.37-.21.03-.38.05-.54.07q-.1-.99.05-1.13c.23,0,.45-.03.7-.04v-.78c-.14-.03-.27-.05-.53-.11-.1-.13-.28-.35-.4-.51h-1.2c-.44.23-.38.76-.7,1.01.01.59.01,1.16.01,1.88ZM32.88,194.42c.19-.11.45.1.67-.13v-.35c-.2-.2-.37-.37-.54-.54.19-.2.38-.4.56-.59.05-.33-.12-.68.11-.96.14-.03.27-.06.43-.09v-.88c-.26-.5-.47-.94-.71-1.37-.06-.1-.19-.17-.25-.22-.35.19-.66.36-.97.52-.04.02-.09,0-.17,0-.17-.11-.29-.37-.64-.26-.07.09-.19.24-.36.45v1.71c.16.15.29.28.43.41h.56c.15.15.28.28.42.42-.09.1-.19.21-.28.3v.86c.25.23.48.47.74.72Zm143.1,18.5c.05.22-.1.47.15.73.18-.02.48.04.61-.08.29-.26.8-.23.92-.69l-.53-.53v-1.98s.05-.07.1-.14h.65q.34.26.71.09c-.12-.38-.27-.76-.55-1.06-.29-.32-.6-.61-.91-.91-.05-.05-.13-.08-.15-.09-.18.1-.34.19-.49.27-.15-.13-.25-.23-.36-.31-.01-.01-.06.04-.16.1,0,.14.04.34-.01.51-.05.17-.18.31-.3.5v1.63l-.23.23v1.22c.21.17.38.34.55.51Zm-1.72,15.57c-.19-.23-.31-.37-.38-.46-.21-.05-.33-.09-.44-.11-.04-.17-.07-.3-.11-.46-.48.04-.65-.45-.99-.62h-.54c-.2.22-.45.49-.71.77v.82l-.24.24v1.25c.53.23.48.97,1.06,1.24.1-.03.22-.08.32-.11.03-.17.06-.3.08-.41.2-.07.37-.12.61-.2-.13-.23-.24-.42-.35-.61.17-.22.43-.07.64-.11.24.08.36.53.78.14-.28-.49.4-.82.27-1.37ZM55.93,71.45c-.1-.2-.19-.39-.26-.54.07-.26.41-.35.22-.87-.05-.04-.39-.18-.46-.41-.07-.25-.19-.41-.34-.58-.17-.2-.43-.33-.52-.65.27-.15.54-.31.83-.48,0-.32.02-.65,0-.98-.02-.37.09-.75-.05-1.1-.17-.09-.21-.32-.43-.31-.13.14-.26.27-.39.41v.55c-.15.15-.28.29-.43.43-.1-.2-.19-.4-.26-.55-.42-.13-.5.24-.73.39v2.29c.26.24.46.58.74.72.26.02.44.03.61.04.21.58-.08,1.16.21,1.73.41-.1.84.09,1.26-.09Zm125.39,69.61c.18-.23.29-.37.4-.51.18-.47-.22-.77-.35-1.15-.07-.22-.31-.47-.67-.43-.09.01-.19-.2-.31-.28-.11-.08-.13-.14-.03-.21.26-.05.52-.1.83-.16-.41-.32-.33-.96-.91-1.05-.39.22-.85.33-1.15.71v.56c.43.22.85.47,1.11.92-.44.44-.88.88-1.31,1.32-.06.06-.06.16-.09.25.14.28.28.55.42.83.1-.09.21-.19.3-.28h.57c.24.24.48.48.72.71v.29c.36.44.55-.12.83-.13.18-.01.36-.03.55-.04-.07-.43.63-.66.23-1.11-.17.12-.31.22-.44.32-.29-.11-.4-.33-.7-.56Zm-56.16,34.74c.08-.34-.41-.4-.31-.78.04-.16-.38-.18-.54.02v.86l.26.26v1.12c.15.18.23.28.33.4v.71c.14.26.23.42.31.57-.13.15-.22.25-.32.37,0,.31-.09.64.06.94l.21.21v.57c-.1.11-.2.21-.28.3v.85c.11.12.2.22.3.34v2.27c.21.13.28.42.64.41.09-.06.23-.16.37-.26.1.08.2.16.29.24.22-.22.07-.48.12-.69.1-.11.19-.21.35-.38-.24-.16-.47-.33-.63-.44-.02-.4.06-.71-.28-.89v-1.99c-.1-.11-.19-.22-.3-.34v-.53c-.13-.2-.4-.32-.3-.61.1-.11.2-.21.28-.3v-1.91c-.21-.21-.51-.51-.84-.83.08-.13.19-.33.28-.49Zm64.24-34.58l-1.61,1.61s.01.07.02.11c.13.12.27.25.35.33.73.18,1.14-.38,1.69-.56s.74-.79,1.05-1.34v-1.33c.1-.11.19-.21.3-.33,0-.12.03-.28-.01-.41-.07-.21-.19-.4-.28-.6-.21-.5-.7-.74-1.01-1.17-.15.04-.28.08-.44.12.12.14.21.23.25.29-.07.49-.6.35-.8.64-.22.48.27.76.3,1.19.04.43.42.82.19,1.45Zm-28.91-68.26c-.19.24-.45.56-.72.91-.08-.16-.17-.27-.14-.32.19-.35.29-.75.57-1.06v-.83c.18-.18.35-.34.51-.52.05-.06.04-.17.06-.26-.16-.51-.75-.46-1.06-.79-.04-.04-.17.02-.29.03-.06.16-.07.39-.19.47-.41.28-.43.8-.76,1.12.05.35-.28.46-.44.68-.05.07-.09.15-.1.17v.92c.28.16.55.32.82.47.05.32-.08.65.09.95.64.35,1.13-.29,1.72-.24.06,0,.13-.1.21-.16v-.83c.1-.12.2-.22.28-.32,0-.19.02-.39-.56-.39ZM2,181.34c.1-.11.19-.21.29-.31,0-.1,0-.19-.02-.43-.46.4-.56-.56-1.1-.16v1.5c.07.07.14.14.23.23v1.75c-.11.14-.2.25-.26.33v1.61c.35.25.25.66.36.99,0,.04.06.07.1.1l.1.1c.02.32.03.64.04.9.12.12.19.19.26.26.03.41-.03.84.04,1.27h.44c.13-.25.15-.53.46-.76-.24-.17-.47-.34-.62-.44v-1.21c.11-.14.2-.25.25-.31.11-.38-.15-.62-.21-.9.07-.07.14-.14.22-.22v-3.12s-.05-.08-.08-.13c-.15-.15-.32-.32-.49-.48,0-.19,0-.38,0-.57ZM149.86,54.94c-.15-.03-.31-.05-.44-.08-.08.09-.13.13-.13.16-.01.47,0,.95,0,1.45.49.23.54.81.84,1.16v.82c-.1.13-.17.22-.24.31.1.1.16.19.24.23.19.11.39.21.59.3.28.14.25.47.41.68.04.05.17.03.2.04.45-.45.89-.89,1.41-1.41,0-.15-.08-.51.27-.72v-.56c-.31-.14-.13-.63-.54-.75-.09.04-.21.09-.31.13-.06.26.09.51-.13.72h-.4c-.33-.29-.59-.52-.86-.75.06-.06.13-.13.21-.21-.2-.33-.64-.51-.62-.96-.19-.06-.35-.12-.51-.17.01-.13.01-.22.01-.39Zm17.76,32.32c-.12,0-.24,0-.35,0,.29.46-.04.59-.18.8v.78c.23.17.57.42.86.63,0,.61-.01,1.13.01,1.66,0,.07.09.15.14.22h.71c.11-.15.27-.38.39-.56.4-.07.74.12,1.05-.16-.02-.12-.03-.25-.05-.36-.2-.07-.37-.13-.53-.18v-.88c-.28-.37-.7-.62-.88-.97.09-.48.66-.54.59-1.03-.08-.09-.17-.19-.31-.36v-1.16c-.31-.1-.58-.18-.84.05,0,.55,0,1.12-.01,1.69,0,.05-.11.1-.14.13-.16-.1-.31-.2-.46-.29Zm-30.97,41.83c.09-.1.19-.2.28-.3l-1.12-1.12s.04-.06.06-.1c.17-.06.33-.11.49-.17v-1.55c-.17-.14-.39-.31-.58-.47v-1.18c-.11-.13-.2-.23-.29-.34v-1.11c-.35-.26-.28-.8-.82-.99-.05.44-.02.85-.03,1.28.09.1.19.2.29.31v.56c.1.11.19.21.29.31v2.28c.1.11.2.22.29.32v1.41l.26.26v1.7c.13.17.21.26.28.35l-.23.23v2.66c.3.12.56.17.81-.02.01-.09.02-.18.03-.29-.09-.1-.18-.2-.29-.32v-1.55c0-.08.05-.17.09-.26.06-.05.13-.12.19-.18v-1.72Zm-28.48,174.39c-.31.07-.56-.08-.81.17v1.03c-.17.31-.25.46-.31.58.18.4.67.51.6.99-.19.09-.38.18-.6.28.04.15.07.27.1.39q1.25.03,1.34-.13c-.21-.2-.45-.39-.12-.69h.3c.12-.13.25-.27.39-.42-.11-.41-.58-.35-.82-.59.03-.32-.1-.65.09-.96.09-.02.18-.03.27-.05.28.31.57.62.86.94.31-.31.54-.55.78-.8v-.63c-.51.07-.13-.45-.38-.61-.33-.17-.76.16-1.05-.2-.05-.23.1-.48-.06-.63-.34-.19-.47.03-.64.19-.18-.19-.46-.29-.46-.64,0-.24-.24-.23-.43-.19-.13.13-.27.27-.41.41v.57c.14.14.24.35.41.38.21-.11.36-.19.53-.28.21.19.38.34.51.45-.05.18-.06.27-.09.44ZM33,151.51c-.31.18-.46.58-.84.69-.32.09-.45-.65-.86-.16,0,.3-.03.62-.04.9-.21.21-.38.38-.56.56.02.12.04.25.07.39.47.11.96-.1,1.43.17-.11.4-.5.72-.34,1.12.26.27.49.51.71.75.33-.05.67.11.98-.11v-1.22c-.1-.1-.17-.17-.26-.26v-.97c0-.09.05-.17.07-.26.07-.07.13-.13.21-.21v-1.7s-.05-.07-.13-.17c-.13.02-.29.05-.44.08,0,.18,0,.27,0,.4Zm35.62-109.82c-.05.44.09.77-.11,1.07-.16.06-.32.11-.43.15.33.36.65.7.97,1.04l1.4-1.4c.16-.03.29-.06.46-.09v-1.97c.17-.31.25-.46.38-.7-.33-.07-.38-.39-.73-.44-.31-.05-.55-.32-.54-.71,0-.02-.12-.05-.2-.08-.05.28-.09.54-.13.77-.2.04-.33.07-.52.11.03.19.06.36.1.56.16-.15.26-.25.38-.36.12.03.25.07.38.1v.84c.09.27.56.39.21.74-.17.06-.33.11-.48.16-.04.36.1.7-.05.92-.17-.11-.35-.23-.53-.35.08-.5-.28-.84-.43-1.25h-1.72s-.07.06-.12.12v.63c.15.14.28.26.41.38l.25-.25c.29,0,.61,0,1.05,0Zm31.25,262.05c-.25.05-.38.08-.49.1-.07.21-.12.37-.17.51h-1.18c-.37-.19-.4-.61-.62-.9-.15-.19-.32-.35-.59-.19-.03.04-.08.07-.08.11,0,.67,0,1.33,0,1.95-.13.18-.23.32-.32.44.17.37.34.65.76.61.12-.13.25-.27.4-.42.02-.29.03-.61.05-.94.21-.1.38-.12.53.05.06.61-.03,1.22.05,1.85h1.86c.13-.13.27-.26.44-.43-.31-.2-.6-.39-.88-.58v-.84c.08-.08.15-.15.24-.24v-1.08Zm42.52-13.28c-.31.33-.85-.13-1.14.27v.49c.21.38.39.69.6,1.07v1.34s.06.07.11.12c.09-.2.18-.39.3-.65.21.12.39.22.56.32.24-.22.48-.45.67-.64.09-.56-.04-1.08.08-1.56.22-.07.38-.12.56-.17-.07-.46-.47-.76-.33-1.2-.22-.19-.35-.48-.7-.41-.18-.22-.35-.44-.51-.63-.24.08-.37.12-.49.16v.61c.09.09.18.2.28.3.01.18.01.37.01.58Zm-14.93-92.46v2.57c.1.1.19.21.29.31v2.56c.1.11.2.22.27.3v.58c-.36.23-.29.56-.26.72.28.35.48.61.68.85.18-.18.32-.31.45-.44v-.57c-.1-.11-.2-.21-.29-.31v-1.98c-.1-.12-.2-.22-.29-.33v-1.64c-.13-.2-.23-.35-.31-.47.15-.25.26-.43.36-.6-.14-.2-.24-.35-.24-.34-.32-.6.28-.8.2-1.2-.09-.1-.19-.2-.28-.3.09-.1.18-.2.27-.29-.1-.11-.19-.22-.29-.33v-.85c-.46-.19-.11-.72-.41-.97-.1,0-.2-.01-.29,0-.04.01-.07.06-.15.15.02.18-.04.49.09.61.27.24.19.51.21.8-.09.1-.18.2-.28.31v.56c.08.09.18.19.27.3Zm19.52,80.49c-.34-.58-.52-1.11-1.02-1.34-.15.13-.29.25-.41.35-.05.36.1.7-.11.99-.23.03-.45.05-.72.08v1.08l-.89.89c.03.06.08.17.12.26.33.12.44-.18.61-.26h.54c.24.21.44.51.67.54.56.07.54.55.78.88.12-.01.25-.03.34-.04.29-.38-.12-.51-.17-.69v-1.71c.11-.13.2-.24.27-.33,0-.25,0-.49,0-.7ZM6,117.75c-.13.3-.23.46-.27.63-.04.23.06.55-.07.68-.35.38-.2.78-.19,1.17.28.13.54.17.81-.03v-1.98c.1-.11.19-.21.29-.33v-.55c.1-.11.2-.21.29-.32v-.85c.1-.1.19-.21.29-.31v-1.41c.1-.12.25-.22.27-.34.05-.27-.07-.58.24-.76-.02-.6.52-1.09.34-1.72-.02-.08-.11-.14-.15-.2h-.57c-.14.14-.28.28-.42.42v1.13c-.1.11-.2.21-.29.31v1.14c-.1.11-.2.21-.29.31v1.41c-.1.12-.2.22-.29.33.01.49.01.96.01,1.27Zm175.74,54.95c-.11-.19.1-.45-.12-.65-.27.14-.54.27-.79.43-.11.07-.18.2-.28.31v.82l-.55.55v1.12s.05.07.09.13c.25-.02.47-.52.61-.32.3.55-.04.63-.12.84.05.22-.1.48.15.68h1.41s.07-.05.14-.1v-2.08c-.44-.37-.7-.83-.83-1.39.08-.11.18-.21.29-.34ZM38.75,121.81v-.47c-.1-.1-.19-.21-.29-.31v-.47c-.48-.49-.91-.93-1.37-1.39-.09.03-.22.07-.38.12v1.21l-.25.25v.93c-.18.14-.4.32-.56.45v1.51s.06.07.09.1c.19.05.37.06.39,0,.21-.51-.57-.72-.07-1.12h1.43s.06-.07.03-.03c.13-.12.2-.18.26-.23.1.09.2.17.29.25.14-.25.26-.49.43-.8Zm-34.74,4.69v.86c.1.11.2.21.3.32v.85c.14.14.28.28.4.4.45-.23.51-.73.73-1.11.03-.05-.05-.16-.08-.25-.17-.06-.33-.11-.56-.19.14-.28.25-.52.39-.78-.1-.14-.21-.28-.29-.4v-.76c.22-.4.39-.72.56-1.03v-.74c.08-.09.17-.2.27-.31.06-.25-.05-.52.18-.78.2-.22.28-.55.39-.83.02-.06-.07-.16-.11-.23-.09-.01-.18-.02-.29-.03-.1.09-.2.18-.23.21-.29.17-.55-.03-.8.22v.86c-.12.12-.19.19-.3.3v2.01c-.12.12-.19.19-.3.3v.86c-.13.12-.2.18-.26.25Zm119.14,38.39v1.65c0,.08.06.16.09.24.07.07.13.14.2.21v3.42c.1.1.19.21.29.31v.85c.1.11.2.21.29.31v.83c.25.25.48.49.71.72l.1-.1c.26-.67-.34-1.2-.29-1.81l-.53-.53v-2.28c.19-.2.38-.4.53-.56-.17-.33-.33-.63-.48-.94l.21-.21v-1.2c-.34-.29-.3-.83-.76-.98-.08.02-.17.04-.36.07Zm.87-5.38v-1.14s-.07-.06-.12-.11c-.07-.01-.16-.03-.25-.04-.21.17-.41.31-.52.61-.1.28-.4.5-.61.75-.17.21-.46.34-.54.72.08.1.19.24.31.4v.57c.22.11.23.34.32.55.1.24.37.4.52.55.06.31-.09.56.12.7.26-.13.5-.25.74-.38v-2.01c-.07-.08-.17-.19-.27-.3v-.56c.1-.1.2-.2.3-.31Zm72.35-78.41c-.56-.21-.51-.92-1-1.25-.07-.05-.11-.14-.18-.24v-1.03c-.16-.19-.29-.33-.42-.48-.15.04-.27.07-.41.1v.92c.07.08.16.18.26.3v.54c.1.11.19.21.29.32v.56c.1.11.19.21.29.31.05.22-.1.47.1.67.13.03.26.07.39.1.17.64.74,1.13.7,1.86.42.31.64.76.81,1.23.1.27.24.44.5.54.16-.33.07-.66.07-1.18-.13-.07-.37-.22-.54-.32-.03-.87-.58-1.4-.87-2.23,0-.09,0-.38,0-.72Zm-123.17,43.77v1.05c-.1.11-.2.21-.3.32v1.71c-.36.23-.3.56-.25.86.1.12.19.23.28.34v1.07c.12.15.2.26.23.3v.89c-.1.1-.17.17-.24.24,0,.41-.03.83,0,1.17q.68.68.81.61v-.94c-.07-.07-.14-.14-.23-.23v-4.64c.09-.09.16-.16.26-.26,0-1.01,0-2.06,0-3.11,0-.06-.1-.11-.16-.17-.11.24-.23.48-.39.79Zm132.93,82.3c-.1.11-.2.21-.28.3v.56c.1.11.18.21.25.3-.1.13-.19.23-.29.35v.79c-.12.15-.2.26-.29.38v.8l-.26.26v1.69s.05.07.07.11c.27.07.54.17.78-.07v-2c.1-.11.19-.21.29-.32v-1.13c.1-.11.2-.21.29-.32v-1.12q.65-1.03.41-1.85c-.26.33-.79.29-.99.71.02.19.02.38.02.56ZM14.34,87.46v.56c-.1.11-.2.21-.3.32v.84c-.19.27-.59.38-.56.92.09.08.26.22.42.37l.43-.43v-.58c.19-.14.24-.36.33-.57.09-.24.37-.4.56-.59v-1.36c.3-.46.39-.96.84-1.17v-.6c.1-.11.2-.21.3-.32v-.57c.37-.2.25-.58.35-1.06.11-.07.36-.22.53-.32-.07-.35.09-.62-.24-.77-.1.03-.23.07-.35.11v.63c-.43.23-.61.68-.77,1.09-.15.36-.28.75-.36,1.14-.05.24-.09.43-.26.62-.17.2.13.57-.07.67-.29.09-.41.13-.54.17v.6c-.11.09-.21.19-.31.3Zm143.55,177.71v-.5c.03-.21.38-.22.17-.48h-.62c-.16-.2-.33-.42-.47-.59h-1.23s-.07.06-.1.09c.09.18.19.37.29.57-.19.19-.42.33-.51.53-.15.36-.51.66-.41,1.11.02.08.07.16.1.23.46.24.76-.2,1.21-.26.16.2.34.42.48.6h.65c.16-.22.48-.33.43-.7-.08-.09-.17-.19-.27-.3.1-.1.19-.2.28-.3ZM7.16,218.37c.3-.43.55-.92.57-1.19,0-.13-.05-.26-.08-.38h-.64c-.21-.23-.43-.48-.71-.79,0-.23.05-.58-.02-.89-.07-.32-.26-.6-.41-.92-.08.08-.14.11-.14.14,0,.38,0,.76,0,1.15.09.09.18.2.28.3v.85c.1.11.19.21.29.31v1.63c.21.37.39.68.59,1.03v.67c.17.34.3.58.42.81.23-.18.08-.45.15-.66.07-.2.22-.37.36-.6-.26-.21-.48-.39-.66-.53,0-.35,0-.64,0-.93Zm76.95-29.57v-1.43s-.06-.07-.03-.03c-.18.12-.37.24-.56.36v.76c-.14.22-.23.37-.31.5.26.35.45.66.26,1.05-.07.07-.14.14-.2.2,0,.23-.03.45-.04.61-.13.13-.2.2-.27.27v1.14c.1.11.2.21.28.3.05.23-.1.49,0,.58.22-.11.43-.21.6-.28v-.91l.28-.28v-1.15c.12-.12.19-.19.26-.26,0-.41.03-.83,0-1.18-.14-.11-.2-.18-.27-.25ZM102.77,24.95c.17.14.4.31.56.44v1.21l-.24.24c0,.11-.06.26-.02.38.09.29.21.58.35.86.08.14.24.25.36.37.24-.24.09-.5.19-.9.1-.07.34-.23.51-.34v-.92l-.27-.27v-1.75c-.37-.16-.69-.3-.98-.43l-.46.46c0,.18,0,.37,0,.65Zm29.28,266.06l.56.56c-.17.39.48.49.31.87-.1.11-.2.21-.29.31-.05.23.1.49-.17.72-.16-.15-.32-.3-.39-.37-.07-.55.08-.99-.15-1.39-.15.03-.28.06-.45.09,0,.65-.01,1.26,0,1.88,0,.22-.1.48.14.64h1.44s.07-.06.1-.1c-.06-.23-.47-.37-.17-.69.17-.06.33-.11.49-.17v-.89c.1-.11.19-.21.29-.31v-.57l-.42-.42h-.53c-.23-.12-.36-.55-.76-.16ZM5.01,207.9c-.13.13-.27.27-.4.4v1.49c.1.1.16.16.26.26,0,.3-.06.64.02.95.07.33.27.63.39.9.28.07.39-.1.54-.2.14-.1.32-.12.5-.18-.03-.16-.05-.29-.07-.4-.21-.07-.37-.12-.45-.15-.21-.38.11-.46.21-.65v-.56c-.1-.11-.18-.21-.26-.3.1-.12.19-.22.25-.29v-.85c-.15-.16-.28-.3-.41-.43-.2,0-.39,0-.58,0ZM26.11,60.75v1.15c-.27.27-.66.5-.78.82-.15.38-.39.62-.64.88-.06.26.06.55-.19.79-.19.18-.16.51-.39.7-.05.04.04.25.07.4.23-.23.49-.29.74-.4.02-.22.05-.45.07-.65l.52-.52c0-.23.03-.45.04-.65.23-.08.4-.14.55-.19v-.32c.1-.11.2-.21.28-.31.05-.33-.12-.67.11-.96.14-.03.27-.06.4-.09.05-.76.52-1.32.78-1.92.17-.05.3-.09.42-.13,0-.36.09-.69-.07-1.01-.26.11-.39.28-.5.55-.18.46-.41.91-.81,1.24-.21.2-.4.42-.6.62Zm89.29,241.72c.24.28.43.44.74.5.23.04.33.4.48.44.33-.24.59-.44.81-.61-.09-.45.1-.71.24-.93v-.91c-.16-.02-.29-.04-.39-.05-.35.19-.42.52-.55.83h-.42c-.06-.22-.09-.44-.24-.63-.14-.19-.12-.51-.19-.83-.19.33-.33.59-.49.86.01.43.01.86.01,1.33ZM101.91,26.87v-2.01c-.13-.13-.27-.26-.39-.38-.23.11-.46.22-.73.35v2.6c.15.18.28.32.38.44h.6c.17-.22.48-.34.42-.7-.09-.09-.18-.2-.28-.3Zm79.96,25.7c-.22.05-.47-.1-.69.11v.85c.3.46.4.95.83,1.17v.26c.36.37.68.71,1.02,1.05.02.02.09,0,.11,0,.31,0,.3-.19.31-.46-.18-.14-.4-.31-.58-.45v-.94c-.45-.46-.46-1.19-1-1.59Zm-98.62,150.02c-.1-.11-.19-.21-.33-.35.11-.23.31-.47.31-.7,0-.32.17-.51.28-.68v-2.89s-.06-.07-.11-.12c-.12.02-.24.04-.42.07,0,.69,0,1.35,0,2,0,.08-.09.15-.13.23h-.31c-.05.11-.1.23-.18.44.22.16.46.32.69.48-.16.17-.25.27-.34.38v1.99s.06.07.13.16c.13-.02.29-.05.44-.08-.02-.37-.02-.65-.02-.93ZM171.51,38.51c.4-.07.52.25.74.42-.08.36.21.51.41.68.23.19.14.51.39.71.49.39.61.98.71,1.56.27.08.53.17.78-.07v-.64c-.17-.15-.4-.33-.58-.54-.2-.24-.51-.37-.59-.76-.04-.24-.35-.42-.53-.63.17-.38-.47-.49-.3-.88-.24-.23-.47-.47-.71-.71-.22.02-.46-.09-.67.08.1.23.2.46.35.78ZM19.8,74.25v.63c-.53.17-.5.8-.84,1.12v1.14s.06.07.1.1c.09,0,.18,0,.2.02.23-.16.42-.3.62-.44-.31-.59.12-1,.23-1.48.09-.42.35-.8.55-1.22-.05-.26.16-.61-.15-.86-.43.2-.38.73-.71.99Zm109.7,136.87c-.15-.31-.31-.62-.46-.93l-.42.42c0,.32-.09.65.06.95l.22.22c0,.33-.01.66,0,.99,0,.08.06.17.09.27.06.05.13.11.17.16.08,1.01-.1,2,.11,2.98,0,.01.06.01.1.01.03-.03.09-.07.09-.1.01-.47,0-.95,0-1.42.1-.1.19-.21.28-.3v-.85c-.1-.11-.2-.21-.29-.32v-.54c-.11-.12-.2-.23-.26-.3v-.85c.12-.15.21-.26.31-.39Zm78.64-18.61c0,.7,0,1.37.01,2.03,0,.03.12.07.19.08.03,0,.07-.06.1-.09l.11-.11c.1.09.2.17.3.26.14-.26.29-.53.41-.75v-2.1c-.31.15-.57.27-.82.41-.12.07-.21.19-.3.27Zm-146.29,85.15h-1.7c-.2-.19-.4-.38-.6-.57-.23.25-.15.51-.07.76.25.13.48.24.79.4h.74c.08.08.15.15.24.24h.96c.12-.17.05-.42.25-.6.18-.17.14-.51.39-.67-.14-.14-.27-.27-.41-.41-.15.32-.28.65-.59.85Zm-35.88-126.33c-.16.16-.31.34-.48.47-.1.08-.24.09-.34.13-.36-.23-.48-.57-.65-.91-.12.03-.25.07-.41.11.12.13.2.23.33.38v1.43c.22.15.31.43.45.41.46-.42.84-.76,1.24-1.13-.05-.23.13-.57-.14-.89Zm58.43,34.32v-1.43c.1-.1.19-.21.29-.31v-1.41c.1-.12.2-.22.28-.32-.06-.33.14-.68-.15-.98-.12.02-.25.04-.42.06v.91c-.14.18-.23.29-.32.41v2.25c-.09.09-.16.16-.23.23q-.03.93.14,1.01c.14-.16.27-.29.41-.42Zm71.77,91.45c.18.26.31.45.4.58.33-.06.59.08.75-.17v-.2c-.36-.5-.67-.95-.97-1.37h-1c-.12-.16-.29-.39-.46-.61-.17.05-.3.09-.49.14.15.35.29.67.43.98.43.16.92-.09,1.34.18v.47Zm52.83-81.69c-.23-.26-.51-.14-.78-.08-.12.13-.25.27-.35.37v1.97c.16.19.28.33.41.48l.43-.43v-1.71c.1-.11.2-.21.3-.32,0-.09,0-.19,0-.28Zm-19.81-128.35v-.94c-.17-.14-.39-.31-.59-.47v-.53c-.27-.3-.49-.55-.66-.74-.4-.09-.5.07-.47.39.18.19.38.39.57.6-.12.33.3.44.3.74,0,.26.26.44.3.73.07.46.24.95.72,1.21.22-.19.07-.45.12-.67-.1-.11-.19-.21-.29-.32Zm-1.13,70.5c.26-.18.45-.31.57-.39-.02-.31-.03-.49-.03-.64-.17-.16-.3-.29-.45-.43-.39.09-.71.42-1.15.35-.03,0-.07.06-.1.1v.56c-.1.11-.19.21-.29.31l.41.41c.1-.09.2-.17.31-.27h.73ZM16.35,253.04v.93c.36.19.24.7.6.89.06.03.13.04.23.07.02-.35.03-.66.05-.95.11-.13.2-.24.26-.31.06-.27-.13-.36-.23-.52-.09-.14-.11-.32-.16-.47h-.74c-.1-.15-.25-.38-.41-.63-.23.35-.21.61-.07.87.12.03.25.07.47.12Zm1.72-175.2c0,.32.08.6,0,.68-.3.25-.22.71-.56.92v.71c-.23.46-.41.82-.56,1.18-.02.05.08.15.13.25.12-.02.25-.04.48-.07-.25-.6.41-.98.27-1.54.19-.19.43-.33.51-.53.08-.21.11-.44.36-.59-.09-.3.07-.63-.12-.97-.13,0-.26-.02-.5-.04Zm189.41,124.36c-.24.04-.34.26-.5.41v.54c-.1.12-.2.22-.27.3v.56c.1.12.18.22.26.31-.23.22-.43.43-.11.69h.58c.13-.26.25-.52.37-.76l-.24-.24c0-.28.01-.56,0-.85-.03-.31.08-.64-.09-.96Zm-22.17,3.94c.19-.34.3-.52.4-.71l-.69-.69c-.22.04-.46-.09-.69.1.04.41-.19.75-.3,1.01.25.34.47.62.71.96.09-.25.15-.42.21-.58.15-.04.28-.07.36-.09Zm-5.02-156.14c-.31-.39-.52-.64-.72-.9-.16.05-.28.08-.41.12v.93c.28.24.59.52.69.61.24.46.05.71.31.97.22-.26.51-.45.74-.84-.21-.15-.44-.3-.6-.41,0-.28,0-.42,0-.48Zm20.1,180.44v.57c-.1.1-.19.21-.29.31v1.13c-.1.11-.19.21-.31.33.03.12.07.25.12.46.21-.2.37-.35.49-.46v-.65c.44-.31.61-.79.86-1.27-.12-.22.08-.52-.1-.78-.42-.26-.53.19-.77.36Zm3.73-13.79v1.43c-.1.1-.19.21-.28.3v1.14s.06.07.12.12c.24-.46.48-.9.75-1.43v-.73l.29-.29c-.56-.13-.17-.62-.38-.91-.02-.03-.07-.03-.1-.04-.13.15-.27.28-.4.41Zm-183.17,45.65v-.62c-.37-.05-.17-.48-.4-.64-.34-.23,0-.65-.29-.88-.23,0-.46-.09-.71.08v.65c.16.16.45.32.47.5.05.3.3.45.35.72.03.14,0,.29,0,.43,0,.07.09.12.14.19.16-.16.29-.29.43-.43ZM176.03,43.54c-.25-.52-.33-1.03-.8-1.31-.22.05-.47-.1-.67.13v.59c.32.3.66.62,1.05.97.11-.1.27-.25.42-.38Zm31.53,156.74c-.1.1-.19.21-.28.3v.57l.42.42c.13-.26.26-.51.38-.75-.09-.11-.17-.22-.26-.33.21-.4.41-.8.61-1.2-.01-.17-.03-.35-.05-.6-.22.03-.38.06-.54.08v.63c-.1.1-.19.21-.29.31.01.2.01.39.01.57ZM28.55,58.02c.43-.85.86-1.7,1.3-2.57,0-.17-.02-.34-.04-.5-.08-.03-.14-.05-.15-.05-.38.75-.64,1.56-1.26,2.16.08.28-.23.38-.28.59-.02.11.06.25.09.37.14,0,.24,0,.34,0ZM8.68,224.61s-.08.07-.08.11v1.97s.06.07.09.1q.39.03.77-.09v-.63c-.17-.14-.39-.32-.59-.49.13-.14.22-.24.31-.34-.05-.23.1-.48-.11-.67-.09-.01-.18-.03-.27-.03-.05.01-.08.05-.12.07Zm80.59,77.46q.56.74,1.02.87c.06-.16.08-.34.18-.48.1-.15.28-.25.24-.45-.06-.28-.31-.17-.44-.26-.19-.12-.31-.36-.6-.23-.11.19-.4.26-.4.55Zm40.22-81.42c.16.19.29.33.41.48.14-.03.27-.06.38-.09q.02-.57-.21-.9c-.13-.43.11-.92-.17-1.34l-.42.42c.01.49.01.99.01,1.43Zm48.5-174.25c-.29-.23-.48-.58-.81-.74-.41.21-.41.26-.06.82.01.2.02.38.03.53.18.16.31.29.46.43.14-.05.26-.1.38-.14v-.9Zm-16.66,29.55c-.22-.2-.46-.43-.72-.66-.37.12-.33.57-.54.8-.15.03-.28.06-.61.12.28.21.45.33.61.45.1-.09.2-.18.29-.25.34-.06.69.14.97-.14v-.32Zm-123.6-31.99c.2-.39.36-.8.61-1.16.16-.23.09-.45.11-.67,0-.05-.11-.1-.15-.14-.15.13-.29.26-.42.38v.31c-.19.09-.39.19-.58.28.06.34-.13.69.13.98.1,0,.19,0,.3.02Zm-18.92,215.06c.28-.44-.1-.58-.19-.91v-.72c-.15-.14-.28-.27-.42-.39-.13.21-.41.28-.42.58.11.22.23.45.42.85.11.09.35.32.61.59Zm54.88-125.14c0,.36-.34.46-.49.67v.57c.24.24.47.47.71.71.31-.27.11-.47-.12-.69.08-.09.16-.19.26-.31v-.57c-.11-.11-.23-.25-.36-.38Zm86.28-80.21c.1,0,.23.05.36.04.32-.02.64.09.97-.09.01-.12.01-.24.02-.35-.15-.15-.28-.28-.42-.42h-.56c-.17.24-.59.35-.37.82Zm-77.19,155.7c.11-.11.18-.15.18-.18,0-.48,0-.96,0-1.44-.13-.13-.27-.27-.43-.42-.13.26-.26.51-.39.76.4.19.13.61.45.74.07.18.13.36.19.54Zm122.29,3.71q-.13,1.55.1,1.96c.2-.19.05-.44.12-.72.17-.15.38-.33.56-.49v-.37c-.11-.03-.24-.05-.36-.11-.15-.07-.27-.17-.42-.27Zm-126.53,81.84c-.34.33-.69.66-1.03.99-.02.02,0,.09,0,.14s0,.11,0,.14c.24.24.51.14.78.07.01-.47.69-.83.24-1.34ZM35.73,118.61c-.21.91-.21,1.51.02,1.74.12-.02.25-.05.36-.07v-1.57s-.06-.07-.08-.1c-.11,0-.2,0-.3,0ZM5.42,212.73c.3.06.43.08.54.1.07.21.12.37.17.53.25-.05.49.08.72-.11,0-.1,0-.23.02-.34-.15-.15-.28-.28-.42-.42h-.56c-.1-.09-.2-.19-.35-.34-.05.2-.08.36-.12.58ZM54.34,73.48c.31-.25.56-.46.82-.67-.06-.18-.1-.3-.15-.42h-.61q-.31.3-.45.69c.12.12.25.26.39.4Zm133.89,67.52h-.62c-.19.25-.69.41-.31.86h.58c.18-.23.6-.34.35-.86Zm-32.89-12.8c-.1-.4-.33-.64-.42-.94,0,0-.06.01-.1.02-.12.13-.25.27-.35.37v.55c.16.18.28.32.41.46.14-.15.28-.28.46-.46Zm38.01-52.67c-.15.04-.38-.1-.38.2.07.07.14.14.2.2.14.33-.13.74.2,1.06.12-.02.25-.05.39-.08v-.95c-.15-.16-.28-.29-.41-.43Zm-15.07,46.37c.13.11.31.25.53.43.24-.04.58.14.89-.11,0-.16.09-.35-.15-.42-.1.08-.2.16-.23.18-.34-.11-.41-.46-.76-.51-.22,0-.29.13-.28.43Zm24.27-21.38c-.2,0-.4-.04-.44.22.18.39.27.83.62,1.13.09.08.14.1.21-.05v-.87c-.15-.17-.28-.31-.39-.43Zm-14.51,56.25v-.7l-.4-.4c-.2.16-.34.28-.47.39.06.25-.09.49.13.71h.74Zm-1.55-37.3c.04-.11.09-.23.17-.44-.28-.06-.3-.43-.71-.43-.24.17-.62.29-.45.78.32.16.65.05.99.09ZM8.54,224.18c.05-.05.18-.18.31-.31q.05-.62-.1-.76h-.28c-.15.21-.49.29-.43.77.1.06.3.18.5.3ZM52.79,70.53c.07.43.3.56.55.72.1-.04.22-.09.33-.13v-.49c-.16-.23-.27-.4-.39-.58l-.37.37s-.07.06-.12.11Zm32.04,107.79q-.16.69,0,1.45c.13-.14.26-.28.4-.44,0-.32.13-.68-.1-1.01h-.3Zm54.69-138.79c-.05-.24.08-.48-.14-.74-.14.15-.3.29-.43.45v1.12s.05.07.13.16c.12-.02.28-.04.45-.06-.14-.24-.25-.42-.36-.61.15-.15.26-.24.35-.32Zm39.62,8.88v-.28c-.05.05-.1.1-.15.14-.08-.21-.17-.41-.24-.59-.21.19-.35.31-.48.42.05.24-.09.48.1.68.26-.12.52-.24.77-.37Zm-51.68,143.38v-.62c-.16-.29-.3-.53-.45-.81-.2.38-.09.71-.12,1.02-.01.13.03.26.05.4.17.01.3.01.52.01Zm74.31-92.59c.13.25-.06.5.14.69.27.04.54.16.77-.09v-.28c-.23-.17-.34-.59-.91-.32Zm-66.7,40.67c.16-.25.45-.32.42-.72-.04-.14-.27-.25-.44-.47-.12.26-.48.34-.41.74.11.1.24.24.43.45Zm-59.02,150.04c-.34.17-.59-.02-.78.17-.21.43.21.54.39.8.12-.02.25-.05.39-.08v-.89Zm57.98-171.15c-.15-.18-.27-.31-.38-.45-.21.14-.19.35-.15.52.05.2.2.38.27.59.06.2-.09.46.16.62.03-.03.1-.07.1-.1v-1.18ZM21.94,71.53c.25-.25.1-.5.15-.73-.14-.13-.27-.27-.41-.4-.16.12-.33.24-.39.28.27.34.46.6.65.85Zm24.83,11.49c.25.51.35.72.41.83.47.05.49-.16.35-.29-.1-.21-.21-.42-.27-.56-.33,0-.49.04-.49.02Zm-4.32,162.8q.11.46.49.77c.14-.12.28-.24.43-.36-.03-.15-.06-.27-.09-.4-.27-.01-.48-.01-.83-.01Zm40-35.07c-.03.19-.06.32-.06.45.02.31-.08.64.07.94.2.06.18-.09.22-.2.06-.16.15-.31.24-.48-.06-.06-.15-.16-.24-.26.09-.1.18-.19.33-.35-.2-.04-.36-.06-.56-.1Zm74.03-64.01h.4c.13-.16.35-.25.38-.44-.14-.16-.26-.3-.38-.44-.15.03-.27.06-.4.09v.79Zm39.12,98.53c.37-.37.7-.7,1.02-1.03.01-.01-.03-.06-.04-.1-.09-.02-.17-.05-.28-.08-.32.17-.52.49-.81.76.03.12.06.25.11.45Zm-39.29,22.34c.18-.26.7-.41.29-.87-.23.05-.47-.09-.67.09-.2.43.23.54.38.78Zm-27.99-60.73c.16.14.25.35.51.4.11-.36.12-.71-.02-1.12-.18.03-.34.06-.48.09-.01.25-.01.44-.01.63ZM32.12,50.96s.03.21.37.18c.24-.13.46-.28.52-.58.02-.25-.15-.29-.43-.29-.1.14-.22.33-.46.69Zm51.06,146.2s.05-.12.08-.2c-.16-.31-.3-.57-.44-.84h-.31c-.05.1-.1.21-.18.39.29.23.58.45.85.65Zm-49.78,89.11c-.04.11-.09.23-.17.44.18.12.37.24.64.42-.05,0,.05,0,.17,0,.04-.11.09-.23.17-.44-.18-.12-.37-.24-.64-.42.05,0-.04,0-.17,0Zm58.58,14.91c-.18.4-.17.79,0,1.19.16-.03.29-.05.44-.07v-.69c-.14-.14-.27-.27-.43-.43ZM35.88,46.09c-.12-.05-.24-.09-.44-.18-.12.17-.24.36-.36.53.2.1.45.22.73.35.12-.22.04-.46.07-.7Zm88.71,109.98c.11.21-.22.54.18.68l.4-.4c-.11-.21.22-.54-.18-.68-.14.14-.27.27-.4.4ZM33.74,49.72c.16-.28.15-.57.41-.75.05-.03-.02-.24-.04-.37-.6.08-.42.75-.81.96l.1.1c.08,0,.16.03.34.06Zm90.42,107.07c-.18.26-.69.41-.3.86.1,0,.19,0,.14,0,.27-.17.45-.28.63-.39-.21-.21-.34-.34-.47-.47Zm32.44-19.52c-.24.29-.24.58.02.88.12-.02.25-.05.37-.07.03-.31.17-.58-.1-.81h-.29ZM80.95,29.17c-.2-.2-.39-.21-.57,0,.05.22-.1.47.15.71.12-.03.28-.06.43-.09,0-.25,0-.44,0-.63Zm-5.74,262.99c-.26-.18-.41-.69-.86-.3,0,.1,0,.19,0,.14.17.27.28.45.39.63.21-.21.34-.34.47-.47Zm53.51-83.94s-.11.08-.11.11c-.01.37-.01.74,0,1.12,0,.05.11.1.16.15l.4-.4c-.09-.1-.19-.2-.28-.3-.11-.21.22-.55-.17-.68Zm-101.25,67.43h-.5c-.14,0-.29.03-.22.19.1.23.25.44.31.55.17-.09.38-.2.52-.28-.05-.21-.07-.29-.11-.46ZM66.88,40.4c.11.04.23.09.39.16.14-.18.27-.36.46-.61,0,0-.03-.13-.05-.27-.29.15-.55.28-.8.41v.31Zm62.86,182.58c.02.12.05.24.08.43.2-.03.36-.06.53-.09-.13-.28.19-.6-.2-.75-.13.14-.26.27-.41.41Zm-121.86-.36c.08-.2.16-.29.14-.36-.03-.12-.12-.23-.18-.34-.04-.08-.06-.16-.1-.24-.04-.09-.09-.18-.14-.3-.24.24-.1.49-.09.47.15.32.25.52.37.77ZM100.87,23c-.04.11-.09.23-.15.39.18.14.35.28.52.42.19-.25.2-.53-.05-.81h-.32ZM28.96,278.21c-.34.08-.59-.06-.79.12.05.23.26.32.41.5.12-.03.24-.05.38-.08,0-.17,0-.3,0-.54ZM178.85,92.91c.25.23.5.09.74.15.06-.2.35-.24.37-.49-.09-.03-.18-.1-.25-.08-.12.03-.22.13-.34.19-.08.04-.16.06-.24.09-.08.04-.17.09-.28.14Zm-52.41,93.79c.22-.35.2-.6.04-.92-.14.02-.3.04-.45.07,0,.16,0,.25,0,.04.2.4.3.59.41.81Zm21.12-139.99c.23-.11.44-.21.65-.31-.1-.21-.15-.33-.21-.46-.15.03-.28.06-.39.09-.03.3-.17.58-.05.68Zm-107.81,58.4c.24-.28.23-.56.08-.76-.17.1-.36.2-.55.3.21.2.34.33.47.46Zm-31.6,5.51c.24-.38.19-.64.03-.93l-.32.32c.1.2.19.39.29.61Zm161.37-18.14c.2-.19.21-.39-.03-.59-.11.02-.24.05-.43.09.04.2.07.36.11.5h.35ZM25.56,190.42c.25-.05.38-.07.57-.11-.04-.2-.07-.36-.1-.54-.19.04-.32.06-.47.09v.56Zm107.05-73.69c.18.13.27.36.54.4.02-.13.05-.26.07-.38-.18-.13-.27-.36-.54-.4-.02.13-.05.26-.07.38Zm-56.77,25.22c.12.18.25.37.36.54.21-.08.32-.13.38-.14-.12-.18-.25-.37-.36-.54-.21.07-.32.12-.38.14ZM7.88,219.09c.2-.19.21-.39-.03-.59-.11.02-.24.05-.43.09.04.2.07.36.11.5h.35Zm121.7-2.07q-.14,1.14.12,1.17c.02-.13.06-.26.05-.39-.02-.22.09-.46-.17-.78ZM56.1,66.12q-.14,1.07.08,1.36c.13-.38.12-.73-.08-1.36Zm111.79-32.63c.17.12.36.24.54.36.02-.05.07-.17.15-.38-.17-.12-.36-.24-.54-.36-.03.05-.07.17-.15.38ZM38.31,83.29c-.2.19-.21.39.03.59.11-.02.24-.05.43-.09-.04-.2-.07-.36-.11-.5h-.35Zm121.45,56.56c.2-.19.21-.39-.03-.59-.11.02-.24.05-.43.09.04.2.07.36.11.5h.35ZM102.65,28.96c-.24.39-.19.65-.04.94l.38-.38c-.11-.17-.22-.35-.34-.56Zm81.41,50.57c-.05-.25-.07-.38-.11-.57-.2.04-.36.07-.54.1.04.19.06.32.09.47h.56Zm-72.68,223.83c-.19-.2-.39-.21-.59.03.02.11.05.24.09.43.2-.04.36-.07.5-.11v-.35Zm11.88-139.66c-.15.17-.18.36.04.55.22-.05.46.09.71-.13-.25-.14-.49-.27-.75-.42Zm55.74,63.43c.2-.19.21-.39-.03-.59-.11.02-.24.05-.43.09.04.2.07.36.11.5h.35Zm-44.94-106.08c.19.2.39.21.59-.03-.02-.11-.05-.24-.09-.43-.2.04-.36.07-.5.11v.35Zm-110.68,30.86c-.2.19-.21.39.03.59.11-.02.24-.05.43-.09-.04-.2-.07-.36-.11-.5h-.35Zm17.38,92.88c.19.2.39.21.59-.03-.02-.11-.05-.24-.09-.43-.2.04-.36.07-.5.11v.35Zm122.1-170.34c.18-.22.4-.31.45-.58-.17-.06-.33-.13-.54.09.02.12.05.28.09.49ZM30.71,52.84c0,.22,0,.27,0,.31.02.08.06.16.1.24.06-.03.14-.06.19-.11.1-.09.19-.19.34-.35-.22-.03-.38-.05-.63-.09Zm69.64-28.32c.13-.69.12-.69-.07-.89-.14.25-.14.5.07.89Zm88.9,128.17c.24-.05.54.25.8-.08-.3-.18-.55-.17-.8.08Zm-38.8-93.23c-.22,0-.27,0-.31,0-.08.02-.16.06-.24.1.03.06.06.14.11.19.09.1.19.19.35.34.03-.21.05-.37.09-.63Zm48.84,174.81c.27-.05.36-.27.51-.4-.19-.2-.38-.2-.58.03.02.11.05.24.07.37Zm-1.82,5.03c.25.23.41.22.62.05-.02-.13-.04-.29-.06-.4-.2.12-.38.23-.56.35ZM115.24,26.93c-.14.68-.13.68.06.9.16-.25.15-.5-.06-.9Zm11.81,166.69c.13-.69.12-.69-.07-.89-.14.25-.14.51.07.89Zm-47.68,103.56c-.2.19-.21.38,0,.58.13-.05.35.09.38-.19-.13-.13-.26-.26-.39-.39ZM36.3,90.18c-.2.19-.21.38,0,.58.13-.05.35.09.38-.19-.12-.13-.25-.26-.39-.39ZM133.98,13.18c-.07-.14.28-.37-.13-.48-.08.17-.14.32.13.48Zm-4.08,211.63c-.19.26-.27.44.04.56.16-.16.15-.32-.04-.56Zm30.43-200.09c-.21.19-.21.38,0,.58.21-.19.21-.39,0-.58Zm-103.93,46.25c.19-.26.27-.44-.04-.56-.16.16-.15.32.04.56Zm-28.71,63.14c-.21.19-.21.38,0,.58.21-.2.21-.39,0-.58ZM118.08,28.23c.06.14-.29.37.1.47.15-.16.14-.32-.1-.47Zm43.49,45.91c-.06,0-.12,0-.18,0-.02.13-.04.26-.05.38,0,.03.07.1.09.09.07-.02.18-.06.18-.1.01-.12-.02-.25-.04-.38ZM10.38,231.97c.06,0,.12-.01.18-.01.02-.13.04-.26.05-.38,0-.03-.07-.1-.09-.09-.07.02-.18.06-.18.1-.02.13.02.26.04.38Zm16.02-26.23c-.19-.21-.38-.21-.58,0,.2.21.39.21.58,0Zm108.1-65.31c-.21.19-.21.38,0,.58.2-.2.2-.39,0-.58ZM27.98,277.09c.21-.19.21-.38,0-.58-.21.19-.21.39,0,.58ZM170.1,89.03c.21-.19.21-.38,0-.58-.21.2-.21.39,0,.58Zm-43.36,100.2c-.21.19-.21.38,0,.58.21-.19.21-.38,0-.58Zm0-1.15c-.21.19-.21.38,0,.58.21-.19.21-.38,0-.58Zm7.02-44.93c.26.19.44.27.56-.04-.17-.15-.33-.14-.56.04Zm-55.25,2.73c-.21.19-.21.38,0,.58.21-.2.21-.39,0-.58Zm2.58-111.11c.21-.19.21-.38,0-.58-.2.2-.2.39,0,.58Zm113.24,212.89c.26.19.44.27.56-.04-.16-.16-.32-.15-.56.04ZM30.94,120.08c-.06,0-.12.01-.18.01-.02.13-.04.26-.05.38,0,.03.07.1.09.09.07-.02.18-.06.18-.1.01-.12-.02-.25-.04-.38Zm-7.55,148.42c.19-.26.27-.44-.04-.56-.16.16-.15.32.04.56Zm169.96-17.54c-.21.19-.21.38,0,.58.21-.2.21-.39,0-.58Zm-6.6,14.07c-.21.19-.21.38,0,.58.2-.2.2-.39,0-.58ZM39.18,105.69s-.1.07-.09.09c.02.07.06.13.09.19.03-.03.1-.07.09-.09-.02-.07-.06-.13-.09-.19Zm85.37.39s-.07-.07-.1-.1c-.03.06-.07.13-.09.19-.01.02.06.06.09.09.03-.06.07-.12.1-.18Zm13.68-67.29s-.1.07-.09.09c.02.07.06.13.09.19.03-.03.1-.07.09-.09-.02-.06-.06-.13-.09-.19Zm-54.45,67.57l-.1-.1c-.03.06-.07.13-.09.19,0,.02.06.06.09.09.03-.05.07-.12.1-.18Zm56.99,57.65l-.1.1c.06.03.13.07.19.09.02.01.06-.06.09-.09-.06-.03-.12-.07-.18-.1Zm-5.8-125.98c.03.06.07.12.1.18.03-.03.1-.07.09-.09-.02-.07-.06-.13-.09-.19-.03.03-.06.06-.1.1Zm-84.99,226.32s.07.07.1.1c.03-.06.07-.13.09-.19,0-.02-.06-.06-.09-.09-.03.06-.06.12-.1.18Zm-30.76-6.64s-.07-.1-.09-.09c-.07.02-.13.06-.19.09.03.03.07.1.09.09.07-.02.13-.06.19-.09Zm4.99,12.82s-.07.07-.1.1c.06.03.13.07.19.09.02.01.06-.06.09-.09-.06-.04-.12-.07-.18-.1ZM44.1,35.59l.1-.1c-.06-.03-.13-.07-.19-.09-.02,0-.06.06-.09.09.06.03.12.07.18.1Zm150.11,212.79s-.1.07-.09.09c.02.07.06.13.09.19.03-.03.1-.07.09-.09-.01-.07-.06-.13-.09-.19Zm-4.02-70.92s-.1.07-.09.09c.02.07.06.13.09.19.03-.03.1-.07.09-.09,0-.06-.05-.12-.09-.19Zm-113.12-33.88s-.09.07-.09.09c.02.07.06.13.09.19.03-.03.1-.07.09-.09-.01-.06-.05-.12-.09-.19Zm-29.75-59.24c-.03-.06-.07-.12-.1-.18-.03.03-.1.07-.09.09.02.07.06.13.09.19l.1-.1Zm36.03,110.1s-.07.07-.1.1c.06.03.13.07.19.09.02.01.06-.06.09-.09-.06-.03-.12-.06-.18-.1ZM34.4,48.08l-.1-.1c-.03.06-.07.13-.09.19,0,.02.06.06.09.09.03-.06.06-.12.1-.18Zm92.92,146.32s-.1.07-.09.09c.02.07.06.13.09.19.03-.03.1-.07.09-.09-.02-.06-.06-.12-.09-.19Zm4.2-183.85s.07.07.1.1c.03-.06.07-.13.09-.19.01-.02-.06-.06-.09-.09-.03.06-.06.12-.1.18ZM37.56,83.97l-.1-.1c-.03.06-.07.13-.09.19,0,.02.06.06.09.09.03-.06.06-.12.1-.18Zm135.51-8.82c-.03-.06-.07-.12-.1-.18-.03.03-.1.07-.09.09.02.07.06.13.09.19.03-.03.06-.06.1-.1Zm-43.64-44.21c-.03-.06-.07-.12-.1-.18-.03.03-.1.07-.09.09.02.07.06.13.09.19.03-.03.06-.06.1-.1Zm-58.57,257.73s-.07-.07-.1-.1c-.03.06-.07.13-.09.19,0,.02.06.06.09.09.03-.05.07-.12.1-.18Zm115.7-148.72l-.1-.1c-.03.06-.07.13-.09.19-.01.02.06.06.09.09.04-.05.07-.12.1-.18Zm-103.99,66.26c-.06.03-.12.07-.18.1.03.03.07.1.09.09.07-.02.13-.06.19-.09-.03-.03-.06-.06-.1-.1Zm94.75-84.49l.1-.1c-.06-.03-.13-.07-.19-.09-.02-.01-.06.06-.09.09.05.03.11.07.18.1Zm4.16,15.73l.1.1c.03-.06.07-.13.09-.19.01-.02-.06-.06-.09-.09-.03.06-.07.12-.1.18ZM31.81,51.81l-.1-.1c-.03.06-.07.13-.09.19,0,.02.06.06.09.09.04-.05.07-.12.1-.18Zm64.32-24.4l-.1-.1c-.03.06-.07.13-.09.19,0,.02.06.06.09.09.03-.06.06-.12.1-.18Zm-13.6,199.72s-.1.07-.09.09c.02.07.06.13.09.19.03-.03.09-.07.09-.09-.02-.06-.06-.12-.09-.19Zm-60.11-17.9s.07.07.1.1c.03-.06.07-.13.09-.19,0-.02-.06-.06-.09-.09-.03.06-.06.12-.1.18ZM148.75,57.92s.07.07.1.1c.03-.06.07-.13.09-.19.01-.02-.06-.06-.09-.09-.03.06-.07.12-.1.18Zm60.78,75.8c-.03-.06-.07-.12-.1-.19-.03.03-.1.07-.09.09.02.07.06.13.09.19.03-.02.06-.05.1-.09Zm-114.84,171.03s-.07-.07-.1-.1c-.03.06-.07.13-.09.19,0,.02.06.06.09.09.03-.06.07-.12.1-.18Z"/>
      <path class="cls-1" d="m26.4,119.82c.18-.03.27-.05.47-.08.1.13.23.32.39.53v.49c-.1.11-.19.21-.28.31v1.42s-.06.07-.1.1q-.18-.31-.19-1.25c-.07-.06-.13-.13-.2-.19-.17-.16-.07-.35-.09-.53,0-.28,0-.56,0-.8Z"/>
      <path class="cls-1" d="m28.66,124.87c-.13.02-.26.05-.38.05-.04,0-.08-.11-.1-.18,0-.02.06-.09.09-.09.13,0,.26.03.38.05,0,.05,0,.11.01.17Z"/>
      <path class="cls-1" d="m169.37,69.21c.12.25.23.48.36.75-.2.06-.32.1-.46.15-.18-.16-.36-.31-.48-.42.03-.19.05-.28.07-.43.16-.02.34-.03.51-.05Z"/>
      <path class="cls-1" d="m25.23,138.66v.56c-.15.03-.27.05-.47.09-.03-.18-.06-.34-.1-.54.19-.04.32-.06.57-.11Z"/>
      <path class="cls-1" d="m187.71,124.01c-.13.02-.26.05-.38.05-.04,0-.08-.11-.1-.18-.01-.02.06-.09.09-.09.13,0,.26.03.38.05.01.05.01.11.01.17Z"/>
      <path class="cls-1" d="m187.79,121.87l.1-.1c.03.06.07.13.09.19.01.02-.06.06-.09.09-.03-.06-.06-.12-.1-.18Z"/>
      <path class="cls-1" d="m147.12,42.52h.29c.31.22.04.51.21.78-.23.05-.36.07-.48.1-.26-.3-.25-.59-.02-.88Z"/>
      <path class="cls-1" d="m31.61,175.27s.07-.07.1-.1c.03.06.07.13.09.19,0,.02-.06.06-.09.09-.03-.06-.07-.12-.1-.18Z"/>
      <path class="cls-1" d="m46.07,71.81h-.63c-.03-.14-.07-.3-.09-.43.25-.25.5-.1.71-.15.22.19.21.38,0,.58Z"/>
      <path class="cls-1" d="m44.15,69.55c.02.13.05.26.05.38,0,.04-.11.08-.18.1-.02,0-.09-.06-.09-.09,0-.13.03-.26.05-.38.04,0,.11-.01.17-.01Z"/>
      <path class="cls-1" d="m45.68,70.47l.1-.1c.03.06.07.13.09.19,0,.02-.06.06-.09.09-.03-.05-.07-.12-.1-.18Z"/>
      <path class="cls-1" d="m163.07,56.01c-.01.17-.03.34-.04.52-.32.04-.32-.29-.53-.31.12-.34.38-.15.57-.21Z"/>
      <path class="cls-1" d="m185.17,211.77c.19-.21.38-.21.58,0-.2.21-.39.21-.58,0Z"/>
      <path class="cls-1" d="m23.24,175v.65c-.14.03-.3.07-.43.09-.25-.25-.1-.5-.15-.72.19-.22.39-.18.58-.02Z"/>
      <path class="cls-1" d="m31.31,103.54c.16-.18.28-.31.31-.35.21.12.41.23.59.34-.1.22-.15.33-.19.44h-.31c-.12-.13-.25-.27-.4-.43Z"/>
      <path class="cls-1" d="m11.78,237.24c.15-.03.27-.05.39-.07.23.2.23.39,0,.61-.09-.1-.18-.2-.27-.31-.04-.06-.07-.13-.12-.23Z"/>
      <path class="cls-1" d="m32.98,209.33c.04-.26.06-.42.1-.63.16.15.26.24.35.34.05.05.07.13.11.19-.08.03-.16.07-.24.1-.05.01-.1,0-.32,0Z"/>
      <path class="cls-1" d="m174.55,242.63q-.17.29-.55.17c.1-.3.36-.11.55-.17Z"/>
      <path class="cls-1" d="m191.2,153.35v.57h-.72c-.21-.22-.11-.41-.14-.57h.86Z"/>
      <path class="cls-1" d="m189.76,156.5q.29.17.17.55c-.31-.1-.11-.36-.17-.55Z"/>
      <path class="cls-1" d="m82.43,29.08c.13-.02.26-.05.38-.05.04,0,.08.11.1.18,0,.02-.06.09-.09.09-.13,0-.26-.03-.38-.05-.01-.05-.01-.11-.01-.17Z"/>
      <path class="cls-1" d="m82.71,32.24c.13-.02.26-.05.38-.05.04,0,.08.11.1.18,0,.02-.06.09-.09.09-.13,0-.26-.03-.38-.05,0-.05-.01-.11-.01-.17Z"/>
      <path class="cls-1" d="m54.54,55.44h.4c.25.15.23.34.07.54-.23-.12-.43-.26-.47-.54Z"/>
      <path class="cls-1" d="m54.14,275.83c-.33.06-.49.09-.62.11-.19-.21-.18-.37-.04-.54.25.03.29.3.66.43Z"/>
      <path class="cls-1" d="m53.35,274.69s-.07.07-.1.1c-.03-.06-.07-.13-.09-.19,0-.02.06-.06.09-.09.03.06.06.12.1.18Z"/>
      <path class="cls-1" d="m35.3,242.46c.06.43-.36.63-.37.99-.54-.11-.41-.73-.8-.99.41-.16.79-.18,1.17,0Z"/>
      <path class="cls-1" d="m36.34,244.47c.06.33.09.49.11.62-.21.19-.37.18-.54.04.03-.25.3-.3.43-.66Z"/>
      <path class="cls-1" d="m190.77,174.88c.03.06.07.13.09.19.01.02-.06.06-.09.09-.03-.06-.07-.13-.09-.19-.01-.02.06-.06.09-.09Z"/>
      <path class="cls-1" d="m33.33,138.41v-.81c.16-.02.28-.04.43-.06.05.13.09.25.13.35-.17.25-.3.48-.56.52Z"/>
      <path class="cls-1" d="m206.96,121.4c.14.12.22.18.29.25-.25.19-.23-.03-.29-.25Z"/>
      <path class="cls-1" d="m200.39,95.92v-.57c.17.03.37-.08.53.1-.1.24-.26.42-.53.47Z"/>
      <path class="cls-1" d="m43.91,242.61h-.46c-.16-.27-.15-.53-.02-.79.23.04.32.26.48.39,0,.1,0,.19,0,.4Z"/>
      <path class="cls-1" d="m41.08,102.19c-.06.32-.09.48-.13.67-.21-.19-.35-.34-.56-.55.25-.04.38-.06.69-.12Z"/>
      <path class="cls-1" d="m45.65,88.09v-.92c.11-.11.24-.25.39-.41h.63c.22.22-.02.63.45.64l-.48.48c-.38-.2-.48.51-.99.21Z"/>
      <path class="cls-1" d="m156.62,265.01c-.18-.1-.15-.31.33-.26.06.1.17.3.29.51-.04.03-.18.15-.39.33-.07-.16-.15-.37-.23-.58Z"/>
    </g>
  </g>
</svg>